%TF.GenerationSoftware,KiCad,Pcbnew,5.1.6-c6e7f7d~87~ubuntu19.10.1*%
%TF.CreationDate,2020-12-09T03:37:03-08:00*%
%TF.ProjectId,robocrob,726f626f-6372-46f6-922e-6b696361645f,rev?*%
%TF.SameCoordinates,Original*%
%TF.FileFunction,Legend,Bot*%
%TF.FilePolarity,Positive*%
%FSLAX46Y46*%
G04 Gerber Fmt 4.6, Leading zero omitted, Abs format (unit mm)*
G04 Created by KiCad (PCBNEW 5.1.6-c6e7f7d~87~ubuntu19.10.1) date 2020-12-09 03:37:03*
%MOMM*%
%LPD*%
G01*
G04 APERTURE LIST*
%ADD10C,0.150000*%
%ADD11C,0.300000*%
%ADD12C,0.120000*%
G04 APERTURE END LIST*
D10*
X73278952Y-38139619D02*
X72517047Y-38139619D01*
X39496952Y-36869619D02*
X38735047Y-36869619D01*
D11*
X49489523Y-64015714D02*
X49727619Y-64253809D01*
X50441904Y-64491904D01*
X50918095Y-64491904D01*
X51632380Y-64253809D01*
X52108571Y-63777619D01*
X52346666Y-63301428D01*
X52584761Y-62349047D01*
X52584761Y-61634761D01*
X52346666Y-60682380D01*
X52108571Y-60206190D01*
X51632380Y-59730000D01*
X50918095Y-59491904D01*
X50441904Y-59491904D01*
X49727619Y-59730000D01*
X49489523Y-59968095D01*
X47584761Y-63063333D02*
X45203809Y-63063333D01*
X48060952Y-64491904D02*
X46394285Y-59491904D01*
X44727619Y-64491904D01*
X43537142Y-59491904D02*
X42346666Y-64491904D01*
X41394285Y-60920476D01*
X40441904Y-64491904D01*
X39251428Y-59491904D01*
X37822857Y-59491904D02*
X36632380Y-64491904D01*
X35680000Y-60920476D01*
X34727619Y-64491904D01*
X33537142Y-59491904D01*
X56855523Y-56903714D02*
X57093619Y-57141809D01*
X57807904Y-57379904D01*
X58284095Y-57379904D01*
X58998380Y-57141809D01*
X59474571Y-56665619D01*
X59712666Y-56189428D01*
X59950761Y-55237047D01*
X59950761Y-54522761D01*
X59712666Y-53570380D01*
X59474571Y-53094190D01*
X58998380Y-52618000D01*
X58284095Y-52379904D01*
X57807904Y-52379904D01*
X57093619Y-52618000D01*
X56855523Y-52856095D01*
X54950761Y-55951333D02*
X52569809Y-55951333D01*
X55426952Y-57379904D02*
X53760285Y-52379904D01*
X52093619Y-57379904D01*
X50903142Y-52379904D02*
X49712666Y-57379904D01*
X48760285Y-53808476D01*
X47807904Y-57379904D01*
X46617428Y-52379904D01*
X45188857Y-52379904D02*
X43998380Y-57379904D01*
X43046000Y-53808476D01*
X42093619Y-57379904D01*
X40903142Y-52379904D01*
X49743523Y-49029714D02*
X49981619Y-49267809D01*
X50695904Y-49505904D01*
X51172095Y-49505904D01*
X51886380Y-49267809D01*
X52362571Y-48791619D01*
X52600666Y-48315428D01*
X52838761Y-47363047D01*
X52838761Y-46648761D01*
X52600666Y-45696380D01*
X52362571Y-45220190D01*
X51886380Y-44744000D01*
X51172095Y-44505904D01*
X50695904Y-44505904D01*
X49981619Y-44744000D01*
X49743523Y-44982095D01*
X47838761Y-48077333D02*
X45457809Y-48077333D01*
X48314952Y-49505904D02*
X46648285Y-44505904D01*
X44981619Y-49505904D01*
X43791142Y-44505904D02*
X42600666Y-49505904D01*
X41648285Y-45934476D01*
X40695904Y-49505904D01*
X39505428Y-44505904D01*
X38076857Y-44505904D02*
X36886380Y-49505904D01*
X35934000Y-45934476D01*
X34981619Y-49505904D01*
X33791142Y-44505904D01*
X64475523Y-43187714D02*
X64713619Y-43425809D01*
X65427904Y-43663904D01*
X65904095Y-43663904D01*
X66618380Y-43425809D01*
X67094571Y-42949619D01*
X67332666Y-42473428D01*
X67570761Y-41521047D01*
X67570761Y-40806761D01*
X67332666Y-39854380D01*
X67094571Y-39378190D01*
X66618380Y-38902000D01*
X65904095Y-38663904D01*
X65427904Y-38663904D01*
X64713619Y-38902000D01*
X64475523Y-39140095D01*
X62570761Y-42235333D02*
X60189809Y-42235333D01*
X63046952Y-43663904D02*
X61380285Y-38663904D01*
X59713619Y-43663904D01*
X58523142Y-38663904D02*
X57332666Y-43663904D01*
X56380285Y-40092476D01*
X55427904Y-43663904D01*
X54237428Y-38663904D01*
X52808857Y-38663904D02*
X51618380Y-43663904D01*
X50666000Y-40092476D01*
X49713619Y-43663904D01*
X48523142Y-38663904D01*
X77429523Y-49029714D02*
X77667619Y-49267809D01*
X78381904Y-49505904D01*
X78858095Y-49505904D01*
X79572380Y-49267809D01*
X80048571Y-48791619D01*
X80286666Y-48315428D01*
X80524761Y-47363047D01*
X80524761Y-46648761D01*
X80286666Y-45696380D01*
X80048571Y-45220190D01*
X79572380Y-44744000D01*
X78858095Y-44505904D01*
X78381904Y-44505904D01*
X77667619Y-44744000D01*
X77429523Y-44982095D01*
X75524761Y-48077333D02*
X73143809Y-48077333D01*
X76000952Y-49505904D02*
X74334285Y-44505904D01*
X72667619Y-49505904D01*
X71477142Y-44505904D02*
X70286666Y-49505904D01*
X69334285Y-45934476D01*
X68381904Y-49505904D01*
X67191428Y-44505904D01*
X65762857Y-44505904D02*
X64572380Y-49505904D01*
X63620000Y-45934476D01*
X62667619Y-49505904D01*
X61477142Y-44505904D01*
D10*
X76928023Y-21569666D02*
X76451833Y-21569666D01*
X77023261Y-21855380D02*
X76689928Y-20855380D01*
X76356595Y-21855380D01*
X76023261Y-21855380D02*
X76023261Y-21188714D01*
X76023261Y-21283952D02*
X75975642Y-21236333D01*
X75880404Y-21188714D01*
X75737547Y-21188714D01*
X75642309Y-21236333D01*
X75594690Y-21331571D01*
X75594690Y-21855380D01*
X75594690Y-21331571D02*
X75547071Y-21236333D01*
X75451833Y-21188714D01*
X75308976Y-21188714D01*
X75213738Y-21236333D01*
X75166119Y-21331571D01*
X75166119Y-21855380D01*
X74308976Y-21807761D02*
X74404214Y-21855380D01*
X74594690Y-21855380D01*
X74689928Y-21807761D01*
X74737547Y-21712523D01*
X74737547Y-21331571D01*
X74689928Y-21236333D01*
X74594690Y-21188714D01*
X74404214Y-21188714D01*
X74308976Y-21236333D01*
X74261357Y-21331571D01*
X74261357Y-21426809D01*
X74737547Y-21522047D01*
X73832785Y-21855380D02*
X73832785Y-21188714D01*
X73832785Y-21379190D02*
X73785166Y-21283952D01*
X73737547Y-21236333D01*
X73642309Y-21188714D01*
X73547071Y-21188714D01*
X73213738Y-21855380D02*
X73213738Y-21188714D01*
X73213738Y-20855380D02*
X73261357Y-20903000D01*
X73213738Y-20950619D01*
X73166119Y-20903000D01*
X73213738Y-20855380D01*
X73213738Y-20950619D01*
X72308976Y-21807761D02*
X72404214Y-21855380D01*
X72594690Y-21855380D01*
X72689928Y-21807761D01*
X72737547Y-21760142D01*
X72785166Y-21664904D01*
X72785166Y-21379190D01*
X72737547Y-21283952D01*
X72689928Y-21236333D01*
X72594690Y-21188714D01*
X72404214Y-21188714D01*
X72308976Y-21236333D01*
X71451833Y-21855380D02*
X71451833Y-21331571D01*
X71499452Y-21236333D01*
X71594690Y-21188714D01*
X71785166Y-21188714D01*
X71880404Y-21236333D01*
X71451833Y-21807761D02*
X71547071Y-21855380D01*
X71785166Y-21855380D01*
X71880404Y-21807761D01*
X71928023Y-21712523D01*
X71928023Y-21617285D01*
X71880404Y-21522047D01*
X71785166Y-21474428D01*
X71547071Y-21474428D01*
X71451833Y-21426809D01*
X70975642Y-21188714D02*
X70975642Y-21855380D01*
X70975642Y-21283952D02*
X70928023Y-21236333D01*
X70832785Y-21188714D01*
X70689928Y-21188714D01*
X70594690Y-21236333D01*
X70547071Y-21331571D01*
X70547071Y-21855380D01*
X68737547Y-21760142D02*
X68785166Y-21807761D01*
X68928023Y-21855380D01*
X69023261Y-21855380D01*
X69166119Y-21807761D01*
X69261357Y-21712523D01*
X69308976Y-21617285D01*
X69356595Y-21426809D01*
X69356595Y-21283952D01*
X69308976Y-21093476D01*
X69261357Y-20998238D01*
X69166119Y-20903000D01*
X69023261Y-20855380D01*
X68928023Y-20855380D01*
X68785166Y-20903000D01*
X68737547Y-20950619D01*
X68308976Y-21855380D02*
X68308976Y-21188714D01*
X68308976Y-21379190D02*
X68261357Y-21283952D01*
X68213738Y-21236333D01*
X68118500Y-21188714D01*
X68023261Y-21188714D01*
X67547071Y-21855380D02*
X67642309Y-21807761D01*
X67689928Y-21760142D01*
X67737547Y-21664904D01*
X67737547Y-21379190D01*
X67689928Y-21283952D01*
X67642309Y-21236333D01*
X67547071Y-21188714D01*
X67404214Y-21188714D01*
X67308976Y-21236333D01*
X67261357Y-21283952D01*
X67213738Y-21379190D01*
X67213738Y-21664904D01*
X67261357Y-21760142D01*
X67308976Y-21807761D01*
X67404214Y-21855380D01*
X67547071Y-21855380D01*
X66880404Y-21188714D02*
X66689928Y-21855380D01*
X66499452Y-21379190D01*
X66308976Y-21855380D01*
X66118500Y-21188714D01*
X64975642Y-21474428D02*
X64213738Y-21474428D01*
X62404214Y-21760142D02*
X62451833Y-21807761D01*
X62594690Y-21855380D01*
X62689928Y-21855380D01*
X62832785Y-21807761D01*
X62928023Y-21712523D01*
X62975642Y-21617285D01*
X63023261Y-21426809D01*
X63023261Y-21283952D01*
X62975642Y-21093476D01*
X62928023Y-20998238D01*
X62832785Y-20903000D01*
X62689928Y-20855380D01*
X62594690Y-20855380D01*
X62451833Y-20903000D01*
X62404214Y-20950619D01*
X61832785Y-21855380D02*
X61928023Y-21807761D01*
X61975642Y-21760142D01*
X62023261Y-21664904D01*
X62023261Y-21379190D01*
X61975642Y-21283952D01*
X61928023Y-21236333D01*
X61832785Y-21188714D01*
X61689928Y-21188714D01*
X61594690Y-21236333D01*
X61547071Y-21283952D01*
X61499452Y-21379190D01*
X61499452Y-21664904D01*
X61547071Y-21760142D01*
X61594690Y-21807761D01*
X61689928Y-21855380D01*
X61832785Y-21855380D01*
X61070880Y-21855380D02*
X61070880Y-21188714D01*
X61070880Y-21379190D02*
X61023261Y-21283952D01*
X60975642Y-21236333D01*
X60880404Y-21188714D01*
X60785166Y-21188714D01*
X60547071Y-21188714D02*
X60308976Y-21855380D01*
X60070880Y-21188714D01*
X59261357Y-21188714D02*
X59261357Y-21855380D01*
X59689928Y-21188714D02*
X59689928Y-21712523D01*
X59642309Y-21807761D01*
X59547071Y-21855380D01*
X59404214Y-21855380D01*
X59308976Y-21807761D01*
X59261357Y-21760142D01*
X58832785Y-21807761D02*
X58737547Y-21855380D01*
X58547071Y-21855380D01*
X58451833Y-21807761D01*
X58404214Y-21712523D01*
X58404214Y-21664904D01*
X58451833Y-21569666D01*
X58547071Y-21522047D01*
X58689928Y-21522047D01*
X58785166Y-21474428D01*
X58832785Y-21379190D01*
X58832785Y-21331571D01*
X58785166Y-21236333D01*
X58689928Y-21188714D01*
X58547071Y-21188714D01*
X58451833Y-21236333D01*
X56880404Y-21331571D02*
X56737547Y-21379190D01*
X56689928Y-21426809D01*
X56642309Y-21522047D01*
X56642309Y-21664904D01*
X56689928Y-21760142D01*
X56737547Y-21807761D01*
X56832785Y-21855380D01*
X57213738Y-21855380D01*
X57213738Y-20855380D01*
X56880404Y-20855380D01*
X56785166Y-20903000D01*
X56737547Y-20950619D01*
X56689928Y-21045857D01*
X56689928Y-21141095D01*
X56737547Y-21236333D01*
X56785166Y-21283952D01*
X56880404Y-21331571D01*
X57213738Y-21331571D01*
X56213738Y-21855380D02*
X56213738Y-21188714D01*
X56213738Y-21379190D02*
X56166119Y-21283952D01*
X56118500Y-21236333D01*
X56023261Y-21188714D01*
X55928023Y-21188714D01*
X55166119Y-21855380D02*
X55166119Y-21331571D01*
X55213738Y-21236333D01*
X55308976Y-21188714D01*
X55499452Y-21188714D01*
X55594690Y-21236333D01*
X55166119Y-21807761D02*
X55261357Y-21855380D01*
X55499452Y-21855380D01*
X55594690Y-21807761D01*
X55642309Y-21712523D01*
X55642309Y-21617285D01*
X55594690Y-21522047D01*
X55499452Y-21474428D01*
X55261357Y-21474428D01*
X55166119Y-21426809D01*
X54261357Y-21807761D02*
X54356595Y-21855380D01*
X54547071Y-21855380D01*
X54642309Y-21807761D01*
X54689928Y-21760142D01*
X54737547Y-21664904D01*
X54737547Y-21379190D01*
X54689928Y-21283952D01*
X54642309Y-21236333D01*
X54547071Y-21188714D01*
X54356595Y-21188714D01*
X54261357Y-21236333D01*
X53832785Y-21855380D02*
X53832785Y-20855380D01*
X53404214Y-21855380D02*
X53404214Y-21331571D01*
X53451833Y-21236333D01*
X53547071Y-21188714D01*
X53689928Y-21188714D01*
X53785166Y-21236333D01*
X53832785Y-21283952D01*
X53023261Y-21188714D02*
X52785166Y-21855380D01*
X52547071Y-21188714D02*
X52785166Y-21855380D01*
X52880404Y-22093476D01*
X52928023Y-22141095D01*
X53023261Y-22188714D01*
X52166119Y-21855380D02*
X52166119Y-21188714D01*
X52166119Y-21379190D02*
X52118500Y-21283952D01*
X52070880Y-21236333D01*
X51975642Y-21188714D01*
X51880404Y-21188714D01*
X51547071Y-21855380D02*
X51547071Y-20855380D01*
X51118500Y-21855380D02*
X51118500Y-21331571D01*
X51166119Y-21236333D01*
X51261357Y-21188714D01*
X51404214Y-21188714D01*
X51499452Y-21236333D01*
X51547071Y-21283952D01*
X50737547Y-21188714D02*
X50499452Y-21855380D01*
X50261357Y-21188714D02*
X50499452Y-21855380D01*
X50594690Y-22093476D01*
X50642309Y-22141095D01*
X50737547Y-22188714D01*
X49880404Y-21188714D02*
X49880404Y-21855380D01*
X49880404Y-21283952D02*
X49832785Y-21236333D01*
X49737547Y-21188714D01*
X49594690Y-21188714D01*
X49499452Y-21236333D01*
X49451833Y-21331571D01*
X49451833Y-21855380D01*
X48547071Y-21807761D02*
X48642309Y-21855380D01*
X48832785Y-21855380D01*
X48928023Y-21807761D01*
X48975642Y-21760142D01*
X49023261Y-21664904D01*
X49023261Y-21379190D01*
X48975642Y-21283952D01*
X48928023Y-21236333D01*
X48832785Y-21188714D01*
X48642309Y-21188714D01*
X48547071Y-21236333D01*
X48118500Y-21855380D02*
X48118500Y-20855380D01*
X47689928Y-21855380D02*
X47689928Y-21331571D01*
X47737547Y-21236333D01*
X47832785Y-21188714D01*
X47975642Y-21188714D01*
X48070880Y-21236333D01*
X48118500Y-21283952D01*
X47070880Y-21855380D02*
X47166119Y-21807761D01*
X47213738Y-21760142D01*
X47261357Y-21664904D01*
X47261357Y-21379190D01*
X47213738Y-21283952D01*
X47166119Y-21236333D01*
X47070880Y-21188714D01*
X46928023Y-21188714D01*
X46832785Y-21236333D01*
X46785166Y-21283952D01*
X46737547Y-21379190D01*
X46737547Y-21664904D01*
X46785166Y-21760142D01*
X46832785Y-21807761D01*
X46928023Y-21855380D01*
X47070880Y-21855380D01*
X46356595Y-21807761D02*
X46261357Y-21855380D01*
X46070880Y-21855380D01*
X45975642Y-21807761D01*
X45928023Y-21712523D01*
X45928023Y-21664904D01*
X45975642Y-21569666D01*
X46070880Y-21522047D01*
X46213738Y-21522047D01*
X46308976Y-21474428D01*
X46356595Y-21379190D01*
X46356595Y-21331571D01*
X46308976Y-21236333D01*
X46213738Y-21188714D01*
X46070880Y-21188714D01*
X45975642Y-21236333D01*
X76547071Y-24631571D02*
X76880404Y-24631571D01*
X76880404Y-25155380D02*
X76880404Y-24155380D01*
X76404214Y-24155380D01*
X76023261Y-25155380D02*
X76023261Y-24488714D01*
X76023261Y-24679190D02*
X75975642Y-24583952D01*
X75928023Y-24536333D01*
X75832785Y-24488714D01*
X75737547Y-24488714D01*
X75261357Y-25155380D02*
X75356595Y-25107761D01*
X75404214Y-25060142D01*
X75451833Y-24964904D01*
X75451833Y-24679190D01*
X75404214Y-24583952D01*
X75356595Y-24536333D01*
X75261357Y-24488714D01*
X75118500Y-24488714D01*
X75023261Y-24536333D01*
X74975642Y-24583952D01*
X74928023Y-24679190D01*
X74928023Y-24964904D01*
X74975642Y-25060142D01*
X75023261Y-25107761D01*
X75118500Y-25155380D01*
X75261357Y-25155380D01*
X74499452Y-25155380D02*
X74499452Y-24488714D01*
X74499452Y-24583952D02*
X74451833Y-24536333D01*
X74356595Y-24488714D01*
X74213738Y-24488714D01*
X74118500Y-24536333D01*
X74070880Y-24631571D01*
X74070880Y-25155380D01*
X74070880Y-24631571D02*
X74023261Y-24536333D01*
X73928023Y-24488714D01*
X73785166Y-24488714D01*
X73689928Y-24536333D01*
X73642309Y-24631571D01*
X73642309Y-25155380D01*
X72404214Y-25155380D02*
X72404214Y-24155380D01*
X72404214Y-24536333D02*
X72308976Y-24488714D01*
X72118500Y-24488714D01*
X72023261Y-24536333D01*
X71975642Y-24583952D01*
X71928023Y-24679190D01*
X71928023Y-24964904D01*
X71975642Y-25060142D01*
X72023261Y-25107761D01*
X72118500Y-25155380D01*
X72308976Y-25155380D01*
X72404214Y-25107761D01*
X71118500Y-25107761D02*
X71213738Y-25155380D01*
X71404214Y-25155380D01*
X71499452Y-25107761D01*
X71547071Y-25012523D01*
X71547071Y-24631571D01*
X71499452Y-24536333D01*
X71404214Y-24488714D01*
X71213738Y-24488714D01*
X71118500Y-24536333D01*
X71070880Y-24631571D01*
X71070880Y-24726809D01*
X71547071Y-24822047D01*
X70213738Y-25155380D02*
X70213738Y-24631571D01*
X70261357Y-24536333D01*
X70356595Y-24488714D01*
X70547071Y-24488714D01*
X70642309Y-24536333D01*
X70213738Y-25107761D02*
X70308976Y-25155380D01*
X70547071Y-25155380D01*
X70642309Y-25107761D01*
X70689928Y-25012523D01*
X70689928Y-24917285D01*
X70642309Y-24822047D01*
X70547071Y-24774428D01*
X70308976Y-24774428D01*
X70213738Y-24726809D01*
X69737547Y-25155380D02*
X69737547Y-24155380D01*
X69642309Y-24774428D02*
X69356595Y-25155380D01*
X69356595Y-24488714D02*
X69737547Y-24869666D01*
X68308976Y-24488714D02*
X67928023Y-24488714D01*
X68166119Y-24155380D02*
X68166119Y-25012523D01*
X68118500Y-25107761D01*
X68023261Y-25155380D01*
X67928023Y-25155380D01*
X67451833Y-25155380D02*
X67547071Y-25107761D01*
X67594690Y-25060142D01*
X67642309Y-24964904D01*
X67642309Y-24679190D01*
X67594690Y-24583952D01*
X67547071Y-24536333D01*
X67451833Y-24488714D01*
X67308976Y-24488714D01*
X67213738Y-24536333D01*
X67166119Y-24583952D01*
X67118500Y-24679190D01*
X67118500Y-24964904D01*
X67166119Y-25060142D01*
X67213738Y-25107761D01*
X67308976Y-25155380D01*
X67451833Y-25155380D01*
X66070880Y-24488714D02*
X65689928Y-24488714D01*
X65928023Y-24155380D02*
X65928023Y-25012523D01*
X65880404Y-25107761D01*
X65785166Y-25155380D01*
X65689928Y-25155380D01*
X64928023Y-25155380D02*
X64928023Y-24631571D01*
X64975642Y-24536333D01*
X65070880Y-24488714D01*
X65261357Y-24488714D01*
X65356595Y-24536333D01*
X64928023Y-25107761D02*
X65023261Y-25155380D01*
X65261357Y-25155380D01*
X65356595Y-25107761D01*
X65404214Y-25012523D01*
X65404214Y-24917285D01*
X65356595Y-24822047D01*
X65261357Y-24774428D01*
X65023261Y-24774428D01*
X64928023Y-24726809D01*
X64451833Y-25155380D02*
X64451833Y-24488714D01*
X64451833Y-24155380D02*
X64499452Y-24203000D01*
X64451833Y-24250619D01*
X64404214Y-24203000D01*
X64451833Y-24155380D01*
X64451833Y-24250619D01*
X63832785Y-25155380D02*
X63928023Y-25107761D01*
X63975642Y-25012523D01*
X63975642Y-24155380D01*
X63404214Y-25107761D02*
X63404214Y-25155380D01*
X63451833Y-25250619D01*
X63499452Y-25298238D01*
X61785166Y-25155380D02*
X61785166Y-24631571D01*
X61832785Y-24536333D01*
X61928023Y-24488714D01*
X62118500Y-24488714D01*
X62213738Y-24536333D01*
X61785166Y-25107761D02*
X61880404Y-25155380D01*
X62118500Y-25155380D01*
X62213738Y-25107761D01*
X62261357Y-25012523D01*
X62261357Y-24917285D01*
X62213738Y-24822047D01*
X62118500Y-24774428D01*
X61880404Y-24774428D01*
X61785166Y-24726809D01*
X61308976Y-24488714D02*
X61308976Y-25155380D01*
X61308976Y-24583952D02*
X61261357Y-24536333D01*
X61166119Y-24488714D01*
X61023261Y-24488714D01*
X60928023Y-24536333D01*
X60880404Y-24631571D01*
X60880404Y-25155380D01*
X59689928Y-24869666D02*
X59213738Y-24869666D01*
X59785166Y-25155380D02*
X59451833Y-24155380D01*
X59118500Y-25155380D01*
X58785166Y-25155380D02*
X58785166Y-24488714D01*
X58785166Y-24583952D02*
X58737547Y-24536333D01*
X58642309Y-24488714D01*
X58499452Y-24488714D01*
X58404214Y-24536333D01*
X58356595Y-24631571D01*
X58356595Y-25155380D01*
X58356595Y-24631571D02*
X58308976Y-24536333D01*
X58213738Y-24488714D01*
X58070880Y-24488714D01*
X57975642Y-24536333D01*
X57928023Y-24631571D01*
X57928023Y-25155380D01*
X57070880Y-25107761D02*
X57166119Y-25155380D01*
X57356595Y-25155380D01*
X57451833Y-25107761D01*
X57499452Y-25012523D01*
X57499452Y-24631571D01*
X57451833Y-24536333D01*
X57356595Y-24488714D01*
X57166119Y-24488714D01*
X57070880Y-24536333D01*
X57023261Y-24631571D01*
X57023261Y-24726809D01*
X57499452Y-24822047D01*
X56594690Y-25155380D02*
X56594690Y-24488714D01*
X56594690Y-24679190D02*
X56547071Y-24583952D01*
X56499452Y-24536333D01*
X56404214Y-24488714D01*
X56308976Y-24488714D01*
X55975642Y-25155380D02*
X55975642Y-24488714D01*
X55975642Y-24155380D02*
X56023261Y-24203000D01*
X55975642Y-24250619D01*
X55928023Y-24203000D01*
X55975642Y-24155380D01*
X55975642Y-24250619D01*
X55070880Y-25107761D02*
X55166119Y-25155380D01*
X55356595Y-25155380D01*
X55451833Y-25107761D01*
X55499452Y-25060142D01*
X55547071Y-24964904D01*
X55547071Y-24679190D01*
X55499452Y-24583952D01*
X55451833Y-24536333D01*
X55356595Y-24488714D01*
X55166119Y-24488714D01*
X55070880Y-24536333D01*
X54213738Y-25155380D02*
X54213738Y-24631571D01*
X54261357Y-24536333D01*
X54356595Y-24488714D01*
X54547071Y-24488714D01*
X54642309Y-24536333D01*
X54213738Y-25107761D02*
X54308976Y-25155380D01*
X54547071Y-25155380D01*
X54642309Y-25107761D01*
X54689928Y-25012523D01*
X54689928Y-24917285D01*
X54642309Y-24822047D01*
X54547071Y-24774428D01*
X54308976Y-24774428D01*
X54213738Y-24726809D01*
X53737547Y-24488714D02*
X53737547Y-25155380D01*
X53737547Y-24583952D02*
X53689928Y-24536333D01*
X53594690Y-24488714D01*
X53451833Y-24488714D01*
X53356595Y-24536333D01*
X53308976Y-24631571D01*
X53308976Y-25155380D01*
X51642309Y-25107761D02*
X51737547Y-25155380D01*
X51928023Y-25155380D01*
X52023261Y-25107761D01*
X52070880Y-25060142D01*
X52118500Y-24964904D01*
X52118500Y-24679190D01*
X52070880Y-24583952D01*
X52023261Y-24536333D01*
X51928023Y-24488714D01*
X51737547Y-24488714D01*
X51642309Y-24536333D01*
X51213738Y-25155380D02*
X51213738Y-24488714D01*
X51213738Y-24679190D02*
X51166119Y-24583952D01*
X51118500Y-24536333D01*
X51023261Y-24488714D01*
X50928023Y-24488714D01*
X50451833Y-25155380D02*
X50547071Y-25107761D01*
X50594690Y-25060142D01*
X50642309Y-24964904D01*
X50642309Y-24679190D01*
X50594690Y-24583952D01*
X50547071Y-24536333D01*
X50451833Y-24488714D01*
X50308976Y-24488714D01*
X50213738Y-24536333D01*
X50166119Y-24583952D01*
X50118500Y-24679190D01*
X50118500Y-24964904D01*
X50166119Y-25060142D01*
X50213738Y-25107761D01*
X50308976Y-25155380D01*
X50451833Y-25155380D01*
X49785166Y-24488714D02*
X49594690Y-25155380D01*
X49404214Y-24679190D01*
X49213738Y-25155380D01*
X49023261Y-24488714D01*
X47880404Y-25155380D02*
X47880404Y-24488714D01*
X47880404Y-24583952D02*
X47832785Y-24536333D01*
X47737547Y-24488714D01*
X47594690Y-24488714D01*
X47499452Y-24536333D01*
X47451833Y-24631571D01*
X47451833Y-25155380D01*
X47451833Y-24631571D02*
X47404214Y-24536333D01*
X47308976Y-24488714D01*
X47166119Y-24488714D01*
X47070880Y-24536333D01*
X47023261Y-24631571D01*
X47023261Y-25155380D01*
X46166119Y-25107761D02*
X46261357Y-25155380D01*
X46451833Y-25155380D01*
X46547071Y-25107761D01*
X46594690Y-25012523D01*
X46594690Y-24631571D01*
X46547071Y-24536333D01*
X46451833Y-24488714D01*
X46261357Y-24488714D01*
X46166119Y-24536333D01*
X46118500Y-24631571D01*
X46118500Y-24726809D01*
X46594690Y-24822047D01*
X45261357Y-25155380D02*
X45261357Y-24631571D01*
X45308976Y-24536333D01*
X45404214Y-24488714D01*
X45594690Y-24488714D01*
X45689928Y-24536333D01*
X45261357Y-25107761D02*
X45356595Y-25155380D01*
X45594690Y-25155380D01*
X45689928Y-25107761D01*
X45737547Y-25012523D01*
X45737547Y-24917285D01*
X45689928Y-24822047D01*
X45594690Y-24774428D01*
X45356595Y-24774428D01*
X45261357Y-24726809D01*
X44832785Y-25107761D02*
X44737547Y-25155380D01*
X44547071Y-25155380D01*
X44451833Y-25107761D01*
X44404214Y-25012523D01*
X44404214Y-24964904D01*
X44451833Y-24869666D01*
X44547071Y-24822047D01*
X44689928Y-24822047D01*
X44785166Y-24774428D01*
X44832785Y-24679190D01*
X44832785Y-24631571D01*
X44785166Y-24536333D01*
X44689928Y-24488714D01*
X44547071Y-24488714D01*
X44451833Y-24536333D01*
X43547071Y-24488714D02*
X43547071Y-25155380D01*
X43975642Y-24488714D02*
X43975642Y-25012523D01*
X43928023Y-25107761D01*
X43832785Y-25155380D01*
X43689928Y-25155380D01*
X43594690Y-25107761D01*
X43547071Y-25060142D01*
X43070880Y-25155380D02*
X43070880Y-24488714D01*
X43070880Y-24679190D02*
X43023261Y-24583952D01*
X42975642Y-24536333D01*
X42880404Y-24488714D01*
X42785166Y-24488714D01*
X42070880Y-25107761D02*
X42166119Y-25155380D01*
X42356595Y-25155380D01*
X42451833Y-25107761D01*
X42499452Y-25012523D01*
X42499452Y-24631571D01*
X42451833Y-24536333D01*
X42356595Y-24488714D01*
X42166119Y-24488714D01*
X42070880Y-24536333D01*
X42023261Y-24631571D01*
X42023261Y-24726809D01*
X42499452Y-24822047D01*
X41642309Y-25107761D02*
X41547071Y-25155380D01*
X41356595Y-25155380D01*
X41261357Y-25107761D01*
X41213738Y-25012523D01*
X41213738Y-24964904D01*
X41261357Y-24869666D01*
X41356595Y-24822047D01*
X41499452Y-24822047D01*
X41594690Y-24774428D01*
X41642309Y-24679190D01*
X41642309Y-24631571D01*
X41594690Y-24536333D01*
X41499452Y-24488714D01*
X41356595Y-24488714D01*
X41261357Y-24536333D01*
X39594690Y-24488714D02*
X39594690Y-25155380D01*
X39832785Y-24107761D02*
X40070880Y-24822047D01*
X39451833Y-24822047D01*
X38880404Y-24155380D02*
X38785166Y-24155380D01*
X38689928Y-24203000D01*
X38642309Y-24250619D01*
X38594690Y-24345857D01*
X38547071Y-24536333D01*
X38547071Y-24774428D01*
X38594690Y-24964904D01*
X38642309Y-25060142D01*
X38689928Y-25107761D01*
X38785166Y-25155380D01*
X38880404Y-25155380D01*
X38975642Y-25107761D01*
X39023261Y-25060142D01*
X39070880Y-24964904D01*
X39118500Y-24774428D01*
X39118500Y-24536333D01*
X39070880Y-24345857D01*
X39023261Y-24250619D01*
X38975642Y-24203000D01*
X38880404Y-24155380D01*
X37880404Y-24822047D02*
X38261357Y-24822047D01*
X37070880Y-24155380D02*
X37547071Y-24155380D01*
X37594690Y-24631571D01*
X37547071Y-24583952D01*
X37451833Y-24536333D01*
X37213738Y-24536333D01*
X37118500Y-24583952D01*
X37070880Y-24631571D01*
X37023261Y-24726809D01*
X37023261Y-24964904D01*
X37070880Y-25060142D01*
X37118500Y-25107761D01*
X37213738Y-25155380D01*
X37451833Y-25155380D01*
X37547071Y-25107761D01*
X37594690Y-25060142D01*
X36404214Y-24155380D02*
X36308976Y-24155380D01*
X36213738Y-24203000D01*
X36166119Y-24250619D01*
X36118500Y-24345857D01*
X36070880Y-24536333D01*
X36070880Y-24774428D01*
X36118500Y-24964904D01*
X36166119Y-25060142D01*
X36213738Y-25107761D01*
X36308976Y-25155380D01*
X36404214Y-25155380D01*
X36499452Y-25107761D01*
X36547071Y-25060142D01*
X36594690Y-24964904D01*
X36642309Y-24774428D01*
X36642309Y-24536333D01*
X36594690Y-24345857D01*
X36547071Y-24250619D01*
X36499452Y-24203000D01*
X36404214Y-24155380D01*
X34451833Y-25107761D02*
X34547071Y-25155380D01*
X34737547Y-25155380D01*
X34832785Y-25107761D01*
X34880404Y-25060142D01*
X34928023Y-24964904D01*
X34928023Y-24679190D01*
X34880404Y-24583952D01*
X34832785Y-24536333D01*
X34737547Y-24488714D01*
X34547071Y-24488714D01*
X34451833Y-24536333D01*
X34023261Y-25155380D02*
X34023261Y-24488714D01*
X34023261Y-24583952D02*
X33975642Y-24536333D01*
X33880404Y-24488714D01*
X33737547Y-24488714D01*
X33642309Y-24536333D01*
X33594690Y-24631571D01*
X33594690Y-25155380D01*
X33594690Y-24631571D02*
X33547071Y-24536333D01*
X33451833Y-24488714D01*
X33308976Y-24488714D01*
X33213738Y-24536333D01*
X33166119Y-24631571D01*
X33166119Y-25155380D01*
X31642309Y-25536333D02*
X31689928Y-25488714D01*
X31785166Y-25345857D01*
X31832785Y-25250619D01*
X31880404Y-25107761D01*
X31928023Y-24869666D01*
X31928023Y-24679190D01*
X31880404Y-24441095D01*
X31832785Y-24298238D01*
X31785166Y-24203000D01*
X31689928Y-24060142D01*
X31642309Y-24012523D01*
X30737547Y-25155380D02*
X31308976Y-25155380D01*
X31023261Y-25155380D02*
X31023261Y-24155380D01*
X31118500Y-24298238D01*
X31213738Y-24393476D01*
X31308976Y-24441095D01*
X29880404Y-24155380D02*
X30070880Y-24155380D01*
X30166119Y-24203000D01*
X30213738Y-24250619D01*
X30308976Y-24393476D01*
X30356595Y-24583952D01*
X30356595Y-24964904D01*
X30308976Y-25060142D01*
X30261357Y-25107761D01*
X30166119Y-25155380D01*
X29975642Y-25155380D01*
X29880404Y-25107761D01*
X29832785Y-25060142D01*
X29785166Y-24964904D01*
X29785166Y-24726809D01*
X29832785Y-24631571D01*
X29880404Y-24583952D01*
X29975642Y-24536333D01*
X30166119Y-24536333D01*
X30261357Y-24583952D01*
X30308976Y-24631571D01*
X30356595Y-24726809D01*
X29118500Y-24822047D02*
X29499452Y-24822047D01*
X28832785Y-24250619D02*
X28785166Y-24203000D01*
X28689928Y-24155380D01*
X28451833Y-24155380D01*
X28356595Y-24203000D01*
X28308976Y-24250619D01*
X28261357Y-24345857D01*
X28261357Y-24441095D01*
X28308976Y-24583952D01*
X28880404Y-25155380D01*
X28261357Y-25155380D01*
X27642309Y-24155380D02*
X27547071Y-24155380D01*
X27451833Y-24203000D01*
X27404214Y-24250619D01*
X27356595Y-24345857D01*
X27308976Y-24536333D01*
X27308976Y-24774428D01*
X27356595Y-24964904D01*
X27404214Y-25060142D01*
X27451833Y-25107761D01*
X27547071Y-25155380D01*
X27642309Y-25155380D01*
X27737547Y-25107761D01*
X27785166Y-25060142D01*
X27832785Y-24964904D01*
X27880404Y-24774428D01*
X27880404Y-24536333D01*
X27832785Y-24345857D01*
X27785166Y-24250619D01*
X27737547Y-24203000D01*
X27642309Y-24155380D01*
X26118500Y-25155380D02*
X26118500Y-24488714D01*
X26118500Y-24155380D02*
X26166119Y-24203000D01*
X26118500Y-24250619D01*
X26070880Y-24203000D01*
X26118500Y-24155380D01*
X26118500Y-24250619D01*
X25642309Y-24488714D02*
X25642309Y-25155380D01*
X25642309Y-24583952D02*
X25594690Y-24536333D01*
X25499452Y-24488714D01*
X25356595Y-24488714D01*
X25261357Y-24536333D01*
X25213738Y-24631571D01*
X25213738Y-25155380D01*
X24832785Y-25536333D02*
X24785166Y-25488714D01*
X24689928Y-25345857D01*
X24642309Y-25250619D01*
X24594690Y-25107761D01*
X24547071Y-24869666D01*
X24547071Y-24679190D01*
X24594690Y-24441095D01*
X24642309Y-24298238D01*
X24689928Y-24203000D01*
X24785166Y-24060142D01*
X24832785Y-24012523D01*
X24023261Y-25107761D02*
X24023261Y-25155380D01*
X24070880Y-25250619D01*
X24118500Y-25298238D01*
X76451833Y-26805380D02*
X76451833Y-26281571D01*
X76499452Y-26186333D01*
X76594690Y-26138714D01*
X76785166Y-26138714D01*
X76880404Y-26186333D01*
X76451833Y-26757761D02*
X76547071Y-26805380D01*
X76785166Y-26805380D01*
X76880404Y-26757761D01*
X76928023Y-26662523D01*
X76928023Y-26567285D01*
X76880404Y-26472047D01*
X76785166Y-26424428D01*
X76547071Y-26424428D01*
X76451833Y-26376809D01*
X75832785Y-26805380D02*
X75928023Y-26757761D01*
X75975642Y-26662523D01*
X75975642Y-25805380D01*
X75451833Y-26805380D02*
X75451833Y-26138714D01*
X75451833Y-26233952D02*
X75404214Y-26186333D01*
X75308976Y-26138714D01*
X75166119Y-26138714D01*
X75070880Y-26186333D01*
X75023261Y-26281571D01*
X75023261Y-26805380D01*
X75023261Y-26281571D02*
X74975642Y-26186333D01*
X74880404Y-26138714D01*
X74737547Y-26138714D01*
X74642309Y-26186333D01*
X74594690Y-26281571D01*
X74594690Y-26805380D01*
X73975642Y-26805380D02*
X74070880Y-26757761D01*
X74118500Y-26710142D01*
X74166119Y-26614904D01*
X74166119Y-26329190D01*
X74118500Y-26233952D01*
X74070880Y-26186333D01*
X73975642Y-26138714D01*
X73832785Y-26138714D01*
X73737547Y-26186333D01*
X73689928Y-26233952D01*
X73642309Y-26329190D01*
X73642309Y-26614904D01*
X73689928Y-26710142D01*
X73737547Y-26757761D01*
X73832785Y-26805380D01*
X73975642Y-26805380D01*
X73261357Y-26757761D02*
X73166119Y-26805380D01*
X72975642Y-26805380D01*
X72880404Y-26757761D01*
X72832785Y-26662523D01*
X72832785Y-26614904D01*
X72880404Y-26519666D01*
X72975642Y-26472047D01*
X73118500Y-26472047D01*
X73213738Y-26424428D01*
X73261357Y-26329190D01*
X73261357Y-26281571D01*
X73213738Y-26186333D01*
X73118500Y-26138714D01*
X72975642Y-26138714D01*
X72880404Y-26186333D01*
X72547071Y-26138714D02*
X72166119Y-26138714D01*
X72404214Y-25805380D02*
X72404214Y-26662523D01*
X72356595Y-26757761D01*
X72261357Y-26805380D01*
X72166119Y-26805380D01*
X71070880Y-26805380D02*
X71070880Y-25805380D01*
X70642309Y-26805380D02*
X70642309Y-26281571D01*
X70689928Y-26186333D01*
X70785166Y-26138714D01*
X70928023Y-26138714D01*
X71023261Y-26186333D01*
X71070880Y-26233952D01*
X69737547Y-26805380D02*
X69737547Y-26281571D01*
X69785166Y-26186333D01*
X69880404Y-26138714D01*
X70070880Y-26138714D01*
X70166119Y-26186333D01*
X69737547Y-26757761D02*
X69832785Y-26805380D01*
X70070880Y-26805380D01*
X70166119Y-26757761D01*
X70213738Y-26662523D01*
X70213738Y-26567285D01*
X70166119Y-26472047D01*
X70070880Y-26424428D01*
X69832785Y-26424428D01*
X69737547Y-26376809D01*
X69118500Y-26805380D02*
X69213738Y-26757761D01*
X69261357Y-26662523D01*
X69261357Y-25805380D01*
X68880404Y-26138714D02*
X68499452Y-26138714D01*
X68737547Y-26805380D02*
X68737547Y-25948238D01*
X68689928Y-25853000D01*
X68594690Y-25805380D01*
X68499452Y-25805380D01*
X67261357Y-26805380D02*
X67356595Y-26757761D01*
X67404214Y-26710142D01*
X67451833Y-26614904D01*
X67451833Y-26329190D01*
X67404214Y-26233952D01*
X67356595Y-26186333D01*
X67261357Y-26138714D01*
X67118500Y-26138714D01*
X67023261Y-26186333D01*
X66975642Y-26233952D01*
X66928023Y-26329190D01*
X66928023Y-26614904D01*
X66975642Y-26710142D01*
X67023261Y-26757761D01*
X67118500Y-26805380D01*
X67261357Y-26805380D01*
X66642309Y-26138714D02*
X66261357Y-26138714D01*
X66499452Y-26805380D02*
X66499452Y-25948238D01*
X66451833Y-25853000D01*
X66356595Y-25805380D01*
X66261357Y-25805380D01*
X65261357Y-26138714D02*
X65070880Y-26805380D01*
X64880404Y-26329190D01*
X64689928Y-26805380D01*
X64499452Y-26138714D01*
X64118500Y-26805380D02*
X64118500Y-25805380D01*
X63689928Y-26805380D02*
X63689928Y-26281571D01*
X63737547Y-26186333D01*
X63832785Y-26138714D01*
X63975642Y-26138714D01*
X64070880Y-26186333D01*
X64118500Y-26233952D01*
X63213738Y-26805380D02*
X63213738Y-26138714D01*
X63213738Y-25805380D02*
X63261357Y-25853000D01*
X63213738Y-25900619D01*
X63166119Y-25853000D01*
X63213738Y-25805380D01*
X63213738Y-25900619D01*
X62308976Y-26757761D02*
X62404214Y-26805380D01*
X62594690Y-26805380D01*
X62689928Y-26757761D01*
X62737547Y-26710142D01*
X62785166Y-26614904D01*
X62785166Y-26329190D01*
X62737547Y-26233952D01*
X62689928Y-26186333D01*
X62594690Y-26138714D01*
X62404214Y-26138714D01*
X62308976Y-26186333D01*
X61880404Y-26805380D02*
X61880404Y-25805380D01*
X61451833Y-26805380D02*
X61451833Y-26281571D01*
X61499452Y-26186333D01*
X61594690Y-26138714D01*
X61737547Y-26138714D01*
X61832785Y-26186333D01*
X61880404Y-26233952D01*
X60213738Y-26805380D02*
X60213738Y-26138714D01*
X60213738Y-25805380D02*
X60261357Y-25853000D01*
X60213738Y-25900619D01*
X60166119Y-25853000D01*
X60213738Y-25805380D01*
X60213738Y-25900619D01*
X59785166Y-26757761D02*
X59689928Y-26805380D01*
X59499452Y-26805380D01*
X59404214Y-26757761D01*
X59356595Y-26662523D01*
X59356595Y-26614904D01*
X59404214Y-26519666D01*
X59499452Y-26472047D01*
X59642309Y-26472047D01*
X59737547Y-26424428D01*
X59785166Y-26329190D01*
X59785166Y-26281571D01*
X59737547Y-26186333D01*
X59642309Y-26138714D01*
X59499452Y-26138714D01*
X59404214Y-26186333D01*
X58308976Y-26138714D02*
X57928023Y-26138714D01*
X58166119Y-25805380D02*
X58166119Y-26662523D01*
X58118500Y-26757761D01*
X58023261Y-26805380D01*
X57928023Y-26805380D01*
X57166119Y-26805380D02*
X57166119Y-26281571D01*
X57213738Y-26186333D01*
X57308976Y-26138714D01*
X57499452Y-26138714D01*
X57594690Y-26186333D01*
X57166119Y-26757761D02*
X57261357Y-26805380D01*
X57499452Y-26805380D01*
X57594690Y-26757761D01*
X57642309Y-26662523D01*
X57642309Y-26567285D01*
X57594690Y-26472047D01*
X57499452Y-26424428D01*
X57261357Y-26424428D01*
X57166119Y-26376809D01*
X56689928Y-26805380D02*
X56689928Y-26138714D01*
X56689928Y-25805380D02*
X56737547Y-25853000D01*
X56689928Y-25900619D01*
X56642309Y-25853000D01*
X56689928Y-25805380D01*
X56689928Y-25900619D01*
X56070880Y-26805380D02*
X56166119Y-26757761D01*
X56213738Y-26662523D01*
X56213738Y-25805380D01*
X55689928Y-26710142D02*
X55642309Y-26757761D01*
X55689928Y-26805380D01*
X55737547Y-26757761D01*
X55689928Y-26710142D01*
X55689928Y-26805380D01*
X54451833Y-26805380D02*
X54451833Y-25805380D01*
X54118500Y-26519666D01*
X53785166Y-25805380D01*
X53785166Y-26805380D01*
X52880404Y-26805380D02*
X52880404Y-26281571D01*
X52928023Y-26186333D01*
X53023261Y-26138714D01*
X53213738Y-26138714D01*
X53308976Y-26186333D01*
X52880404Y-26757761D02*
X52975642Y-26805380D01*
X53213738Y-26805380D01*
X53308976Y-26757761D01*
X53356595Y-26662523D01*
X53356595Y-26567285D01*
X53308976Y-26472047D01*
X53213738Y-26424428D01*
X52975642Y-26424428D01*
X52880404Y-26376809D01*
X52451833Y-26757761D02*
X52356595Y-26805380D01*
X52166119Y-26805380D01*
X52070880Y-26757761D01*
X52023261Y-26662523D01*
X52023261Y-26614904D01*
X52070880Y-26519666D01*
X52166119Y-26472047D01*
X52308976Y-26472047D01*
X52404214Y-26424428D01*
X52451833Y-26329190D01*
X52451833Y-26281571D01*
X52404214Y-26186333D01*
X52308976Y-26138714D01*
X52166119Y-26138714D01*
X52070880Y-26186333D01*
X51642309Y-26757761D02*
X51547071Y-26805380D01*
X51356595Y-26805380D01*
X51261357Y-26757761D01*
X51213738Y-26662523D01*
X51213738Y-26614904D01*
X51261357Y-26519666D01*
X51356595Y-26472047D01*
X51499452Y-26472047D01*
X51594690Y-26424428D01*
X51642309Y-26329190D01*
X51642309Y-26281571D01*
X51594690Y-26186333D01*
X51499452Y-26138714D01*
X51356595Y-26138714D01*
X51261357Y-26186333D01*
X50118500Y-26138714D02*
X49880404Y-26805380D01*
X49642309Y-26138714D01*
X48832785Y-26805380D02*
X48832785Y-26281571D01*
X48880404Y-26186333D01*
X48975642Y-26138714D01*
X49166119Y-26138714D01*
X49261357Y-26186333D01*
X48832785Y-26757761D02*
X48928023Y-26805380D01*
X49166119Y-26805380D01*
X49261357Y-26757761D01*
X49308976Y-26662523D01*
X49308976Y-26567285D01*
X49261357Y-26472047D01*
X49166119Y-26424428D01*
X48928023Y-26424428D01*
X48832785Y-26376809D01*
X48356595Y-26805380D02*
X48356595Y-26138714D01*
X48356595Y-26329190D02*
X48308976Y-26233952D01*
X48261357Y-26186333D01*
X48166119Y-26138714D01*
X48070880Y-26138714D01*
X47737547Y-26805380D02*
X47737547Y-26138714D01*
X47737547Y-25805380D02*
X47785166Y-25853000D01*
X47737547Y-25900619D01*
X47689928Y-25853000D01*
X47737547Y-25805380D01*
X47737547Y-25900619D01*
X46880404Y-26757761D02*
X46975642Y-26805380D01*
X47166119Y-26805380D01*
X47261357Y-26757761D01*
X47308976Y-26662523D01*
X47308976Y-26281571D01*
X47261357Y-26186333D01*
X47166119Y-26138714D01*
X46975642Y-26138714D01*
X46880404Y-26186333D01*
X46832785Y-26281571D01*
X46832785Y-26376809D01*
X47308976Y-26472047D01*
X46451833Y-26757761D02*
X46356595Y-26805380D01*
X46166119Y-26805380D01*
X46070880Y-26757761D01*
X46023261Y-26662523D01*
X46023261Y-26614904D01*
X46070880Y-26519666D01*
X46166119Y-26472047D01*
X46308976Y-26472047D01*
X46404214Y-26424428D01*
X46451833Y-26329190D01*
X46451833Y-26281571D01*
X46404214Y-26186333D01*
X46308976Y-26138714D01*
X46166119Y-26138714D01*
X46070880Y-26186333D01*
X44975642Y-26138714D02*
X44594690Y-26138714D01*
X44832785Y-26805380D02*
X44832785Y-25948238D01*
X44785166Y-25853000D01*
X44689928Y-25805380D01*
X44594690Y-25805380D01*
X44261357Y-26805380D02*
X44261357Y-26138714D01*
X44261357Y-26329190D02*
X44213738Y-26233952D01*
X44166119Y-26186333D01*
X44070880Y-26138714D01*
X43975642Y-26138714D01*
X43499452Y-26805380D02*
X43594690Y-26757761D01*
X43642309Y-26710142D01*
X43689928Y-26614904D01*
X43689928Y-26329190D01*
X43642309Y-26233952D01*
X43594690Y-26186333D01*
X43499452Y-26138714D01*
X43356595Y-26138714D01*
X43261357Y-26186333D01*
X43213738Y-26233952D01*
X43166119Y-26329190D01*
X43166119Y-26614904D01*
X43213738Y-26710142D01*
X43261357Y-26757761D01*
X43356595Y-26805380D01*
X43499452Y-26805380D01*
X42737547Y-26805380D02*
X42737547Y-26138714D01*
X42737547Y-26233952D02*
X42689928Y-26186333D01*
X42594690Y-26138714D01*
X42451833Y-26138714D01*
X42356595Y-26186333D01*
X42308976Y-26281571D01*
X42308976Y-26805380D01*
X42308976Y-26281571D02*
X42261357Y-26186333D01*
X42166119Y-26138714D01*
X42023261Y-26138714D01*
X41928023Y-26186333D01*
X41880404Y-26281571D01*
X41880404Y-26805380D01*
X40213738Y-26805380D02*
X40213738Y-26281571D01*
X40261357Y-26186333D01*
X40356595Y-26138714D01*
X40547071Y-26138714D01*
X40642309Y-26186333D01*
X40213738Y-26757761D02*
X40308976Y-26805380D01*
X40547071Y-26805380D01*
X40642309Y-26757761D01*
X40689928Y-26662523D01*
X40689928Y-26567285D01*
X40642309Y-26472047D01*
X40547071Y-26424428D01*
X40308976Y-26424428D01*
X40213738Y-26376809D01*
X39737547Y-26805380D02*
X39737547Y-25805380D01*
X39737547Y-26186333D02*
X39642309Y-26138714D01*
X39451833Y-26138714D01*
X39356595Y-26186333D01*
X39308976Y-26233952D01*
X39261357Y-26329190D01*
X39261357Y-26614904D01*
X39308976Y-26710142D01*
X39356595Y-26757761D01*
X39451833Y-26805380D01*
X39642309Y-26805380D01*
X39737547Y-26757761D01*
X38689928Y-26805380D02*
X38785166Y-26757761D01*
X38832785Y-26710142D01*
X38880404Y-26614904D01*
X38880404Y-26329190D01*
X38832785Y-26233952D01*
X38785166Y-26186333D01*
X38689928Y-26138714D01*
X38547071Y-26138714D01*
X38451833Y-26186333D01*
X38404214Y-26233952D01*
X38356595Y-26329190D01*
X38356595Y-26614904D01*
X38404214Y-26710142D01*
X38451833Y-26757761D01*
X38547071Y-26805380D01*
X38689928Y-26805380D01*
X37499452Y-26138714D02*
X37499452Y-26805380D01*
X37928023Y-26138714D02*
X37928023Y-26662523D01*
X37880404Y-26757761D01*
X37785166Y-26805380D01*
X37642309Y-26805380D01*
X37547071Y-26757761D01*
X37499452Y-26710142D01*
X37166119Y-26138714D02*
X36785166Y-26138714D01*
X37023261Y-25805380D02*
X37023261Y-26662523D01*
X36975642Y-26757761D01*
X36880404Y-26805380D01*
X36785166Y-26805380D01*
X76975642Y-27455380D02*
X76356595Y-27455380D01*
X76689928Y-27836333D01*
X76547071Y-27836333D01*
X76451833Y-27883952D01*
X76404214Y-27931571D01*
X76356595Y-28026809D01*
X76356595Y-28264904D01*
X76404214Y-28360142D01*
X76451833Y-28407761D01*
X76547071Y-28455380D01*
X76832785Y-28455380D01*
X76928023Y-28407761D01*
X76975642Y-28360142D01*
X75737547Y-27455380D02*
X75642309Y-27455380D01*
X75547071Y-27503000D01*
X75499452Y-27550619D01*
X75451833Y-27645857D01*
X75404214Y-27836333D01*
X75404214Y-28074428D01*
X75451833Y-28264904D01*
X75499452Y-28360142D01*
X75547071Y-28407761D01*
X75642309Y-28455380D01*
X75737547Y-28455380D01*
X75832785Y-28407761D01*
X75880404Y-28360142D01*
X75928023Y-28264904D01*
X75975642Y-28074428D01*
X75975642Y-27836333D01*
X75928023Y-27645857D01*
X75880404Y-27550619D01*
X75832785Y-27503000D01*
X75737547Y-27455380D01*
X74785166Y-27455380D02*
X74689928Y-27455380D01*
X74594690Y-27503000D01*
X74547071Y-27550619D01*
X74499452Y-27645857D01*
X74451833Y-27836333D01*
X74451833Y-28074428D01*
X74499452Y-28264904D01*
X74547071Y-28360142D01*
X74594690Y-28407761D01*
X74689928Y-28455380D01*
X74785166Y-28455380D01*
X74880404Y-28407761D01*
X74928023Y-28360142D01*
X74975642Y-28264904D01*
X75023261Y-28074428D01*
X75023261Y-27836333D01*
X74975642Y-27645857D01*
X74928023Y-27550619D01*
X74880404Y-27503000D01*
X74785166Y-27455380D01*
X73404214Y-27788714D02*
X73023261Y-27788714D01*
X73261357Y-27455380D02*
X73261357Y-28312523D01*
X73213738Y-28407761D01*
X73118500Y-28455380D01*
X73023261Y-28455380D01*
X72547071Y-28455380D02*
X72642309Y-28407761D01*
X72689928Y-28360142D01*
X72737547Y-28264904D01*
X72737547Y-27979190D01*
X72689928Y-27883952D01*
X72642309Y-27836333D01*
X72547071Y-27788714D01*
X72404214Y-27788714D01*
X72308976Y-27836333D01*
X72261357Y-27883952D01*
X72213738Y-27979190D01*
X72213738Y-28264904D01*
X72261357Y-28360142D01*
X72308976Y-28407761D01*
X72404214Y-28455380D01*
X72547071Y-28455380D01*
X70594690Y-27455380D02*
X70785166Y-27455380D01*
X70880404Y-27503000D01*
X70928023Y-27550619D01*
X71023261Y-27693476D01*
X71070880Y-27883952D01*
X71070880Y-28264904D01*
X71023261Y-28360142D01*
X70975642Y-28407761D01*
X70880404Y-28455380D01*
X70689928Y-28455380D01*
X70594690Y-28407761D01*
X70547071Y-28360142D01*
X70499452Y-28264904D01*
X70499452Y-28026809D01*
X70547071Y-27931571D01*
X70594690Y-27883952D01*
X70689928Y-27836333D01*
X70880404Y-27836333D01*
X70975642Y-27883952D01*
X71023261Y-27931571D01*
X71070880Y-28026809D01*
X69880404Y-27455380D02*
X69785166Y-27455380D01*
X69689928Y-27503000D01*
X69642309Y-27550619D01*
X69594690Y-27645857D01*
X69547071Y-27836333D01*
X69547071Y-28074428D01*
X69594690Y-28264904D01*
X69642309Y-28360142D01*
X69689928Y-28407761D01*
X69785166Y-28455380D01*
X69880404Y-28455380D01*
X69975642Y-28407761D01*
X70023261Y-28360142D01*
X70070880Y-28264904D01*
X70118500Y-28074428D01*
X70118500Y-27836333D01*
X70070880Y-27645857D01*
X70023261Y-27550619D01*
X69975642Y-27503000D01*
X69880404Y-27455380D01*
X68928023Y-27455380D02*
X68832785Y-27455380D01*
X68737547Y-27503000D01*
X68689928Y-27550619D01*
X68642309Y-27645857D01*
X68594690Y-27836333D01*
X68594690Y-28074428D01*
X68642309Y-28264904D01*
X68689928Y-28360142D01*
X68737547Y-28407761D01*
X68832785Y-28455380D01*
X68928023Y-28455380D01*
X69023261Y-28407761D01*
X69070880Y-28360142D01*
X69118500Y-28264904D01*
X69166119Y-28074428D01*
X69166119Y-27836333D01*
X69118500Y-27645857D01*
X69070880Y-27550619D01*
X69023261Y-27503000D01*
X68928023Y-27455380D01*
X66975642Y-27788714D02*
X66975642Y-28598238D01*
X67023261Y-28693476D01*
X67070880Y-28741095D01*
X67166119Y-28788714D01*
X67308976Y-28788714D01*
X67404214Y-28741095D01*
X66975642Y-28407761D02*
X67070880Y-28455380D01*
X67261357Y-28455380D01*
X67356595Y-28407761D01*
X67404214Y-28360142D01*
X67451833Y-28264904D01*
X67451833Y-27979190D01*
X67404214Y-27883952D01*
X67356595Y-27836333D01*
X67261357Y-27788714D01*
X67070880Y-27788714D01*
X66975642Y-27836333D01*
X65451833Y-28836333D02*
X65499452Y-28788714D01*
X65594690Y-28645857D01*
X65642309Y-28550619D01*
X65689928Y-28407761D01*
X65737547Y-28169666D01*
X65737547Y-27979190D01*
X65689928Y-27741095D01*
X65642309Y-27598238D01*
X65594690Y-27503000D01*
X65499452Y-27360142D01*
X65451833Y-27312523D01*
X64547071Y-28455380D02*
X65118500Y-28455380D01*
X64832785Y-28455380D02*
X64832785Y-27455380D01*
X64928023Y-27598238D01*
X65023261Y-27693476D01*
X65118500Y-27741095D01*
X63594690Y-28455380D02*
X64166119Y-28455380D01*
X63880404Y-28455380D02*
X63880404Y-27455380D01*
X63975642Y-27598238D01*
X64070880Y-27693476D01*
X64166119Y-27741095D01*
X62547071Y-27788714D02*
X62166119Y-27788714D01*
X62404214Y-27455380D02*
X62404214Y-28312523D01*
X62356595Y-28407761D01*
X62261357Y-28455380D01*
X62166119Y-28455380D01*
X61689928Y-28455380D02*
X61785166Y-28407761D01*
X61832785Y-28360142D01*
X61880404Y-28264904D01*
X61880404Y-27979190D01*
X61832785Y-27883952D01*
X61785166Y-27836333D01*
X61689928Y-27788714D01*
X61547071Y-27788714D01*
X61451833Y-27836333D01*
X61404214Y-27883952D01*
X61356595Y-27979190D01*
X61356595Y-28264904D01*
X61404214Y-28360142D01*
X61451833Y-28407761D01*
X61547071Y-28455380D01*
X61689928Y-28455380D01*
X60213738Y-27550619D02*
X60166119Y-27503000D01*
X60070880Y-27455380D01*
X59832785Y-27455380D01*
X59737547Y-27503000D01*
X59689928Y-27550619D01*
X59642309Y-27645857D01*
X59642309Y-27741095D01*
X59689928Y-27883952D01*
X60261357Y-28455380D01*
X59642309Y-28455380D01*
X58689928Y-28455380D02*
X59261357Y-28455380D01*
X58975642Y-28455380D02*
X58975642Y-27455380D01*
X59070880Y-27598238D01*
X59166119Y-27693476D01*
X59261357Y-27741095D01*
X57356595Y-28455380D02*
X57451833Y-28407761D01*
X57499452Y-28360142D01*
X57547071Y-28264904D01*
X57547071Y-27979190D01*
X57499452Y-27883952D01*
X57451833Y-27836333D01*
X57356595Y-27788714D01*
X57213738Y-27788714D01*
X57118500Y-27836333D01*
X57070880Y-27883952D01*
X57023261Y-27979190D01*
X57023261Y-28264904D01*
X57070880Y-28360142D01*
X57118500Y-28407761D01*
X57213738Y-28455380D01*
X57356595Y-28455380D01*
X56689928Y-27788714D02*
X56166119Y-27788714D01*
X56689928Y-28455380D01*
X56166119Y-28455380D01*
X55880404Y-28836333D02*
X55832785Y-28788714D01*
X55737547Y-28645857D01*
X55689928Y-28550619D01*
X55642309Y-28407761D01*
X55594690Y-28169666D01*
X55594690Y-27979190D01*
X55642309Y-27741095D01*
X55689928Y-27598238D01*
X55737547Y-27503000D01*
X55832785Y-27360142D01*
X55880404Y-27312523D01*
X55118500Y-28360142D02*
X55070880Y-28407761D01*
X55118500Y-28455380D01*
X55166119Y-28407761D01*
X55118500Y-28360142D01*
X55118500Y-28455380D01*
X54023261Y-27455380D02*
X53451833Y-27455380D01*
X53737547Y-28455380D02*
X53737547Y-27455380D01*
X53118500Y-28455380D02*
X53118500Y-27455380D01*
X52689928Y-28455380D02*
X52689928Y-27931571D01*
X52737547Y-27836333D01*
X52832785Y-27788714D01*
X52975642Y-27788714D01*
X53070880Y-27836333D01*
X53118500Y-27883952D01*
X51832785Y-28407761D02*
X51928023Y-28455380D01*
X52118500Y-28455380D01*
X52213738Y-28407761D01*
X52261357Y-28312523D01*
X52261357Y-27931571D01*
X52213738Y-27836333D01*
X52118500Y-27788714D01*
X51928023Y-27788714D01*
X51832785Y-27836333D01*
X51785166Y-27931571D01*
X51785166Y-28026809D01*
X52261357Y-28122047D01*
X50594690Y-28455380D02*
X50594690Y-27788714D01*
X50594690Y-27883952D02*
X50547071Y-27836333D01*
X50451833Y-27788714D01*
X50308976Y-27788714D01*
X50213738Y-27836333D01*
X50166119Y-27931571D01*
X50166119Y-28455380D01*
X50166119Y-27931571D02*
X50118500Y-27836333D01*
X50023261Y-27788714D01*
X49880404Y-27788714D01*
X49785166Y-27836333D01*
X49737547Y-27931571D01*
X49737547Y-28455380D01*
X49118500Y-28455380D02*
X49213738Y-28407761D01*
X49261357Y-28360142D01*
X49308976Y-28264904D01*
X49308976Y-27979190D01*
X49261357Y-27883952D01*
X49213738Y-27836333D01*
X49118500Y-27788714D01*
X48975642Y-27788714D01*
X48880404Y-27836333D01*
X48832785Y-27883952D01*
X48785166Y-27979190D01*
X48785166Y-28264904D01*
X48832785Y-28360142D01*
X48880404Y-28407761D01*
X48975642Y-28455380D01*
X49118500Y-28455380D01*
X48404214Y-28407761D02*
X48308976Y-28455380D01*
X48118500Y-28455380D01*
X48023261Y-28407761D01*
X47975642Y-28312523D01*
X47975642Y-28264904D01*
X48023261Y-28169666D01*
X48118500Y-28122047D01*
X48261357Y-28122047D01*
X48356595Y-28074428D01*
X48404214Y-27979190D01*
X48404214Y-27931571D01*
X48356595Y-27836333D01*
X48261357Y-27788714D01*
X48118500Y-27788714D01*
X48023261Y-27836333D01*
X47689928Y-27788714D02*
X47308976Y-27788714D01*
X47547071Y-27455380D02*
X47547071Y-28312523D01*
X47499452Y-28407761D01*
X47404214Y-28455380D01*
X47308976Y-28455380D01*
X45785166Y-27788714D02*
X45785166Y-28455380D01*
X46213738Y-27788714D02*
X46213738Y-28312523D01*
X46166119Y-28407761D01*
X46070880Y-28455380D01*
X45928023Y-28455380D01*
X45832785Y-28407761D01*
X45785166Y-28360142D01*
X45356595Y-28407761D02*
X45261357Y-28455380D01*
X45070880Y-28455380D01*
X44975642Y-28407761D01*
X44928023Y-28312523D01*
X44928023Y-28264904D01*
X44975642Y-28169666D01*
X45070880Y-28122047D01*
X45213738Y-28122047D01*
X45308976Y-28074428D01*
X45356595Y-27979190D01*
X45356595Y-27931571D01*
X45308976Y-27836333D01*
X45213738Y-27788714D01*
X45070880Y-27788714D01*
X44975642Y-27836333D01*
X44070880Y-27788714D02*
X44070880Y-28455380D01*
X44499452Y-27788714D02*
X44499452Y-28312523D01*
X44451833Y-28407761D01*
X44356595Y-28455380D01*
X44213738Y-28455380D01*
X44118500Y-28407761D01*
X44070880Y-28360142D01*
X43166119Y-28455380D02*
X43166119Y-27931571D01*
X43213738Y-27836333D01*
X43308976Y-27788714D01*
X43499452Y-27788714D01*
X43594690Y-27836333D01*
X43166119Y-28407761D02*
X43261357Y-28455380D01*
X43499452Y-28455380D01*
X43594690Y-28407761D01*
X43642309Y-28312523D01*
X43642309Y-28217285D01*
X43594690Y-28122047D01*
X43499452Y-28074428D01*
X43261357Y-28074428D01*
X43166119Y-28026809D01*
X42547071Y-28455380D02*
X42642309Y-28407761D01*
X42689928Y-28312523D01*
X42689928Y-27455380D01*
X76451833Y-30057761D02*
X76547071Y-30105380D01*
X76737547Y-30105380D01*
X76832785Y-30057761D01*
X76880404Y-30010142D01*
X76928023Y-29914904D01*
X76928023Y-29629190D01*
X76880404Y-29533952D01*
X76832785Y-29486333D01*
X76737547Y-29438714D01*
X76547071Y-29438714D01*
X76451833Y-29486333D01*
X75594690Y-30105380D02*
X75594690Y-29581571D01*
X75642309Y-29486333D01*
X75737547Y-29438714D01*
X75928023Y-29438714D01*
X76023261Y-29486333D01*
X75594690Y-30057761D02*
X75689928Y-30105380D01*
X75928023Y-30105380D01*
X76023261Y-30057761D01*
X76070880Y-29962523D01*
X76070880Y-29867285D01*
X76023261Y-29772047D01*
X75928023Y-29724428D01*
X75689928Y-29724428D01*
X75594690Y-29676809D01*
X74975642Y-30105380D02*
X75070880Y-30057761D01*
X75118500Y-29962523D01*
X75118500Y-29105380D01*
X74451833Y-30105380D02*
X74547071Y-30057761D01*
X74594690Y-29962523D01*
X74594690Y-29105380D01*
X73308976Y-30105380D02*
X73308976Y-29438714D01*
X73308976Y-29105380D02*
X73356595Y-29153000D01*
X73308976Y-29200619D01*
X73261357Y-29153000D01*
X73308976Y-29105380D01*
X73308976Y-29200619D01*
X72880404Y-30057761D02*
X72785166Y-30105380D01*
X72594690Y-30105380D01*
X72499452Y-30057761D01*
X72451833Y-29962523D01*
X72451833Y-29914904D01*
X72499452Y-29819666D01*
X72594690Y-29772047D01*
X72737547Y-29772047D01*
X72832785Y-29724428D01*
X72880404Y-29629190D01*
X72880404Y-29581571D01*
X72832785Y-29486333D01*
X72737547Y-29438714D01*
X72594690Y-29438714D01*
X72499452Y-29486333D01*
X70689928Y-30010142D02*
X70737547Y-30057761D01*
X70880404Y-30105380D01*
X70975642Y-30105380D01*
X71118500Y-30057761D01*
X71213738Y-29962523D01*
X71261357Y-29867285D01*
X71308976Y-29676809D01*
X71308976Y-29533952D01*
X71261357Y-29343476D01*
X71213738Y-29248238D01*
X71118500Y-29153000D01*
X70975642Y-29105380D01*
X70880404Y-29105380D01*
X70737547Y-29153000D01*
X70689928Y-29200619D01*
X70308976Y-29819666D02*
X69832785Y-29819666D01*
X70404214Y-30105380D02*
X70070880Y-29105380D01*
X69737547Y-30105380D01*
X69499452Y-29105380D02*
X69261357Y-30105380D01*
X69070880Y-29391095D01*
X68880404Y-30105380D01*
X68642309Y-29105380D01*
X68356595Y-29105380D02*
X68118500Y-30105380D01*
X67928023Y-29391095D01*
X67737547Y-30105380D01*
X67499452Y-29105380D01*
X67118500Y-30010142D02*
X67070880Y-30057761D01*
X67118500Y-30105380D01*
X67166119Y-30057761D01*
X67118500Y-30010142D01*
X67118500Y-30105380D01*
X67118500Y-29724428D02*
X67166119Y-29153000D01*
X67118500Y-29105380D01*
X67070880Y-29153000D01*
X67118500Y-29724428D01*
X67118500Y-29105380D01*
X66642309Y-29724428D02*
X65880404Y-29724428D01*
X64832785Y-30010142D02*
X64880404Y-30057761D01*
X65023261Y-30105380D01*
X65118500Y-30105380D01*
X65261357Y-30057761D01*
X65356595Y-29962523D01*
X65404214Y-29867285D01*
X65451833Y-29676809D01*
X65451833Y-29533952D01*
X65404214Y-29343476D01*
X65356595Y-29248238D01*
X65261357Y-29153000D01*
X65118500Y-29105380D01*
X65023261Y-29105380D01*
X64880404Y-29153000D01*
X64832785Y-29200619D01*
X64451833Y-29819666D02*
X63975642Y-29819666D01*
X64547071Y-30105380D02*
X64213738Y-29105380D01*
X63880404Y-30105380D01*
X63642309Y-29105380D02*
X63404214Y-30105380D01*
X63213738Y-29391095D01*
X63023261Y-30105380D01*
X62785166Y-29105380D01*
X62499452Y-29105380D02*
X62261357Y-30105380D01*
X62070880Y-29391095D01*
X61880404Y-30105380D01*
X61642309Y-29105380D01*
X61261357Y-30010142D02*
X61213738Y-30057761D01*
X61261357Y-30105380D01*
X61308976Y-30057761D01*
X61261357Y-30010142D01*
X61261357Y-30105380D01*
X61261357Y-29724428D02*
X61308976Y-29153000D01*
X61261357Y-29105380D01*
X61213738Y-29153000D01*
X61261357Y-29724428D01*
X61261357Y-29105380D01*
X60785166Y-29724428D02*
X60023261Y-29724428D01*
X58975642Y-30010142D02*
X59023261Y-30057761D01*
X59166119Y-30105380D01*
X59261357Y-30105380D01*
X59404214Y-30057761D01*
X59499452Y-29962523D01*
X59547071Y-29867285D01*
X59594690Y-29676809D01*
X59594690Y-29533952D01*
X59547071Y-29343476D01*
X59499452Y-29248238D01*
X59404214Y-29153000D01*
X59261357Y-29105380D01*
X59166119Y-29105380D01*
X59023261Y-29153000D01*
X58975642Y-29200619D01*
X58594690Y-29819666D02*
X58118500Y-29819666D01*
X58689928Y-30105380D02*
X58356595Y-29105380D01*
X58023261Y-30105380D01*
X57785166Y-29105380D02*
X57547071Y-30105380D01*
X57356595Y-29391095D01*
X57166119Y-30105380D01*
X56928023Y-29105380D01*
X56642309Y-29105380D02*
X56404214Y-30105380D01*
X56213738Y-29391095D01*
X56023261Y-30105380D01*
X55785166Y-29105380D01*
X55404214Y-30010142D02*
X55356595Y-30057761D01*
X55404214Y-30105380D01*
X55451833Y-30057761D01*
X55404214Y-30010142D01*
X55404214Y-30105380D01*
X55404214Y-29724428D02*
X55451833Y-29153000D01*
X55404214Y-29105380D01*
X55356595Y-29153000D01*
X55404214Y-29724428D01*
X55404214Y-29105380D01*
X54308976Y-29105380D02*
X53737547Y-29105380D01*
X54023261Y-30105380D02*
X54023261Y-29105380D01*
X53404214Y-30105380D02*
X53404214Y-29105380D01*
X52975642Y-30105380D02*
X52975642Y-29581571D01*
X53023261Y-29486333D01*
X53118500Y-29438714D01*
X53261357Y-29438714D01*
X53356595Y-29486333D01*
X53404214Y-29533952D01*
X52118500Y-30057761D02*
X52213738Y-30105380D01*
X52404214Y-30105380D01*
X52499452Y-30057761D01*
X52547071Y-29962523D01*
X52547071Y-29581571D01*
X52499452Y-29486333D01*
X52404214Y-29438714D01*
X52213738Y-29438714D01*
X52118500Y-29486333D01*
X52070880Y-29581571D01*
X52070880Y-29676809D01*
X52547071Y-29772047D01*
X50928023Y-29819666D02*
X50451833Y-29819666D01*
X51023261Y-30105380D02*
X50689928Y-29105380D01*
X50356595Y-30105380D01*
X50023261Y-30105380D02*
X50023261Y-29438714D01*
X50023261Y-29533952D02*
X49975642Y-29486333D01*
X49880404Y-29438714D01*
X49737547Y-29438714D01*
X49642309Y-29486333D01*
X49594690Y-29581571D01*
X49594690Y-30105380D01*
X49594690Y-29581571D02*
X49547071Y-29486333D01*
X49451833Y-29438714D01*
X49308976Y-29438714D01*
X49213738Y-29486333D01*
X49166119Y-29581571D01*
X49166119Y-30105380D01*
X48308976Y-30057761D02*
X48404214Y-30105380D01*
X48594690Y-30105380D01*
X48689928Y-30057761D01*
X48737547Y-29962523D01*
X48737547Y-29581571D01*
X48689928Y-29486333D01*
X48594690Y-29438714D01*
X48404214Y-29438714D01*
X48308976Y-29486333D01*
X48261357Y-29581571D01*
X48261357Y-29676809D01*
X48737547Y-29772047D01*
X47832785Y-30105380D02*
X47832785Y-29438714D01*
X47832785Y-29629190D02*
X47785166Y-29533952D01*
X47737547Y-29486333D01*
X47642309Y-29438714D01*
X47547071Y-29438714D01*
X47213738Y-30105380D02*
X47213738Y-29438714D01*
X47213738Y-29105380D02*
X47261357Y-29153000D01*
X47213738Y-29200619D01*
X47166119Y-29153000D01*
X47213738Y-29105380D01*
X47213738Y-29200619D01*
X46308976Y-30057761D02*
X46404214Y-30105380D01*
X46594690Y-30105380D01*
X46689928Y-30057761D01*
X46737547Y-30010142D01*
X46785166Y-29914904D01*
X46785166Y-29629190D01*
X46737547Y-29533952D01*
X46689928Y-29486333D01*
X46594690Y-29438714D01*
X46404214Y-29438714D01*
X46308976Y-29486333D01*
X45451833Y-30105380D02*
X45451833Y-29581571D01*
X45499452Y-29486333D01*
X45594690Y-29438714D01*
X45785166Y-29438714D01*
X45880404Y-29486333D01*
X45451833Y-30057761D02*
X45547071Y-30105380D01*
X45785166Y-30105380D01*
X45880404Y-30057761D01*
X45928023Y-29962523D01*
X45928023Y-29867285D01*
X45880404Y-29772047D01*
X45785166Y-29724428D01*
X45547071Y-29724428D01*
X45451833Y-29676809D01*
X44975642Y-29438714D02*
X44975642Y-30105380D01*
X44975642Y-29533952D02*
X44928023Y-29486333D01*
X44832785Y-29438714D01*
X44689928Y-29438714D01*
X44594690Y-29486333D01*
X44547071Y-29581571D01*
X44547071Y-30105380D01*
X42880404Y-30057761D02*
X42975642Y-30105380D01*
X43166119Y-30105380D01*
X43261357Y-30057761D01*
X43308976Y-30010142D01*
X43356595Y-29914904D01*
X43356595Y-29629190D01*
X43308976Y-29533952D01*
X43261357Y-29486333D01*
X43166119Y-29438714D01*
X42975642Y-29438714D01*
X42880404Y-29486333D01*
X42451833Y-30105380D02*
X42451833Y-29438714D01*
X42451833Y-29629190D02*
X42404214Y-29533952D01*
X42356595Y-29486333D01*
X42261357Y-29438714D01*
X42166119Y-29438714D01*
X41689928Y-30105380D02*
X41785166Y-30057761D01*
X41832785Y-30010142D01*
X41880404Y-29914904D01*
X41880404Y-29629190D01*
X41832785Y-29533952D01*
X41785166Y-29486333D01*
X41689928Y-29438714D01*
X41547071Y-29438714D01*
X41451833Y-29486333D01*
X41404214Y-29533952D01*
X41356595Y-29629190D01*
X41356595Y-29914904D01*
X41404214Y-30010142D01*
X41451833Y-30057761D01*
X41547071Y-30105380D01*
X41689928Y-30105380D01*
X41023261Y-29438714D02*
X40832785Y-30105380D01*
X40642309Y-29629190D01*
X40451833Y-30105380D01*
X40261357Y-29438714D01*
X39118500Y-30105380D02*
X39118500Y-29438714D01*
X39118500Y-29105380D02*
X39166119Y-29153000D01*
X39118500Y-29200619D01*
X39070880Y-29153000D01*
X39118500Y-29105380D01*
X39118500Y-29200619D01*
X38689928Y-30057761D02*
X38594690Y-30105380D01*
X38404214Y-30105380D01*
X38308976Y-30057761D01*
X38261357Y-29962523D01*
X38261357Y-29914904D01*
X38308976Y-29819666D01*
X38404214Y-29772047D01*
X38547071Y-29772047D01*
X38642309Y-29724428D01*
X38689928Y-29629190D01*
X38689928Y-29581571D01*
X38642309Y-29486333D01*
X38547071Y-29438714D01*
X38404214Y-29438714D01*
X38308976Y-29486333D01*
X76737547Y-31755380D02*
X76832785Y-31707761D01*
X76880404Y-31660142D01*
X76928023Y-31564904D01*
X76928023Y-31279190D01*
X76880404Y-31183952D01*
X76832785Y-31136333D01*
X76737547Y-31088714D01*
X76594690Y-31088714D01*
X76499452Y-31136333D01*
X76451833Y-31183952D01*
X76404214Y-31279190D01*
X76404214Y-31564904D01*
X76451833Y-31660142D01*
X76499452Y-31707761D01*
X76594690Y-31755380D01*
X76737547Y-31755380D01*
X75975642Y-31088714D02*
X75975642Y-31755380D01*
X75975642Y-31183952D02*
X75928023Y-31136333D01*
X75832785Y-31088714D01*
X75689928Y-31088714D01*
X75594690Y-31136333D01*
X75547071Y-31231571D01*
X75547071Y-31755380D01*
X74689928Y-31707761D02*
X74785166Y-31755380D01*
X74975642Y-31755380D01*
X75070880Y-31707761D01*
X75118500Y-31612523D01*
X75118500Y-31231571D01*
X75070880Y-31136333D01*
X74975642Y-31088714D01*
X74785166Y-31088714D01*
X74689928Y-31136333D01*
X74642309Y-31231571D01*
X74642309Y-31326809D01*
X75118500Y-31422047D01*
X73308976Y-31755380D02*
X73404214Y-31707761D01*
X73451833Y-31660142D01*
X73499452Y-31564904D01*
X73499452Y-31279190D01*
X73451833Y-31183952D01*
X73404214Y-31136333D01*
X73308976Y-31088714D01*
X73166119Y-31088714D01*
X73070880Y-31136333D01*
X73023261Y-31183952D01*
X72975642Y-31279190D01*
X72975642Y-31564904D01*
X73023261Y-31660142D01*
X73070880Y-31707761D01*
X73166119Y-31755380D01*
X73308976Y-31755380D01*
X72689928Y-31088714D02*
X72308976Y-31088714D01*
X72547071Y-31755380D02*
X72547071Y-30898238D01*
X72499452Y-30803000D01*
X72404214Y-30755380D01*
X72308976Y-30755380D01*
X71070880Y-31755380D02*
X71166119Y-31707761D01*
X71213738Y-31660142D01*
X71261357Y-31564904D01*
X71261357Y-31279190D01*
X71213738Y-31183952D01*
X71166119Y-31136333D01*
X71070880Y-31088714D01*
X70928023Y-31088714D01*
X70832785Y-31136333D01*
X70785166Y-31183952D01*
X70737547Y-31279190D01*
X70737547Y-31564904D01*
X70785166Y-31660142D01*
X70832785Y-31707761D01*
X70928023Y-31755380D01*
X71070880Y-31755380D01*
X70308976Y-31088714D02*
X70308976Y-31755380D01*
X70308976Y-31183952D02*
X70261357Y-31136333D01*
X70166119Y-31088714D01*
X70023261Y-31088714D01*
X69928023Y-31136333D01*
X69880404Y-31231571D01*
X69880404Y-31755380D01*
X69261357Y-31755380D02*
X69356595Y-31707761D01*
X69404214Y-31612523D01*
X69404214Y-30755380D01*
X68975642Y-31088714D02*
X68737547Y-31755380D01*
X68499452Y-31088714D02*
X68737547Y-31755380D01*
X68832785Y-31993476D01*
X68880404Y-32041095D01*
X68975642Y-32088714D01*
X66928023Y-31755380D02*
X66928023Y-31231571D01*
X66975642Y-31136333D01*
X67070880Y-31088714D01*
X67261357Y-31088714D01*
X67356595Y-31136333D01*
X66928023Y-31707761D02*
X67023261Y-31755380D01*
X67261357Y-31755380D01*
X67356595Y-31707761D01*
X67404214Y-31612523D01*
X67404214Y-31517285D01*
X67356595Y-31422047D01*
X67261357Y-31374428D01*
X67023261Y-31374428D01*
X66928023Y-31326809D01*
X65832785Y-31088714D02*
X65451833Y-31088714D01*
X65689928Y-31755380D02*
X65689928Y-30898238D01*
X65642309Y-30803000D01*
X65547071Y-30755380D01*
X65451833Y-30755380D01*
X64737547Y-31707761D02*
X64832785Y-31755380D01*
X65023261Y-31755380D01*
X65118500Y-31707761D01*
X65166119Y-31612523D01*
X65166119Y-31231571D01*
X65118500Y-31136333D01*
X65023261Y-31088714D01*
X64832785Y-31088714D01*
X64737547Y-31136333D01*
X64689928Y-31231571D01*
X64689928Y-31326809D01*
X65166119Y-31422047D01*
X64356595Y-31088714D02*
X64166119Y-31755380D01*
X63975642Y-31279190D01*
X63785166Y-31755380D01*
X63594690Y-31088714D01*
X62499452Y-31707761D02*
X62404214Y-31755380D01*
X62213738Y-31755380D01*
X62118500Y-31707761D01*
X62070880Y-31612523D01*
X62070880Y-31564904D01*
X62118500Y-31469666D01*
X62213738Y-31422047D01*
X62356595Y-31422047D01*
X62451833Y-31374428D01*
X62499452Y-31279190D01*
X62499452Y-31231571D01*
X62451833Y-31136333D01*
X62356595Y-31088714D01*
X62213738Y-31088714D01*
X62118500Y-31136333D01*
X61642309Y-31088714D02*
X61642309Y-32088714D01*
X61642309Y-31136333D02*
X61547071Y-31088714D01*
X61356595Y-31088714D01*
X61261357Y-31136333D01*
X61213738Y-31183952D01*
X61166119Y-31279190D01*
X61166119Y-31564904D01*
X61213738Y-31660142D01*
X61261357Y-31707761D01*
X61356595Y-31755380D01*
X61547071Y-31755380D01*
X61642309Y-31707761D01*
X60356595Y-31707761D02*
X60451833Y-31755380D01*
X60642309Y-31755380D01*
X60737547Y-31707761D01*
X60785166Y-31612523D01*
X60785166Y-31231571D01*
X60737547Y-31136333D01*
X60642309Y-31088714D01*
X60451833Y-31088714D01*
X60356595Y-31136333D01*
X60308976Y-31231571D01*
X60308976Y-31326809D01*
X60785166Y-31422047D01*
X59451833Y-31707761D02*
X59547071Y-31755380D01*
X59737547Y-31755380D01*
X59832785Y-31707761D01*
X59880404Y-31660142D01*
X59928023Y-31564904D01*
X59928023Y-31279190D01*
X59880404Y-31183952D01*
X59832785Y-31136333D01*
X59737547Y-31088714D01*
X59547071Y-31088714D01*
X59451833Y-31136333D01*
X59023261Y-31755380D02*
X59023261Y-31088714D01*
X59023261Y-30755380D02*
X59070880Y-30803000D01*
X59023261Y-30850619D01*
X58975642Y-30803000D01*
X59023261Y-30755380D01*
X59023261Y-30850619D01*
X58166119Y-31707761D02*
X58261357Y-31755380D01*
X58451833Y-31755380D01*
X58547071Y-31707761D01*
X58594690Y-31612523D01*
X58594690Y-31231571D01*
X58547071Y-31136333D01*
X58451833Y-31088714D01*
X58261357Y-31088714D01*
X58166119Y-31136333D01*
X58118500Y-31231571D01*
X58118500Y-31326809D01*
X58594690Y-31422047D01*
X57737547Y-31707761D02*
X57642309Y-31755380D01*
X57451833Y-31755380D01*
X57356595Y-31707761D01*
X57308976Y-31612523D01*
X57308976Y-31564904D01*
X57356595Y-31469666D01*
X57451833Y-31422047D01*
X57594690Y-31422047D01*
X57689928Y-31374428D01*
X57737547Y-31279190D01*
X57737547Y-31231571D01*
X57689928Y-31136333D01*
X57594690Y-31088714D01*
X57451833Y-31088714D01*
X57356595Y-31136333D01*
X55975642Y-31755380D02*
X56070880Y-31707761D01*
X56118500Y-31660142D01*
X56166119Y-31564904D01*
X56166119Y-31279190D01*
X56118500Y-31183952D01*
X56070880Y-31136333D01*
X55975642Y-31088714D01*
X55832785Y-31088714D01*
X55737547Y-31136333D01*
X55689928Y-31183952D01*
X55642309Y-31279190D01*
X55642309Y-31564904D01*
X55689928Y-31660142D01*
X55737547Y-31707761D01*
X55832785Y-31755380D01*
X55975642Y-31755380D01*
X55356595Y-31088714D02*
X54975642Y-31088714D01*
X55213738Y-31755380D02*
X55213738Y-30898238D01*
X55166119Y-30803000D01*
X55070880Y-30755380D01*
X54975642Y-30755380D01*
X53880404Y-31755380D02*
X53880404Y-30755380D01*
X53880404Y-31136333D02*
X53785166Y-31088714D01*
X53594690Y-31088714D01*
X53499452Y-31136333D01*
X53451833Y-31183952D01*
X53404214Y-31279190D01*
X53404214Y-31564904D01*
X53451833Y-31660142D01*
X53499452Y-31707761D01*
X53594690Y-31755380D01*
X53785166Y-31755380D01*
X53880404Y-31707761D01*
X52975642Y-31755380D02*
X52975642Y-31088714D01*
X52975642Y-30755380D02*
X53023261Y-30803000D01*
X52975642Y-30850619D01*
X52928023Y-30803000D01*
X52975642Y-30755380D01*
X52975642Y-30850619D01*
X52499452Y-31755380D02*
X52499452Y-31088714D01*
X52499452Y-31279190D02*
X52451833Y-31183952D01*
X52404214Y-31136333D01*
X52308976Y-31088714D01*
X52213738Y-31088714D01*
X51451833Y-31755380D02*
X51451833Y-30755380D01*
X51451833Y-31707761D02*
X51547071Y-31755380D01*
X51737547Y-31755380D01*
X51832785Y-31707761D01*
X51880404Y-31660142D01*
X51928023Y-31564904D01*
X51928023Y-31279190D01*
X51880404Y-31183952D01*
X51832785Y-31136333D01*
X51737547Y-31088714D01*
X51547071Y-31088714D01*
X51451833Y-31136333D01*
X50356595Y-31088714D02*
X49975642Y-31088714D01*
X50213738Y-30755380D02*
X50213738Y-31612523D01*
X50166119Y-31707761D01*
X50070880Y-31755380D01*
X49975642Y-31755380D01*
X49642309Y-31755380D02*
X49642309Y-30755380D01*
X49213738Y-31755380D02*
X49213738Y-31231571D01*
X49261357Y-31136333D01*
X49356595Y-31088714D01*
X49499452Y-31088714D01*
X49594690Y-31136333D01*
X49642309Y-31183952D01*
X48308976Y-31755380D02*
X48308976Y-31231571D01*
X48356595Y-31136333D01*
X48451833Y-31088714D01*
X48642309Y-31088714D01*
X48737547Y-31136333D01*
X48308976Y-31707761D02*
X48404214Y-31755380D01*
X48642309Y-31755380D01*
X48737547Y-31707761D01*
X48785166Y-31612523D01*
X48785166Y-31517285D01*
X48737547Y-31422047D01*
X48642309Y-31374428D01*
X48404214Y-31374428D01*
X48308976Y-31326809D01*
X47975642Y-31088714D02*
X47594690Y-31088714D01*
X47832785Y-30755380D02*
X47832785Y-31612523D01*
X47785166Y-31707761D01*
X47689928Y-31755380D01*
X47594690Y-31755380D01*
X46499452Y-31755380D02*
X46499452Y-30755380D01*
X46070880Y-31755380D02*
X46070880Y-31231571D01*
X46118500Y-31136333D01*
X46213738Y-31088714D01*
X46356595Y-31088714D01*
X46451833Y-31136333D01*
X46499452Y-31183952D01*
X45166119Y-31755380D02*
X45166119Y-31231571D01*
X45213738Y-31136333D01*
X45308976Y-31088714D01*
X45499452Y-31088714D01*
X45594690Y-31136333D01*
X45166119Y-31707761D02*
X45261357Y-31755380D01*
X45499452Y-31755380D01*
X45594690Y-31707761D01*
X45642309Y-31612523D01*
X45642309Y-31517285D01*
X45594690Y-31422047D01*
X45499452Y-31374428D01*
X45261357Y-31374428D01*
X45166119Y-31326809D01*
X44737547Y-31707761D02*
X44642309Y-31755380D01*
X44451833Y-31755380D01*
X44356595Y-31707761D01*
X44308976Y-31612523D01*
X44308976Y-31564904D01*
X44356595Y-31469666D01*
X44451833Y-31422047D01*
X44594690Y-31422047D01*
X44689928Y-31374428D01*
X44737547Y-31279190D01*
X44737547Y-31231571D01*
X44689928Y-31136333D01*
X44594690Y-31088714D01*
X44451833Y-31088714D01*
X44356595Y-31136333D01*
X43118500Y-31755380D02*
X43118500Y-30755380D01*
X43118500Y-31136333D02*
X43023261Y-31088714D01*
X42832785Y-31088714D01*
X42737547Y-31136333D01*
X42689928Y-31183952D01*
X42642309Y-31279190D01*
X42642309Y-31564904D01*
X42689928Y-31660142D01*
X42737547Y-31707761D01*
X42832785Y-31755380D01*
X43023261Y-31755380D01*
X43118500Y-31707761D01*
X41832785Y-31707761D02*
X41928023Y-31755380D01*
X42118500Y-31755380D01*
X42213738Y-31707761D01*
X42261357Y-31612523D01*
X42261357Y-31231571D01*
X42213738Y-31136333D01*
X42118500Y-31088714D01*
X41928023Y-31088714D01*
X41832785Y-31136333D01*
X41785166Y-31231571D01*
X41785166Y-31326809D01*
X42261357Y-31422047D01*
X40975642Y-31707761D02*
X41070880Y-31755380D01*
X41261357Y-31755380D01*
X41356595Y-31707761D01*
X41404214Y-31612523D01*
X41404214Y-31231571D01*
X41356595Y-31136333D01*
X41261357Y-31088714D01*
X41070880Y-31088714D01*
X40975642Y-31136333D01*
X40928023Y-31231571D01*
X40928023Y-31326809D01*
X41404214Y-31422047D01*
X40499452Y-31088714D02*
X40499452Y-31755380D01*
X40499452Y-31183952D02*
X40451833Y-31136333D01*
X40356595Y-31088714D01*
X40213738Y-31088714D01*
X40118500Y-31136333D01*
X40070880Y-31231571D01*
X40070880Y-31755380D01*
X38689928Y-31755380D02*
X38785166Y-31707761D01*
X38832785Y-31660142D01*
X38880404Y-31564904D01*
X38880404Y-31279190D01*
X38832785Y-31183952D01*
X38785166Y-31136333D01*
X38689928Y-31088714D01*
X38547071Y-31088714D01*
X38451833Y-31136333D01*
X38404214Y-31183952D01*
X38356595Y-31279190D01*
X38356595Y-31564904D01*
X38404214Y-31660142D01*
X38451833Y-31707761D01*
X38547071Y-31755380D01*
X38689928Y-31755380D01*
X37928023Y-31755380D02*
X37928023Y-30755380D01*
X37928023Y-31136333D02*
X37832785Y-31088714D01*
X37642309Y-31088714D01*
X37547071Y-31136333D01*
X37499452Y-31183952D01*
X37451833Y-31279190D01*
X37451833Y-31564904D01*
X37499452Y-31660142D01*
X37547071Y-31707761D01*
X37642309Y-31755380D01*
X37832785Y-31755380D01*
X37928023Y-31707761D01*
X37070880Y-31707761D02*
X36975642Y-31755380D01*
X36785166Y-31755380D01*
X36689928Y-31707761D01*
X36642309Y-31612523D01*
X36642309Y-31564904D01*
X36689928Y-31469666D01*
X36785166Y-31422047D01*
X36928023Y-31422047D01*
X37023261Y-31374428D01*
X37070880Y-31279190D01*
X37070880Y-31231571D01*
X37023261Y-31136333D01*
X36928023Y-31088714D01*
X36785166Y-31088714D01*
X36689928Y-31136333D01*
X35832785Y-31707761D02*
X35928023Y-31755380D01*
X36118500Y-31755380D01*
X36213738Y-31707761D01*
X36261357Y-31612523D01*
X36261357Y-31231571D01*
X36213738Y-31136333D01*
X36118500Y-31088714D01*
X35928023Y-31088714D01*
X35832785Y-31136333D01*
X35785166Y-31231571D01*
X35785166Y-31326809D01*
X36261357Y-31422047D01*
X35356595Y-31755380D02*
X35356595Y-31088714D01*
X35356595Y-31279190D02*
X35308976Y-31183952D01*
X35261357Y-31136333D01*
X35166119Y-31088714D01*
X35070880Y-31088714D01*
X34832785Y-31088714D02*
X34594690Y-31755380D01*
X34356595Y-31088714D01*
X33594690Y-31707761D02*
X33689928Y-31755380D01*
X33880404Y-31755380D01*
X33975642Y-31707761D01*
X34023261Y-31612523D01*
X34023261Y-31231571D01*
X33975642Y-31136333D01*
X33880404Y-31088714D01*
X33689928Y-31088714D01*
X33594690Y-31136333D01*
X33547071Y-31231571D01*
X33547071Y-31326809D01*
X34023261Y-31422047D01*
X32689928Y-31755380D02*
X32689928Y-30755380D01*
X32689928Y-31707761D02*
X32785166Y-31755380D01*
X32975642Y-31755380D01*
X33070880Y-31707761D01*
X33118500Y-31660142D01*
X33166119Y-31564904D01*
X33166119Y-31279190D01*
X33118500Y-31183952D01*
X33070880Y-31136333D01*
X32975642Y-31088714D01*
X32785166Y-31088714D01*
X32689928Y-31136333D01*
X76880404Y-33405380D02*
X76880404Y-32738714D01*
X76880404Y-32833952D02*
X76832785Y-32786333D01*
X76737547Y-32738714D01*
X76594690Y-32738714D01*
X76499452Y-32786333D01*
X76451833Y-32881571D01*
X76451833Y-33405380D01*
X76451833Y-32881571D02*
X76404214Y-32786333D01*
X76308976Y-32738714D01*
X76166119Y-32738714D01*
X76070880Y-32786333D01*
X76023261Y-32881571D01*
X76023261Y-33405380D01*
X75404214Y-33405380D02*
X75499452Y-33357761D01*
X75547071Y-33310142D01*
X75594690Y-33214904D01*
X75594690Y-32929190D01*
X75547071Y-32833952D01*
X75499452Y-32786333D01*
X75404214Y-32738714D01*
X75261357Y-32738714D01*
X75166119Y-32786333D01*
X75118500Y-32833952D01*
X75070880Y-32929190D01*
X75070880Y-33214904D01*
X75118500Y-33310142D01*
X75166119Y-33357761D01*
X75261357Y-33405380D01*
X75404214Y-33405380D01*
X74213738Y-33405380D02*
X74213738Y-32405380D01*
X74213738Y-33357761D02*
X74308976Y-33405380D01*
X74499452Y-33405380D01*
X74594690Y-33357761D01*
X74642309Y-33310142D01*
X74689928Y-33214904D01*
X74689928Y-32929190D01*
X74642309Y-32833952D01*
X74594690Y-32786333D01*
X74499452Y-32738714D01*
X74308976Y-32738714D01*
X74213738Y-32786333D01*
X73737547Y-33405380D02*
X73737547Y-32738714D01*
X73737547Y-32405380D02*
X73785166Y-32453000D01*
X73737547Y-32500619D01*
X73689928Y-32453000D01*
X73737547Y-32405380D01*
X73737547Y-32500619D01*
X73404214Y-32738714D02*
X73023261Y-32738714D01*
X73261357Y-33405380D02*
X73261357Y-32548238D01*
X73213738Y-32453000D01*
X73118500Y-32405380D01*
X73023261Y-32405380D01*
X72785166Y-32738714D02*
X72547071Y-33405380D01*
X72308976Y-32738714D02*
X72547071Y-33405380D01*
X72642309Y-33643476D01*
X72689928Y-33691095D01*
X72785166Y-33738714D01*
X71928023Y-33405380D02*
X71928023Y-32738714D01*
X71928023Y-32405380D02*
X71975642Y-32453000D01*
X71928023Y-32500619D01*
X71880404Y-32453000D01*
X71928023Y-32405380D01*
X71928023Y-32500619D01*
X71451833Y-32738714D02*
X71451833Y-33405380D01*
X71451833Y-32833952D02*
X71404214Y-32786333D01*
X71308976Y-32738714D01*
X71166119Y-32738714D01*
X71070880Y-32786333D01*
X71023261Y-32881571D01*
X71023261Y-33405380D01*
X70118500Y-32738714D02*
X70118500Y-33548238D01*
X70166119Y-33643476D01*
X70213738Y-33691095D01*
X70308976Y-33738714D01*
X70451833Y-33738714D01*
X70547071Y-33691095D01*
X70118500Y-33357761D02*
X70213738Y-33405380D01*
X70404214Y-33405380D01*
X70499452Y-33357761D01*
X70547071Y-33310142D01*
X70594690Y-33214904D01*
X70594690Y-32929190D01*
X70547071Y-32833952D01*
X70499452Y-32786333D01*
X70404214Y-32738714D01*
X70213738Y-32738714D01*
X70118500Y-32786333D01*
X68451833Y-33405380D02*
X68451833Y-32881571D01*
X68499452Y-32786333D01*
X68594690Y-32738714D01*
X68785166Y-32738714D01*
X68880404Y-32786333D01*
X68451833Y-33357761D02*
X68547071Y-33405380D01*
X68785166Y-33405380D01*
X68880404Y-33357761D01*
X68928023Y-33262523D01*
X68928023Y-33167285D01*
X68880404Y-33072047D01*
X68785166Y-33024428D01*
X68547071Y-33024428D01*
X68451833Y-32976809D01*
X67975642Y-32738714D02*
X67975642Y-33405380D01*
X67975642Y-32833952D02*
X67928023Y-32786333D01*
X67832785Y-32738714D01*
X67689928Y-32738714D01*
X67594690Y-32786333D01*
X67547071Y-32881571D01*
X67547071Y-33405380D01*
X66642309Y-33405380D02*
X66642309Y-32405380D01*
X66642309Y-33357761D02*
X66737547Y-33405380D01*
X66928023Y-33405380D01*
X67023261Y-33357761D01*
X67070880Y-33310142D01*
X67118500Y-33214904D01*
X67118500Y-32929190D01*
X67070880Y-32833952D01*
X67023261Y-32786333D01*
X66928023Y-32738714D01*
X66737547Y-32738714D01*
X66642309Y-32786333D01*
X64975642Y-32738714D02*
X64975642Y-33405380D01*
X65404214Y-32738714D02*
X65404214Y-33262523D01*
X65356595Y-33357761D01*
X65261357Y-33405380D01*
X65118500Y-33405380D01*
X65023261Y-33357761D01*
X64975642Y-33310142D01*
X64547071Y-33357761D02*
X64451833Y-33405380D01*
X64261357Y-33405380D01*
X64166119Y-33357761D01*
X64118500Y-33262523D01*
X64118500Y-33214904D01*
X64166119Y-33119666D01*
X64261357Y-33072047D01*
X64404214Y-33072047D01*
X64499452Y-33024428D01*
X64547071Y-32929190D01*
X64547071Y-32881571D01*
X64499452Y-32786333D01*
X64404214Y-32738714D01*
X64261357Y-32738714D01*
X64166119Y-32786333D01*
X63689928Y-33405380D02*
X63689928Y-32738714D01*
X63689928Y-32405380D02*
X63737547Y-32453000D01*
X63689928Y-32500619D01*
X63642309Y-32453000D01*
X63689928Y-32405380D01*
X63689928Y-32500619D01*
X63213738Y-32738714D02*
X63213738Y-33405380D01*
X63213738Y-32833952D02*
X63166119Y-32786333D01*
X63070880Y-32738714D01*
X62928023Y-32738714D01*
X62832785Y-32786333D01*
X62785166Y-32881571D01*
X62785166Y-33405380D01*
X61880404Y-32738714D02*
X61880404Y-33548238D01*
X61928023Y-33643476D01*
X61975642Y-33691095D01*
X62070880Y-33738714D01*
X62213738Y-33738714D01*
X62308976Y-33691095D01*
X61880404Y-33357761D02*
X61975642Y-33405380D01*
X62166119Y-33405380D01*
X62261357Y-33357761D01*
X62308976Y-33310142D01*
X62356595Y-33214904D01*
X62356595Y-32929190D01*
X62308976Y-32833952D01*
X62261357Y-32786333D01*
X62166119Y-32738714D01*
X61975642Y-32738714D01*
X61880404Y-32786333D01*
X60785166Y-32738714D02*
X60404214Y-32738714D01*
X60642309Y-32405380D02*
X60642309Y-33262523D01*
X60594690Y-33357761D01*
X60499452Y-33405380D01*
X60404214Y-33405380D01*
X59928023Y-33405380D02*
X60023261Y-33357761D01*
X60070880Y-33310142D01*
X60118500Y-33214904D01*
X60118500Y-32929190D01*
X60070880Y-32833952D01*
X60023261Y-32786333D01*
X59928023Y-32738714D01*
X59785166Y-32738714D01*
X59689928Y-32786333D01*
X59642309Y-32833952D01*
X59594690Y-32929190D01*
X59594690Y-33214904D01*
X59642309Y-33310142D01*
X59689928Y-33357761D01*
X59785166Y-33405380D01*
X59928023Y-33405380D01*
X59023261Y-33405380D02*
X59118500Y-33357761D01*
X59166119Y-33310142D01*
X59213738Y-33214904D01*
X59213738Y-32929190D01*
X59166119Y-32833952D01*
X59118500Y-32786333D01*
X59023261Y-32738714D01*
X58880404Y-32738714D01*
X58785166Y-32786333D01*
X58737547Y-32833952D01*
X58689928Y-32929190D01*
X58689928Y-33214904D01*
X58737547Y-33310142D01*
X58785166Y-33357761D01*
X58880404Y-33405380D01*
X59023261Y-33405380D01*
X58118500Y-33405380D02*
X58213738Y-33357761D01*
X58261357Y-33262523D01*
X58261357Y-32405380D01*
X57785166Y-33357761D02*
X57689928Y-33405380D01*
X57499452Y-33405380D01*
X57404214Y-33357761D01*
X57356595Y-33262523D01*
X57356595Y-33214904D01*
X57404214Y-33119666D01*
X57499452Y-33072047D01*
X57642309Y-33072047D01*
X57737547Y-33024428D01*
X57785166Y-32929190D01*
X57785166Y-32881571D01*
X57737547Y-32786333D01*
X57642309Y-32738714D01*
X57499452Y-32738714D01*
X57404214Y-32786333D01*
X56308976Y-32738714D02*
X55928023Y-32738714D01*
X56166119Y-32405380D02*
X56166119Y-33262523D01*
X56118500Y-33357761D01*
X56023261Y-33405380D01*
X55928023Y-33405380D01*
X55451833Y-33405380D02*
X55547071Y-33357761D01*
X55594690Y-33310142D01*
X55642309Y-33214904D01*
X55642309Y-32929190D01*
X55594690Y-32833952D01*
X55547071Y-32786333D01*
X55451833Y-32738714D01*
X55308976Y-32738714D01*
X55213738Y-32786333D01*
X55166119Y-32833952D01*
X55118500Y-32929190D01*
X55118500Y-33214904D01*
X55166119Y-33310142D01*
X55213738Y-33357761D01*
X55308976Y-33405380D01*
X55451833Y-33405380D01*
X53785166Y-33405380D02*
X53880404Y-33357761D01*
X53928023Y-33310142D01*
X53975642Y-33214904D01*
X53975642Y-32929190D01*
X53928023Y-32833952D01*
X53880404Y-32786333D01*
X53785166Y-32738714D01*
X53642309Y-32738714D01*
X53547071Y-32786333D01*
X53499452Y-32833952D01*
X53451833Y-32929190D01*
X53451833Y-33214904D01*
X53499452Y-33310142D01*
X53547071Y-33357761D01*
X53642309Y-33405380D01*
X53785166Y-33405380D01*
X53023261Y-33405380D02*
X53023261Y-32405380D01*
X53023261Y-32786333D02*
X52928023Y-32738714D01*
X52737547Y-32738714D01*
X52642309Y-32786333D01*
X52594690Y-32833952D01*
X52547071Y-32929190D01*
X52547071Y-33214904D01*
X52594690Y-33310142D01*
X52642309Y-33357761D01*
X52737547Y-33405380D01*
X52928023Y-33405380D01*
X53023261Y-33357761D01*
X52261357Y-32738714D02*
X51880404Y-32738714D01*
X52118500Y-32405380D02*
X52118500Y-33262523D01*
X52070880Y-33357761D01*
X51975642Y-33405380D01*
X51880404Y-33405380D01*
X51118500Y-33405380D02*
X51118500Y-32881571D01*
X51166119Y-32786333D01*
X51261357Y-32738714D01*
X51451833Y-32738714D01*
X51547071Y-32786333D01*
X51118500Y-33357761D02*
X51213738Y-33405380D01*
X51451833Y-33405380D01*
X51547071Y-33357761D01*
X51594690Y-33262523D01*
X51594690Y-33167285D01*
X51547071Y-33072047D01*
X51451833Y-33024428D01*
X51213738Y-33024428D01*
X51118500Y-32976809D01*
X50642309Y-33405380D02*
X50642309Y-32738714D01*
X50642309Y-32405380D02*
X50689928Y-32453000D01*
X50642309Y-32500619D01*
X50594690Y-32453000D01*
X50642309Y-32405380D01*
X50642309Y-32500619D01*
X50166119Y-32738714D02*
X50166119Y-33405380D01*
X50166119Y-32833952D02*
X50118500Y-32786333D01*
X50023261Y-32738714D01*
X49880404Y-32738714D01*
X49785166Y-32786333D01*
X49737547Y-32881571D01*
X49737547Y-33405380D01*
X48642309Y-32738714D02*
X48261357Y-32738714D01*
X48499452Y-33405380D02*
X48499452Y-32548238D01*
X48451833Y-32453000D01*
X48356595Y-32405380D01*
X48261357Y-32405380D01*
X47785166Y-33405380D02*
X47880404Y-33357761D01*
X47928023Y-33310142D01*
X47975642Y-33214904D01*
X47975642Y-32929190D01*
X47928023Y-32833952D01*
X47880404Y-32786333D01*
X47785166Y-32738714D01*
X47642309Y-32738714D01*
X47547071Y-32786333D01*
X47499452Y-32833952D01*
X47451833Y-32929190D01*
X47451833Y-33214904D01*
X47499452Y-33310142D01*
X47547071Y-33357761D01*
X47642309Y-33405380D01*
X47785166Y-33405380D01*
X46880404Y-33405380D02*
X46975642Y-33357761D01*
X47023261Y-33310142D01*
X47070880Y-33214904D01*
X47070880Y-32929190D01*
X47023261Y-32833952D01*
X46975642Y-32786333D01*
X46880404Y-32738714D01*
X46737547Y-32738714D01*
X46642309Y-32786333D01*
X46594690Y-32833952D01*
X46547071Y-32929190D01*
X46547071Y-33214904D01*
X46594690Y-33310142D01*
X46642309Y-33357761D01*
X46737547Y-33405380D01*
X46880404Y-33405380D01*
X45689928Y-33405380D02*
X45689928Y-32405380D01*
X45689928Y-33357761D02*
X45785166Y-33405380D01*
X45975642Y-33405380D01*
X46070880Y-33357761D01*
X46118500Y-33310142D01*
X46166119Y-33214904D01*
X46166119Y-32929190D01*
X46118500Y-32833952D01*
X46070880Y-32786333D01*
X45975642Y-32738714D01*
X45785166Y-32738714D01*
X45689928Y-32786333D01*
X45213738Y-33310142D02*
X45166119Y-33357761D01*
X45213738Y-33405380D01*
X45261357Y-33357761D01*
X45213738Y-33310142D01*
X45213738Y-33405380D01*
X36805142Y-53554380D02*
X36186095Y-53554380D01*
X36519428Y-53935333D01*
X36376571Y-53935333D01*
X36281333Y-53982952D01*
X36233714Y-54030571D01*
X36186095Y-54125809D01*
X36186095Y-54363904D01*
X36233714Y-54459142D01*
X36281333Y-54506761D01*
X36376571Y-54554380D01*
X36662285Y-54554380D01*
X36757523Y-54506761D01*
X36805142Y-54459142D01*
X35757523Y-54459142D02*
X35709904Y-54506761D01*
X35757523Y-54554380D01*
X35805142Y-54506761D01*
X35757523Y-54459142D01*
X35757523Y-54554380D01*
X35376571Y-53554380D02*
X34757523Y-53554380D01*
X35090857Y-53935333D01*
X34948000Y-53935333D01*
X34852761Y-53982952D01*
X34805142Y-54030571D01*
X34757523Y-54125809D01*
X34757523Y-54363904D01*
X34805142Y-54459142D01*
X34852761Y-54506761D01*
X34948000Y-54554380D01*
X35233714Y-54554380D01*
X35328952Y-54506761D01*
X35376571Y-54459142D01*
X34471809Y-53554380D02*
X34138476Y-54554380D01*
X33805142Y-53554380D01*
X32138476Y-54459142D02*
X32186095Y-54506761D01*
X32328952Y-54554380D01*
X32424190Y-54554380D01*
X32567047Y-54506761D01*
X32662285Y-54411523D01*
X32709904Y-54316285D01*
X32757523Y-54125809D01*
X32757523Y-53982952D01*
X32709904Y-53792476D01*
X32662285Y-53697238D01*
X32567047Y-53602000D01*
X32424190Y-53554380D01*
X32328952Y-53554380D01*
X32186095Y-53602000D01*
X32138476Y-53649619D01*
X31567047Y-54554380D02*
X31662285Y-54506761D01*
X31709904Y-54459142D01*
X31757523Y-54363904D01*
X31757523Y-54078190D01*
X31709904Y-53982952D01*
X31662285Y-53935333D01*
X31567047Y-53887714D01*
X31424190Y-53887714D01*
X31328952Y-53935333D01*
X31281333Y-53982952D01*
X31233714Y-54078190D01*
X31233714Y-54363904D01*
X31281333Y-54459142D01*
X31328952Y-54506761D01*
X31424190Y-54554380D01*
X31567047Y-54554380D01*
X30805142Y-54554380D02*
X30805142Y-53887714D01*
X30805142Y-53554380D02*
X30852761Y-53602000D01*
X30805142Y-53649619D01*
X30757523Y-53602000D01*
X30805142Y-53554380D01*
X30805142Y-53649619D01*
X30328952Y-53887714D02*
X30328952Y-54554380D01*
X30328952Y-53982952D02*
X30281333Y-53935333D01*
X30186095Y-53887714D01*
X30043238Y-53887714D01*
X29948000Y-53935333D01*
X29900380Y-54030571D01*
X29900380Y-54554380D01*
X28090857Y-54459142D02*
X28138476Y-54506761D01*
X28281333Y-54554380D01*
X28376571Y-54554380D01*
X28519428Y-54506761D01*
X28614666Y-54411523D01*
X28662285Y-54316285D01*
X28709904Y-54125809D01*
X28709904Y-53982952D01*
X28662285Y-53792476D01*
X28614666Y-53697238D01*
X28519428Y-53602000D01*
X28376571Y-53554380D01*
X28281333Y-53554380D01*
X28138476Y-53602000D01*
X28090857Y-53649619D01*
X27281333Y-54506761D02*
X27376571Y-54554380D01*
X27567047Y-54554380D01*
X27662285Y-54506761D01*
X27709904Y-54411523D01*
X27709904Y-54030571D01*
X27662285Y-53935333D01*
X27567047Y-53887714D01*
X27376571Y-53887714D01*
X27281333Y-53935333D01*
X27233714Y-54030571D01*
X27233714Y-54125809D01*
X27709904Y-54221047D01*
X26662285Y-54554380D02*
X26757523Y-54506761D01*
X26805142Y-54411523D01*
X26805142Y-53554380D01*
X26138476Y-54554380D02*
X26233714Y-54506761D01*
X26281333Y-54411523D01*
X26281333Y-53554380D01*
X24662285Y-54030571D02*
X24519428Y-54078190D01*
X24471809Y-54125809D01*
X24424190Y-54221047D01*
X24424190Y-54363904D01*
X24471809Y-54459142D01*
X24519428Y-54506761D01*
X24614666Y-54554380D01*
X24995619Y-54554380D01*
X24995619Y-53554380D01*
X24662285Y-53554380D01*
X24567047Y-53602000D01*
X24519428Y-53649619D01*
X24471809Y-53744857D01*
X24471809Y-53840095D01*
X24519428Y-53935333D01*
X24567047Y-53982952D01*
X24662285Y-54030571D01*
X24995619Y-54030571D01*
X23567047Y-54554380D02*
X23567047Y-54030571D01*
X23614666Y-53935333D01*
X23709904Y-53887714D01*
X23900380Y-53887714D01*
X23995619Y-53935333D01*
X23567047Y-54506761D02*
X23662285Y-54554380D01*
X23900380Y-54554380D01*
X23995619Y-54506761D01*
X24043238Y-54411523D01*
X24043238Y-54316285D01*
X23995619Y-54221047D01*
X23900380Y-54173428D01*
X23662285Y-54173428D01*
X23567047Y-54125809D01*
X23233714Y-53887714D02*
X22852761Y-53887714D01*
X23090857Y-53554380D02*
X23090857Y-54411523D01*
X23043238Y-54506761D01*
X22948000Y-54554380D01*
X22852761Y-54554380D01*
X22662285Y-53887714D02*
X22281333Y-53887714D01*
X22519428Y-53554380D02*
X22519428Y-54411523D01*
X22471809Y-54506761D01*
X22376571Y-54554380D01*
X22281333Y-54554380D01*
X21567047Y-54506761D02*
X21662285Y-54554380D01*
X21852761Y-54554380D01*
X21948000Y-54506761D01*
X21995619Y-54411523D01*
X21995619Y-54030571D01*
X21948000Y-53935333D01*
X21852761Y-53887714D01*
X21662285Y-53887714D01*
X21567047Y-53935333D01*
X21519428Y-54030571D01*
X21519428Y-54125809D01*
X21995619Y-54221047D01*
X21090857Y-54554380D02*
X21090857Y-53887714D01*
X21090857Y-54078190D02*
X21043238Y-53982952D01*
X20995619Y-53935333D01*
X20900380Y-53887714D01*
X20805142Y-53887714D01*
X20567047Y-53887714D02*
X20328952Y-54554380D01*
X20090857Y-53887714D02*
X20328952Y-54554380D01*
X20424190Y-54792476D01*
X20471809Y-54840095D01*
X20567047Y-54887714D01*
X38988952Y-56205428D02*
X38227047Y-56205428D01*
X18795952Y-56586428D02*
X18034047Y-56586428D01*
X18415000Y-56967380D02*
X18415000Y-56205476D01*
D11*
X80727857Y-64808571D02*
X80727857Y-63308571D01*
X80227857Y-64380000D01*
X79727857Y-63308571D01*
X79727857Y-64808571D01*
X78442142Y-64737142D02*
X78585000Y-64808571D01*
X78870714Y-64808571D01*
X79013571Y-64737142D01*
X79085000Y-64594285D01*
X79085000Y-64022857D01*
X79013571Y-63880000D01*
X78870714Y-63808571D01*
X78585000Y-63808571D01*
X78442142Y-63880000D01*
X78370714Y-64022857D01*
X78370714Y-64165714D01*
X79085000Y-64308571D01*
X77727857Y-64808571D02*
X77727857Y-63808571D01*
X77727857Y-64094285D02*
X77656428Y-63951428D01*
X77585000Y-63880000D01*
X77442142Y-63808571D01*
X77299285Y-63808571D01*
X76799285Y-64808571D02*
X76799285Y-63808571D01*
X76799285Y-64094285D02*
X76727857Y-63951428D01*
X76656428Y-63880000D01*
X76513571Y-63808571D01*
X76370714Y-63808571D01*
X76013571Y-63808571D02*
X75656428Y-64808571D01*
X75299285Y-63808571D02*
X75656428Y-64808571D01*
X75799285Y-65165714D01*
X75870714Y-65237142D01*
X76013571Y-65308571D01*
X72727857Y-64665714D02*
X72799285Y-64737142D01*
X73013571Y-64808571D01*
X73156428Y-64808571D01*
X73370714Y-64737142D01*
X73513571Y-64594285D01*
X73585000Y-64451428D01*
X73656428Y-64165714D01*
X73656428Y-63951428D01*
X73585000Y-63665714D01*
X73513571Y-63522857D01*
X73370714Y-63380000D01*
X73156428Y-63308571D01*
X73013571Y-63308571D01*
X72799285Y-63380000D01*
X72727857Y-63451428D01*
X72085000Y-64808571D02*
X72085000Y-63308571D01*
X71442142Y-64808571D02*
X71442142Y-64022857D01*
X71513571Y-63880000D01*
X71656428Y-63808571D01*
X71870714Y-63808571D01*
X72013571Y-63880000D01*
X72085000Y-63951428D01*
X70727857Y-64808571D02*
X70727857Y-63808571D01*
X70727857Y-64094285D02*
X70656428Y-63951428D01*
X70585000Y-63880000D01*
X70442142Y-63808571D01*
X70299285Y-63808571D01*
X69799285Y-64808571D02*
X69799285Y-63808571D01*
X69799285Y-63308571D02*
X69870714Y-63380000D01*
X69799285Y-63451428D01*
X69727857Y-63380000D01*
X69799285Y-63308571D01*
X69799285Y-63451428D01*
X69156428Y-64737142D02*
X69013571Y-64808571D01*
X68727857Y-64808571D01*
X68585000Y-64737142D01*
X68513571Y-64594285D01*
X68513571Y-64522857D01*
X68585000Y-64380000D01*
X68727857Y-64308571D01*
X68942142Y-64308571D01*
X69085000Y-64237142D01*
X69156428Y-64094285D01*
X69156428Y-64022857D01*
X69085000Y-63880000D01*
X68942142Y-63808571D01*
X68727857Y-63808571D01*
X68585000Y-63880000D01*
X68085000Y-63808571D02*
X67513571Y-63808571D01*
X67870714Y-63308571D02*
X67870714Y-64594285D01*
X67799285Y-64737142D01*
X67656428Y-64808571D01*
X67513571Y-64808571D01*
X67013571Y-64808571D02*
X67013571Y-63808571D01*
X67013571Y-63951428D02*
X66942142Y-63880000D01*
X66799285Y-63808571D01*
X66585000Y-63808571D01*
X66442142Y-63880000D01*
X66370714Y-64022857D01*
X66370714Y-64808571D01*
X66370714Y-64022857D02*
X66299285Y-63880000D01*
X66156428Y-63808571D01*
X65942142Y-63808571D01*
X65799285Y-63880000D01*
X65727857Y-64022857D01*
X65727857Y-64808571D01*
X64370714Y-64808571D02*
X64370714Y-64022857D01*
X64442142Y-63880000D01*
X64585000Y-63808571D01*
X64870714Y-63808571D01*
X65013571Y-63880000D01*
X64370714Y-64737142D02*
X64513571Y-64808571D01*
X64870714Y-64808571D01*
X65013571Y-64737142D01*
X65085000Y-64594285D01*
X65085000Y-64451428D01*
X65013571Y-64308571D01*
X64870714Y-64237142D01*
X64513571Y-64237142D01*
X64370714Y-64165714D01*
X63727857Y-64737142D02*
X63585000Y-64808571D01*
X63299285Y-64808571D01*
X63156428Y-64737142D01*
X63085000Y-64594285D01*
X63085000Y-64522857D01*
X63156428Y-64380000D01*
X63299285Y-64308571D01*
X63513571Y-64308571D01*
X63656428Y-64237142D01*
X63727857Y-64094285D01*
X63727857Y-64022857D01*
X63656428Y-63880000D01*
X63513571Y-63808571D01*
X63299285Y-63808571D01*
X63156428Y-63880000D01*
X62442142Y-64665714D02*
X62370714Y-64737142D01*
X62442142Y-64808571D01*
X62513571Y-64737142D01*
X62442142Y-64665714D01*
X62442142Y-64808571D01*
X62442142Y-64237142D02*
X62513571Y-63380000D01*
X62442142Y-63308571D01*
X62370714Y-63380000D01*
X62442142Y-64237142D01*
X62442142Y-63308571D01*
X79870714Y-67215714D02*
X79942142Y-67287142D01*
X80156428Y-67358571D01*
X80299285Y-67358571D01*
X80513571Y-67287142D01*
X80656428Y-67144285D01*
X80727857Y-67001428D01*
X80799285Y-66715714D01*
X80799285Y-66501428D01*
X80727857Y-66215714D01*
X80656428Y-66072857D01*
X80513571Y-65930000D01*
X80299285Y-65858571D01*
X80156428Y-65858571D01*
X79942142Y-65930000D01*
X79870714Y-66001428D01*
X79227857Y-67358571D02*
X79227857Y-65858571D01*
X78585000Y-67358571D02*
X78585000Y-66572857D01*
X78656428Y-66430000D01*
X78799285Y-66358571D01*
X79013571Y-66358571D01*
X79156428Y-66430000D01*
X79227857Y-66501428D01*
X77870714Y-67358571D02*
X77870714Y-66358571D01*
X77870714Y-66644285D02*
X77799285Y-66501428D01*
X77727857Y-66430000D01*
X77585000Y-66358571D01*
X77442142Y-66358571D01*
X76942142Y-67358571D02*
X76942142Y-66358571D01*
X76942142Y-65858571D02*
X77013571Y-65930000D01*
X76942142Y-66001428D01*
X76870714Y-65930000D01*
X76942142Y-65858571D01*
X76942142Y-66001428D01*
X76299285Y-67287142D02*
X76156428Y-67358571D01*
X75870714Y-67358571D01*
X75727857Y-67287142D01*
X75656428Y-67144285D01*
X75656428Y-67072857D01*
X75727857Y-66930000D01*
X75870714Y-66858571D01*
X76085000Y-66858571D01*
X76227857Y-66787142D01*
X76299285Y-66644285D01*
X76299285Y-66572857D01*
X76227857Y-66430000D01*
X76085000Y-66358571D01*
X75870714Y-66358571D01*
X75727857Y-66430000D01*
X73442142Y-65858571D02*
X73442142Y-66930000D01*
X73513571Y-67144285D01*
X73656428Y-67287142D01*
X73870714Y-67358571D01*
X74013571Y-67358571D01*
X72513571Y-67358571D02*
X72656428Y-67287142D01*
X72727857Y-67215714D01*
X72799285Y-67072857D01*
X72799285Y-66644285D01*
X72727857Y-66501428D01*
X72656428Y-66430000D01*
X72513571Y-66358571D01*
X72299285Y-66358571D01*
X72156428Y-66430000D01*
X72085000Y-66501428D01*
X72013571Y-66644285D01*
X72013571Y-67072857D01*
X72085000Y-67215714D01*
X72156428Y-67287142D01*
X72299285Y-67358571D01*
X72513571Y-67358571D01*
X71370714Y-67358571D02*
X71370714Y-65858571D01*
X70727857Y-67358571D02*
X70727857Y-66572857D01*
X70799285Y-66430000D01*
X70942142Y-66358571D01*
X71156428Y-66358571D01*
X71299285Y-66430000D01*
X71370714Y-66501428D01*
X70013571Y-66358571D02*
X70013571Y-67358571D01*
X70013571Y-66501428D02*
X69942142Y-66430000D01*
X69799285Y-66358571D01*
X69585000Y-66358571D01*
X69442142Y-66430000D01*
X69370714Y-66572857D01*
X69370714Y-67358571D01*
X68727857Y-67287142D02*
X68585000Y-67358571D01*
X68299285Y-67358571D01*
X68156428Y-67287142D01*
X68085000Y-67144285D01*
X68085000Y-67072857D01*
X68156428Y-66930000D01*
X68299285Y-66858571D01*
X68513571Y-66858571D01*
X68656428Y-66787142D01*
X68727857Y-66644285D01*
X68727857Y-66572857D01*
X68656428Y-66430000D01*
X68513571Y-66358571D01*
X68299285Y-66358571D01*
X68156428Y-66430000D01*
X67656428Y-66358571D02*
X67085000Y-66358571D01*
X67442142Y-65858571D02*
X67442142Y-67144285D01*
X67370714Y-67287142D01*
X67227857Y-67358571D01*
X67085000Y-67358571D01*
X66370714Y-67358571D02*
X66513571Y-67287142D01*
X66585000Y-67215714D01*
X66656428Y-67072857D01*
X66656428Y-66644285D01*
X66585000Y-66501428D01*
X66513571Y-66430000D01*
X66370714Y-66358571D01*
X66156428Y-66358571D01*
X66013571Y-66430000D01*
X65942142Y-66501428D01*
X65870714Y-66644285D01*
X65870714Y-67072857D01*
X65942142Y-67215714D01*
X66013571Y-67287142D01*
X66156428Y-67358571D01*
X66370714Y-67358571D01*
X65227857Y-66358571D02*
X65227857Y-67358571D01*
X65227857Y-66501428D02*
X65156428Y-66430000D01*
X65013571Y-66358571D01*
X64799285Y-66358571D01*
X64656428Y-66430000D01*
X64585000Y-66572857D01*
X64585000Y-67358571D01*
X62799285Y-66001428D02*
X62727857Y-65930000D01*
X62585000Y-65858571D01*
X62227857Y-65858571D01*
X62085000Y-65930000D01*
X62013571Y-66001428D01*
X61942142Y-66144285D01*
X61942142Y-66287142D01*
X62013571Y-66501428D01*
X62870714Y-67358571D01*
X61942142Y-67358571D01*
X61013571Y-65858571D02*
X60870714Y-65858571D01*
X60727857Y-65930000D01*
X60656428Y-66001428D01*
X60585000Y-66144285D01*
X60513571Y-66430000D01*
X60513571Y-66787142D01*
X60585000Y-67072857D01*
X60656428Y-67215714D01*
X60727857Y-67287142D01*
X60870714Y-67358571D01*
X61013571Y-67358571D01*
X61156428Y-67287142D01*
X61227857Y-67215714D01*
X61299285Y-67072857D01*
X61370714Y-66787142D01*
X61370714Y-66430000D01*
X61299285Y-66144285D01*
X61227857Y-66001428D01*
X61156428Y-65930000D01*
X61013571Y-65858571D01*
X59942142Y-66001428D02*
X59870714Y-65930000D01*
X59727857Y-65858571D01*
X59370714Y-65858571D01*
X59227857Y-65930000D01*
X59156428Y-66001428D01*
X59085000Y-66144285D01*
X59085000Y-66287142D01*
X59156428Y-66501428D01*
X60013571Y-67358571D01*
X59085000Y-67358571D01*
X58156428Y-65858571D02*
X58013571Y-65858571D01*
X57870714Y-65930000D01*
X57799285Y-66001428D01*
X57727857Y-66144285D01*
X57656428Y-66430000D01*
X57656428Y-66787142D01*
X57727857Y-67072857D01*
X57799285Y-67215714D01*
X57870714Y-67287142D01*
X58013571Y-67358571D01*
X58156428Y-67358571D01*
X58299285Y-67287142D01*
X58370714Y-67215714D01*
X58442142Y-67072857D01*
X58513571Y-66787142D01*
X58513571Y-66430000D01*
X58442142Y-66144285D01*
X58370714Y-66001428D01*
X58299285Y-65930000D01*
X58156428Y-65858571D01*
X76921523Y-59697714D02*
X77159619Y-59935809D01*
X77873904Y-60173904D01*
X78350095Y-60173904D01*
X79064380Y-59935809D01*
X79540571Y-59459619D01*
X79778666Y-58983428D01*
X80016761Y-58031047D01*
X80016761Y-57316761D01*
X79778666Y-56364380D01*
X79540571Y-55888190D01*
X79064380Y-55412000D01*
X78350095Y-55173904D01*
X77873904Y-55173904D01*
X77159619Y-55412000D01*
X76921523Y-55650095D01*
X75016761Y-58745333D02*
X72635809Y-58745333D01*
X75492952Y-60173904D02*
X73826285Y-55173904D01*
X72159619Y-60173904D01*
X70969142Y-55173904D02*
X69778666Y-60173904D01*
X68826285Y-56602476D01*
X67873904Y-60173904D01*
X66683428Y-55173904D01*
X65254857Y-55173904D02*
X64064380Y-60173904D01*
X63112000Y-56602476D01*
X62159619Y-60173904D01*
X60969142Y-55173904D01*
X24002857Y-27825000D02*
X24145714Y-27753571D01*
X24360000Y-27753571D01*
X24574285Y-27825000D01*
X24717142Y-27967857D01*
X24788571Y-28110714D01*
X24860000Y-28396428D01*
X24860000Y-28610714D01*
X24788571Y-28896428D01*
X24717142Y-29039285D01*
X24574285Y-29182142D01*
X24360000Y-29253571D01*
X24217142Y-29253571D01*
X24002857Y-29182142D01*
X23931428Y-29110714D01*
X23931428Y-28610714D01*
X24217142Y-28610714D01*
X23288571Y-29253571D02*
X23288571Y-27753571D01*
X22431428Y-29253571D01*
X22431428Y-27753571D01*
X21717142Y-29253571D02*
X21717142Y-27753571D01*
X21360000Y-27753571D01*
X21145714Y-27825000D01*
X21002857Y-27967857D01*
X20931428Y-28110714D01*
X20860000Y-28396428D01*
X20860000Y-28610714D01*
X20931428Y-28896428D01*
X21002857Y-29039285D01*
X21145714Y-29182142D01*
X21360000Y-29253571D01*
X21717142Y-29253571D01*
X24645714Y-30293571D02*
X23717142Y-30293571D01*
X24217142Y-30865000D01*
X24002857Y-30865000D01*
X23860000Y-30936428D01*
X23788571Y-31007857D01*
X23717142Y-31150714D01*
X23717142Y-31507857D01*
X23788571Y-31650714D01*
X23860000Y-31722142D01*
X24002857Y-31793571D01*
X24431428Y-31793571D01*
X24574285Y-31722142D01*
X24645714Y-31650714D01*
X23217142Y-30793571D02*
X22860000Y-31793571D01*
X22502857Y-30793571D01*
X22074285Y-30293571D02*
X21145714Y-30293571D01*
X21645714Y-30865000D01*
X21431428Y-30865000D01*
X21288571Y-30936428D01*
X21217142Y-31007857D01*
X21145714Y-31150714D01*
X21145714Y-31507857D01*
X21217142Y-31650714D01*
X21288571Y-31722142D01*
X21431428Y-31793571D01*
X21860000Y-31793571D01*
X22002857Y-31722142D01*
X22074285Y-31650714D01*
D12*
%TO.C,R1*%
X36936000Y-37969436D02*
X36936000Y-39173564D01*
X38756000Y-37969436D02*
X38756000Y-39173564D01*
%TO.C,SW1*%
X21795000Y-43415000D02*
X21795000Y-36595000D01*
X17575000Y-43415000D02*
X17575000Y-36595000D01*
X21795000Y-43415000D02*
X20485000Y-43415000D01*
X18885000Y-43415000D02*
X17575000Y-43415000D01*
X21795000Y-36595000D02*
X20485000Y-36595000D01*
X18885000Y-36595000D02*
X17575000Y-36595000D01*
X22035000Y-43655000D02*
X22035000Y-42272000D01*
X22035000Y-43655000D02*
X20652000Y-43655000D01*
X20320000Y-41815000D02*
X19050000Y-41815000D01*
X19050000Y-41815000D02*
X19050000Y-38195000D01*
X19050000Y-38195000D02*
X20320000Y-38195000D01*
X20320000Y-38195000D02*
X20320000Y-41815000D01*
X20200000Y-41815000D02*
X20200000Y-40608333D01*
X20080000Y-41815000D02*
X20080000Y-40608333D01*
X19960000Y-41815000D02*
X19960000Y-40608333D01*
X19840000Y-41815000D02*
X19840000Y-40608333D01*
X19720000Y-41815000D02*
X19720000Y-40608333D01*
X19600000Y-41815000D02*
X19600000Y-40608333D01*
X19480000Y-41815000D02*
X19480000Y-40608333D01*
X19360000Y-41815000D02*
X19360000Y-40608333D01*
X19240000Y-41815000D02*
X19240000Y-40608333D01*
X19120000Y-41815000D02*
X19120000Y-40608333D01*
X20320000Y-40608333D02*
X19050000Y-40608333D01*
%TO.C,J1*%
X20380000Y-29845000D02*
X17720000Y-29845000D01*
X20380000Y-29845000D02*
X20380000Y-32445000D01*
X20380000Y-32445000D02*
X17720000Y-32445000D01*
X17720000Y-29845000D02*
X17720000Y-32445000D01*
X17720000Y-27245000D02*
X17720000Y-28575000D01*
X19050000Y-27245000D02*
X17720000Y-27245000D01*
%TO.C,DRIGHT1*%
X78700000Y-38100000D02*
G75*
G03*
X78700000Y-38100000I-2500000J0D01*
G01*
X73640000Y-39645000D02*
X73640000Y-36555000D01*
X79190000Y-38100462D02*
G75*
G03*
X73640000Y-36555170I-2990000J462D01*
G01*
X79190000Y-38099538D02*
G75*
G02*
X73640000Y-39644830I-2990000J-462D01*
G01*
%TO.C,DLEFT1*%
X45045000Y-36830000D02*
G75*
G03*
X45045000Y-36830000I-2500000J0D01*
G01*
X39985000Y-38375000D02*
X39985000Y-35285000D01*
X45535000Y-36830462D02*
G75*
G03*
X39985000Y-35285170I-2990000J462D01*
G01*
X45535000Y-36829538D02*
G75*
G02*
X39985000Y-38374830I-2990000J-462D01*
G01*
%TO.C,R1*%
D10*
X36478380Y-38404833D02*
X36002190Y-38071500D01*
X36478380Y-37833404D02*
X35478380Y-37833404D01*
X35478380Y-38214357D01*
X35526000Y-38309595D01*
X35573619Y-38357214D01*
X35668857Y-38404833D01*
X35811714Y-38404833D01*
X35906952Y-38357214D01*
X35954571Y-38309595D01*
X36002190Y-38214357D01*
X36002190Y-37833404D01*
X36478380Y-39357214D02*
X36478380Y-38785785D01*
X36478380Y-39071500D02*
X35478380Y-39071500D01*
X35621238Y-38976261D01*
X35716476Y-38881023D01*
X35764095Y-38785785D01*
%TO.C,SW1*%
X23199761Y-38671666D02*
X23247380Y-38814523D01*
X23247380Y-39052619D01*
X23199761Y-39147857D01*
X23152142Y-39195476D01*
X23056904Y-39243095D01*
X22961666Y-39243095D01*
X22866428Y-39195476D01*
X22818809Y-39147857D01*
X22771190Y-39052619D01*
X22723571Y-38862142D01*
X22675952Y-38766904D01*
X22628333Y-38719285D01*
X22533095Y-38671666D01*
X22437857Y-38671666D01*
X22342619Y-38719285D01*
X22295000Y-38766904D01*
X22247380Y-38862142D01*
X22247380Y-39100238D01*
X22295000Y-39243095D01*
X22247380Y-39576428D02*
X23247380Y-39814523D01*
X22533095Y-40005000D01*
X23247380Y-40195476D01*
X22247380Y-40433571D01*
X23247380Y-41338333D02*
X23247380Y-40766904D01*
X23247380Y-41052619D02*
X22247380Y-41052619D01*
X22390238Y-40957380D01*
X22485476Y-40862142D01*
X22533095Y-40766904D01*
%TO.C,DRIGHT1*%
X79080952Y-42512380D02*
X79080952Y-41512380D01*
X78842857Y-41512380D01*
X78700000Y-41560000D01*
X78604761Y-41655238D01*
X78557142Y-41750476D01*
X78509523Y-41940952D01*
X78509523Y-42083809D01*
X78557142Y-42274285D01*
X78604761Y-42369523D01*
X78700000Y-42464761D01*
X78842857Y-42512380D01*
X79080952Y-42512380D01*
X77509523Y-42512380D02*
X77842857Y-42036190D01*
X78080952Y-42512380D02*
X78080952Y-41512380D01*
X77700000Y-41512380D01*
X77604761Y-41560000D01*
X77557142Y-41607619D01*
X77509523Y-41702857D01*
X77509523Y-41845714D01*
X77557142Y-41940952D01*
X77604761Y-41988571D01*
X77700000Y-42036190D01*
X78080952Y-42036190D01*
X77080952Y-42512380D02*
X77080952Y-41512380D01*
X76080952Y-41560000D02*
X76176190Y-41512380D01*
X76319047Y-41512380D01*
X76461904Y-41560000D01*
X76557142Y-41655238D01*
X76604761Y-41750476D01*
X76652380Y-41940952D01*
X76652380Y-42083809D01*
X76604761Y-42274285D01*
X76557142Y-42369523D01*
X76461904Y-42464761D01*
X76319047Y-42512380D01*
X76223809Y-42512380D01*
X76080952Y-42464761D01*
X76033333Y-42417142D01*
X76033333Y-42083809D01*
X76223809Y-42083809D01*
X75604761Y-42512380D02*
X75604761Y-41512380D01*
X75604761Y-41988571D02*
X75033333Y-41988571D01*
X75033333Y-42512380D02*
X75033333Y-41512380D01*
X74700000Y-41512380D02*
X74128571Y-41512380D01*
X74414285Y-42512380D02*
X74414285Y-41512380D01*
X73271428Y-42512380D02*
X73842857Y-42512380D01*
X73557142Y-42512380D02*
X73557142Y-41512380D01*
X73652380Y-41655238D01*
X73747619Y-41750476D01*
X73842857Y-41798095D01*
%TO.C,DLEFT1*%
X44949761Y-41242380D02*
X44949761Y-40242380D01*
X44711666Y-40242380D01*
X44568809Y-40290000D01*
X44473571Y-40385238D01*
X44425952Y-40480476D01*
X44378333Y-40670952D01*
X44378333Y-40813809D01*
X44425952Y-41004285D01*
X44473571Y-41099523D01*
X44568809Y-41194761D01*
X44711666Y-41242380D01*
X44949761Y-41242380D01*
X43473571Y-41242380D02*
X43949761Y-41242380D01*
X43949761Y-40242380D01*
X43140238Y-40718571D02*
X42806904Y-40718571D01*
X42664047Y-41242380D02*
X43140238Y-41242380D01*
X43140238Y-40242380D01*
X42664047Y-40242380D01*
X41902142Y-40718571D02*
X42235476Y-40718571D01*
X42235476Y-41242380D02*
X42235476Y-40242380D01*
X41759285Y-40242380D01*
X41521190Y-40242380D02*
X40949761Y-40242380D01*
X41235476Y-41242380D02*
X41235476Y-40242380D01*
X40092619Y-41242380D02*
X40664047Y-41242380D01*
X40378333Y-41242380D02*
X40378333Y-40242380D01*
X40473571Y-40385238D01*
X40568809Y-40480476D01*
X40664047Y-40528095D01*
%TD*%
M02*
