%TF.GenerationSoftware,KiCad,Pcbnew,5.1.6-c6e7f7d~87~ubuntu19.10.1*%
%TF.CreationDate,2020-12-09T03:37:03-08:00*%
%TF.ProjectId,robocrob,726f626f-6372-46f6-922e-6b696361645f,rev?*%
%TF.SameCoordinates,Original*%
%TF.FileFunction,Legend,Top*%
%TF.FilePolarity,Positive*%
%FSLAX46Y46*%
G04 Gerber Fmt 4.6, Leading zero omitted, Abs format (unit mm)*
G04 Created by KiCad (PCBNEW 5.1.6-c6e7f7d~87~ubuntu19.10.1) date 2020-12-09 03:37:03*
%MOMM*%
%LPD*%
G01*
G04 APERTURE LIST*
%ADD10C,0.300000*%
%ADD11C,1.211414*%
%ADD12C,0.332145*%
%ADD13C,0.483092*%
G04 APERTURE END LIST*
D10*
X54476428Y-66575714D02*
X54405000Y-66647142D01*
X54190714Y-66718571D01*
X54047857Y-66718571D01*
X53833571Y-66647142D01*
X53690714Y-66504285D01*
X53619285Y-66361428D01*
X53547857Y-66075714D01*
X53547857Y-65861428D01*
X53619285Y-65575714D01*
X53690714Y-65432857D01*
X53833571Y-65290000D01*
X54047857Y-65218571D01*
X54190714Y-65218571D01*
X54405000Y-65290000D01*
X54476428Y-65361428D01*
X55976428Y-66718571D02*
X55476428Y-66004285D01*
X55119285Y-66718571D02*
X55119285Y-65218571D01*
X55690714Y-65218571D01*
X55833571Y-65290000D01*
X55905000Y-65361428D01*
X55976428Y-65504285D01*
X55976428Y-65718571D01*
X55905000Y-65861428D01*
X55833571Y-65932857D01*
X55690714Y-66004285D01*
X55119285Y-66004285D01*
X56905000Y-65218571D02*
X57190714Y-65218571D01*
X57333571Y-65290000D01*
X57476428Y-65432857D01*
X57547857Y-65718571D01*
X57547857Y-66218571D01*
X57476428Y-66504285D01*
X57333571Y-66647142D01*
X57190714Y-66718571D01*
X56905000Y-66718571D01*
X56762142Y-66647142D01*
X56619285Y-66504285D01*
X56547857Y-66218571D01*
X56547857Y-65718571D01*
X56619285Y-65432857D01*
X56762142Y-65290000D01*
X56905000Y-65218571D01*
X58047857Y-65218571D02*
X58405000Y-66718571D01*
X58690714Y-65647142D01*
X58976428Y-66718571D01*
X59333571Y-65218571D01*
X61333571Y-65218571D02*
X61619285Y-65218571D01*
X61762142Y-65290000D01*
X61905000Y-65432857D01*
X61976428Y-65718571D01*
X61976428Y-66218571D01*
X61905000Y-66504285D01*
X61762142Y-66647142D01*
X61619285Y-66718571D01*
X61333571Y-66718571D01*
X61190714Y-66647142D01*
X61047857Y-66504285D01*
X60976428Y-66218571D01*
X60976428Y-65718571D01*
X61047857Y-65432857D01*
X61190714Y-65290000D01*
X61333571Y-65218571D01*
X63119285Y-65932857D02*
X62619285Y-65932857D01*
X62619285Y-66718571D02*
X62619285Y-65218571D01*
X63333571Y-65218571D01*
X65476428Y-65218571D02*
X65476428Y-66290000D01*
X65405000Y-66504285D01*
X65262142Y-66647142D01*
X65047857Y-66718571D01*
X64905000Y-66718571D01*
X66190714Y-65218571D02*
X66190714Y-66432857D01*
X66262142Y-66575714D01*
X66333571Y-66647142D01*
X66476428Y-66718571D01*
X66762142Y-66718571D01*
X66905000Y-66647142D01*
X66976428Y-66575714D01*
X67047857Y-66432857D01*
X67047857Y-65218571D01*
X67762142Y-66718571D02*
X67762142Y-65218571D01*
X68119285Y-65218571D01*
X68333571Y-65290000D01*
X68476428Y-65432857D01*
X68547857Y-65575714D01*
X68619285Y-65861428D01*
X68619285Y-66075714D01*
X68547857Y-66361428D01*
X68476428Y-66504285D01*
X68333571Y-66647142D01*
X68119285Y-66718571D01*
X67762142Y-66718571D01*
X70047857Y-65290000D02*
X69905000Y-65218571D01*
X69690714Y-65218571D01*
X69476428Y-65290000D01*
X69333571Y-65432857D01*
X69262142Y-65575714D01*
X69190714Y-65861428D01*
X69190714Y-66075714D01*
X69262142Y-66361428D01*
X69333571Y-66504285D01*
X69476428Y-66647142D01*
X69690714Y-66718571D01*
X69833571Y-66718571D01*
X70047857Y-66647142D01*
X70119285Y-66575714D01*
X70119285Y-66075714D01*
X69833571Y-66075714D01*
X70762142Y-65932857D02*
X71262142Y-65932857D01*
X71476428Y-66718571D02*
X70762142Y-66718571D01*
X70762142Y-65218571D01*
X71476428Y-65218571D01*
X72119285Y-66718571D02*
X72119285Y-65218571D01*
X72619285Y-66290000D01*
X73119285Y-65218571D01*
X73119285Y-66718571D01*
X73833571Y-65932857D02*
X74333571Y-65932857D01*
X74547857Y-66718571D02*
X73833571Y-66718571D01*
X73833571Y-65218571D01*
X74547857Y-65218571D01*
X75190714Y-66718571D02*
X75190714Y-65218571D01*
X76047857Y-66718571D01*
X76047857Y-65218571D01*
X76547857Y-65218571D02*
X77405000Y-65218571D01*
X76976428Y-66718571D02*
X76976428Y-65218571D01*
D11*
%TO.C,svg2mod*%
X16843864Y-26099034D02*
X16861643Y-26098926D01*
X16861643Y-26098926D02*
X16913809Y-26098571D01*
X16913809Y-26098571D02*
X16998603Y-26097921D01*
X16998603Y-26097921D02*
X17114263Y-26096927D01*
X17114263Y-26096927D02*
X17259032Y-26095543D01*
X17259032Y-26095543D02*
X17431149Y-26093719D01*
X17431149Y-26093719D02*
X17628856Y-26091409D01*
X17628856Y-26091409D02*
X17850392Y-26088563D01*
X17850392Y-26088563D02*
X18093999Y-26085134D01*
X18093999Y-26085134D02*
X18357917Y-26081074D01*
X18357917Y-26081074D02*
X18640386Y-26076336D01*
X18640386Y-26076336D02*
X18939647Y-26070870D01*
X18939647Y-26070870D02*
X19253941Y-26064630D01*
X19253941Y-26064630D02*
X19581508Y-26057567D01*
X19581508Y-26057567D02*
X19920589Y-26049633D01*
X19920589Y-26049633D02*
X20269424Y-26040780D01*
X20269424Y-26040780D02*
X20626254Y-26030961D01*
X20626254Y-26030961D02*
X20989320Y-26020127D01*
X20989320Y-26020127D02*
X21356862Y-26008230D01*
X21356862Y-26008230D02*
X21727120Y-25995223D01*
X21727120Y-25995223D02*
X22098335Y-25981057D01*
X22098335Y-25981057D02*
X22468748Y-25965685D01*
X22468748Y-25965685D02*
X22836600Y-25949059D01*
X22836600Y-25949059D02*
X23200130Y-25931130D01*
X23200130Y-25931130D02*
X23557580Y-25911850D01*
X23557580Y-25911850D02*
X23907190Y-25891172D01*
X23907190Y-25891172D02*
X24247200Y-25869048D01*
X24247200Y-25869048D02*
X24575852Y-25845430D01*
X24575852Y-25845430D02*
X24891385Y-25820270D01*
X24891385Y-25820270D02*
X25192040Y-25793519D01*
X25192040Y-25793519D02*
X25476058Y-25765130D01*
X25476058Y-25765130D02*
X25741680Y-25735055D01*
X25741680Y-25735055D02*
X25987146Y-25703246D01*
X25987146Y-25703246D02*
X26210696Y-25669655D01*
X26210696Y-25669655D02*
X26410572Y-25634234D01*
X26410572Y-25634234D02*
X26585013Y-25596935D01*
X26585013Y-25596935D02*
X26732260Y-25557710D01*
X26732260Y-25557710D02*
X26850554Y-25516511D01*
X26850554Y-25516511D02*
X26938135Y-25473291D01*
X26938135Y-25473291D02*
X26993245Y-25428001D01*
X26993245Y-25428001D02*
X27090579Y-25313194D01*
X27090579Y-25313194D02*
X27195271Y-25195442D01*
X27195271Y-25195442D02*
X27307159Y-25074869D01*
X27307159Y-25074869D02*
X27426077Y-24951602D01*
X27426077Y-24951602D02*
X27551862Y-24825768D01*
X27551862Y-24825768D02*
X27684350Y-24697493D01*
X27684350Y-24697493D02*
X27823378Y-24566904D01*
X27823378Y-24566904D02*
X27968780Y-24434128D01*
X27968780Y-24434128D02*
X28120394Y-24299290D01*
X28120394Y-24299290D02*
X28278055Y-24162518D01*
X28278055Y-24162518D02*
X28441600Y-24023938D01*
X28441600Y-24023938D02*
X28610864Y-23883675D01*
X28610864Y-23883675D02*
X28785684Y-23741858D01*
X28785684Y-23741858D02*
X28965896Y-23598612D01*
X28965896Y-23598612D02*
X29151335Y-23454064D01*
X29151335Y-23454064D02*
X29341839Y-23308341D01*
X29341839Y-23308341D02*
X29537242Y-23161568D01*
X29537242Y-23161568D02*
X29737382Y-23013873D01*
X29737382Y-23013873D02*
X29942093Y-22865381D01*
X29942093Y-22865381D02*
X30151213Y-22716220D01*
X30151213Y-22716220D02*
X30364578Y-22566516D01*
X30364578Y-22566516D02*
X30582022Y-22416395D01*
X30582022Y-22416395D02*
X30803383Y-22265984D01*
X30803383Y-22265984D02*
X31028497Y-22115410D01*
X31028497Y-22115410D02*
X31257200Y-21964798D01*
X31257200Y-21964798D02*
X31489327Y-21814276D01*
X31489327Y-21814276D02*
X31724715Y-21663970D01*
X31724715Y-21663970D02*
X31963200Y-21514006D01*
X31963200Y-21514006D02*
X32204619Y-21364512D01*
X32204619Y-21364512D02*
X32448806Y-21215612D01*
X32448806Y-21215612D02*
X32695598Y-21067435D01*
X32695598Y-21067435D02*
X32944832Y-20920106D01*
X32944832Y-20920106D02*
X33196344Y-20773752D01*
X33196344Y-20773752D02*
X33449968Y-20628500D01*
X33449968Y-20628500D02*
X33705543Y-20484476D01*
X33705543Y-20484476D02*
X33962902Y-20341806D01*
X33962902Y-20341806D02*
X34221884Y-20200617D01*
X34221884Y-20200617D02*
X34482324Y-20061035D01*
X34482324Y-20061035D02*
X34744057Y-19923188D01*
X34744057Y-19923188D02*
X35006920Y-19787201D01*
X35006920Y-19787201D02*
X35270750Y-19653201D01*
X35270750Y-19653201D02*
X35535382Y-19521315D01*
X35535382Y-19521315D02*
X35800652Y-19391668D01*
X35800652Y-19391668D02*
X36066396Y-19264389D01*
X36066396Y-19264389D02*
X36332451Y-19139602D01*
X36332451Y-19139602D02*
X36598652Y-19017435D01*
X36598652Y-19017435D02*
X36864836Y-18898014D01*
X36864836Y-18898014D02*
X37130838Y-18781465D01*
X37130838Y-18781465D02*
X37396496Y-18667915D01*
X37396496Y-18667915D02*
X37661644Y-18557492D01*
X37661644Y-18557492D02*
X37926119Y-18450320D01*
X37926119Y-18450320D02*
X38189757Y-18346526D01*
X38189757Y-18346526D02*
X38452394Y-18246238D01*
X38452394Y-18246238D02*
X38713867Y-18149582D01*
X38713867Y-18149582D02*
X38974011Y-18056683D01*
X38974011Y-18056683D02*
X39232662Y-17967669D01*
X39232662Y-17967669D02*
X39489657Y-17882667D01*
X39489657Y-17882667D02*
X39744831Y-17801801D01*
X39744831Y-17801801D02*
X39998021Y-17725200D01*
X39998021Y-17725200D02*
X40249063Y-17652990D01*
X40249063Y-17652990D02*
X40497793Y-17585297D01*
X40497793Y-17585297D02*
X40744761Y-17521270D01*
X40744761Y-17521270D02*
X40992451Y-17459478D01*
X40992451Y-17459478D02*
X41240845Y-17399900D01*
X41240845Y-17399900D02*
X41489929Y-17342517D01*
X41489929Y-17342517D02*
X41739684Y-17287308D01*
X41739684Y-17287308D02*
X41990095Y-17234254D01*
X41990095Y-17234254D02*
X42241144Y-17183335D01*
X42241144Y-17183335D02*
X42492816Y-17134532D01*
X42492816Y-17134532D02*
X42745094Y-17087824D01*
X42745094Y-17087824D02*
X42997962Y-17043191D01*
X42997962Y-17043191D02*
X43251402Y-17000614D01*
X43251402Y-17000614D02*
X43505399Y-16960072D01*
X43505399Y-16960072D02*
X43759935Y-16921547D01*
X43759935Y-16921547D02*
X44014995Y-16885018D01*
X44014995Y-16885018D02*
X44270562Y-16850465D01*
X44270562Y-16850465D02*
X44526619Y-16817868D01*
X44526619Y-16817868D02*
X44783149Y-16787208D01*
X44783149Y-16787208D02*
X45040137Y-16758465D01*
X45040137Y-16758465D02*
X45297566Y-16731619D01*
X45297566Y-16731619D02*
X45555419Y-16706650D01*
X45555419Y-16706650D02*
X45813679Y-16683538D01*
X45813679Y-16683538D02*
X46072331Y-16662263D01*
X46072331Y-16662263D02*
X46331357Y-16642806D01*
X46331357Y-16642806D02*
X46590742Y-16625147D01*
X46590742Y-16625147D02*
X46850468Y-16609265D01*
X46850468Y-16609265D02*
X47110519Y-16595141D01*
X47110519Y-16595141D02*
X47370879Y-16582756D01*
X47370879Y-16582756D02*
X47631531Y-16572089D01*
X47631531Y-16572089D02*
X47892459Y-16563120D01*
X47892459Y-16563120D02*
X48153645Y-16555830D01*
X48153645Y-16555830D02*
X48415074Y-16550199D01*
X48415074Y-16550199D02*
X48676729Y-16546207D01*
X48676729Y-16546207D02*
X48938594Y-16543833D01*
X48938594Y-16543833D02*
X49200651Y-16543059D01*
X49200651Y-16543059D02*
X49462885Y-16543865D01*
X49462885Y-16543865D02*
X49725279Y-16546230D01*
X49725279Y-16546230D02*
X49987817Y-16550135D01*
X49987817Y-16550135D02*
X50250481Y-16555559D01*
X50250481Y-16555559D02*
X50513255Y-16562484D01*
X50513255Y-16562484D02*
X50776124Y-16570889D01*
X50776124Y-16570889D02*
X51039069Y-16580754D01*
X51039069Y-16580754D02*
X51302076Y-16592060D01*
X51302076Y-16592060D02*
X51565127Y-16604786D01*
X51565127Y-16604786D02*
X51828206Y-16618913D01*
X51828206Y-16618913D02*
X52091295Y-16634422D01*
X52091295Y-16634422D02*
X52354380Y-16651291D01*
X52354380Y-16651291D02*
X52617443Y-16669501D01*
X52617443Y-16669501D02*
X52880468Y-16689034D01*
X52880468Y-16689034D02*
X53143437Y-16709867D01*
X53143437Y-16709867D02*
X53406336Y-16731983D01*
X53406336Y-16731983D02*
X53669147Y-16755360D01*
X53669147Y-16755360D02*
X53931853Y-16779979D01*
X53931853Y-16779979D02*
X54194438Y-16805821D01*
X54194438Y-16805821D02*
X54456886Y-16832865D01*
X54456886Y-16832865D02*
X54719180Y-16861091D01*
X54719180Y-16861091D02*
X54981304Y-16890481D01*
X54981304Y-16890481D02*
X55243241Y-16921013D01*
X55243241Y-16921013D02*
X55504974Y-16952668D01*
X55504974Y-16952668D02*
X55766487Y-16985426D01*
X55766487Y-16985426D02*
X56027764Y-17019268D01*
X56027764Y-17019268D02*
X56288788Y-17054173D01*
X56288788Y-17054173D02*
X56549542Y-17090122D01*
X56549542Y-17090122D02*
X56810010Y-17127094D01*
X56810010Y-17127094D02*
X57070176Y-17165071D01*
X57070176Y-17165071D02*
X57330023Y-17204031D01*
X57330023Y-17204031D02*
X57589533Y-17243956D01*
X57589533Y-17243956D02*
X57848692Y-17284825D01*
X57848692Y-17284825D02*
X58107482Y-17326619D01*
X58107482Y-17326619D02*
X58365887Y-17369318D01*
X58365887Y-17369318D02*
X58623891Y-17412901D01*
X58623891Y-17412901D02*
X58881476Y-17457350D01*
X58881476Y-17457350D02*
X59138626Y-17502644D01*
X59138626Y-17502644D02*
X59395325Y-17548763D01*
X59395325Y-17548763D02*
X59651557Y-17595688D01*
X59651557Y-17595688D02*
X59907304Y-17643398D01*
X59907304Y-17643398D02*
X60162550Y-17691874D01*
X60162550Y-17691874D02*
X60417279Y-17741096D01*
X60417279Y-17741096D02*
X60671474Y-17791044D01*
X60671474Y-17791044D02*
X60925119Y-17841699D01*
X60925119Y-17841699D02*
X61178197Y-17893040D01*
X61178197Y-17893040D02*
X61430692Y-17945048D01*
X61430692Y-17945048D02*
X61682587Y-17997702D01*
X61682587Y-17997702D02*
X61933865Y-18050984D01*
X61933865Y-18050984D02*
X62184510Y-18104872D01*
X62184510Y-18104872D02*
X62434506Y-18159348D01*
X62434506Y-18159348D02*
X62683836Y-18214391D01*
X62683836Y-18214391D02*
X62933469Y-18270816D01*
X62933469Y-18270816D02*
X63182999Y-18329153D01*
X63182999Y-18329153D02*
X63432389Y-18389405D01*
X63432389Y-18389405D02*
X63681606Y-18451577D01*
X63681606Y-18451577D02*
X63930614Y-18515674D01*
X63930614Y-18515674D02*
X64179378Y-18581700D01*
X64179378Y-18581700D02*
X64427863Y-18649660D01*
X64427863Y-18649660D02*
X64676034Y-18719559D01*
X64676034Y-18719559D02*
X64923856Y-18791400D01*
X64923856Y-18791400D02*
X65171294Y-18865190D01*
X65171294Y-18865190D02*
X65418312Y-18940932D01*
X65418312Y-18940932D02*
X65664877Y-19018631D01*
X65664877Y-19018631D02*
X65910951Y-19098292D01*
X65910951Y-19098292D02*
X66156502Y-19179919D01*
X66156502Y-19179919D02*
X66401493Y-19263517D01*
X66401493Y-19263517D02*
X66645889Y-19349091D01*
X66645889Y-19349091D02*
X66889656Y-19436645D01*
X66889656Y-19436645D02*
X67132758Y-19526183D01*
X67132758Y-19526183D02*
X67375160Y-19617711D01*
X67375160Y-19617711D02*
X67616827Y-19711232D01*
X67616827Y-19711232D02*
X67857725Y-19806753D01*
X67857725Y-19806753D02*
X68097818Y-19904276D01*
X68097818Y-19904276D02*
X68337070Y-20003807D01*
X68337070Y-20003807D02*
X68575448Y-20105351D01*
X68575448Y-20105351D02*
X68812915Y-20208912D01*
X68812915Y-20208912D02*
X69049438Y-20314494D01*
X69049438Y-20314494D02*
X69284980Y-20422103D01*
X69284980Y-20422103D02*
X69519506Y-20531743D01*
X69519506Y-20531743D02*
X69752983Y-20643418D01*
X69752983Y-20643418D02*
X69985373Y-20757133D01*
X69985373Y-20757133D02*
X70216644Y-20872893D01*
X70216644Y-20872893D02*
X70446758Y-20990703D01*
X70446758Y-20990703D02*
X70675682Y-21110566D01*
X70675682Y-21110566D02*
X70903381Y-21232488D01*
X70903381Y-21232488D02*
X71129818Y-21356473D01*
X71129818Y-21356473D02*
X71354960Y-21482526D01*
X71354960Y-21482526D02*
X71578771Y-21610652D01*
X71578771Y-21610652D02*
X71801216Y-21740854D01*
X71801216Y-21740854D02*
X72022260Y-21873138D01*
X72022260Y-21873138D02*
X72241868Y-22007509D01*
X72241868Y-22007509D02*
X72460004Y-22143970D01*
X72460004Y-22143970D02*
X72676635Y-22282527D01*
X72676635Y-22282527D02*
X72891724Y-22423184D01*
X72891724Y-22423184D02*
X73105237Y-22565946D01*
X73105237Y-22565946D02*
X73317138Y-22710817D01*
X73317138Y-22710817D02*
X73527393Y-22857802D01*
X73527393Y-22857802D02*
X73735966Y-23006906D01*
X73735966Y-23006906D02*
X73942823Y-23158132D01*
X73942823Y-23158132D02*
X74147928Y-23311487D01*
X74147928Y-23311487D02*
X74351246Y-23466974D01*
X74351246Y-23466974D02*
X74552743Y-23624599D01*
X74552743Y-23624599D02*
X74754178Y-23785845D01*
X74754178Y-23785845D02*
X74954321Y-23949920D01*
X74954321Y-23949920D02*
X75152963Y-24116821D01*
X75152963Y-24116821D02*
X75349893Y-24286542D01*
X75349893Y-24286542D02*
X75544900Y-24459081D01*
X75544900Y-24459081D02*
X75737773Y-24634432D01*
X75737773Y-24634432D02*
X75928304Y-24812593D01*
X75928304Y-24812593D02*
X76116280Y-24993559D01*
X76116280Y-24993559D02*
X76301492Y-25177327D01*
X76301492Y-25177327D02*
X76483729Y-25363892D01*
X76483729Y-25363892D02*
X76662780Y-25553250D01*
X76662780Y-25553250D02*
X76838436Y-25745398D01*
X76838436Y-25745398D02*
X77010485Y-25940332D01*
X77010485Y-25940332D02*
X77178718Y-26138047D01*
X77178718Y-26138047D02*
X77342923Y-26338540D01*
X77342923Y-26338540D02*
X77502891Y-26541807D01*
X77502891Y-26541807D02*
X77658410Y-26747844D01*
X77658410Y-26747844D02*
X77809271Y-26956647D01*
X77809271Y-26956647D02*
X77955263Y-27168212D01*
X77955263Y-27168212D02*
X78096175Y-27382535D01*
X78096175Y-27382535D02*
X78231797Y-27599612D01*
X78231797Y-27599612D02*
X78361919Y-27819439D01*
X78361919Y-27819439D02*
X78486330Y-28042013D01*
X78486330Y-28042013D02*
X78604819Y-28267329D01*
X78604819Y-28267329D02*
X78717177Y-28495383D01*
X78717177Y-28495383D02*
X78823192Y-28726172D01*
X78823192Y-28726172D02*
X78922654Y-28959691D01*
X78922654Y-28959691D02*
X79015354Y-29195937D01*
X79015354Y-29195937D02*
X79101079Y-29434905D01*
X79101079Y-29434905D02*
X79179620Y-29676593D01*
X79179620Y-29676593D02*
X79250767Y-29920995D01*
X79250767Y-29920995D02*
X79314309Y-30168108D01*
X79314309Y-30168108D02*
X79370035Y-30417928D01*
X79370035Y-30417928D02*
X79417735Y-30670450D01*
X79417735Y-30670450D02*
X79459193Y-30922689D01*
X79459193Y-30922689D02*
X79497239Y-31175837D01*
X79497239Y-31175837D02*
X79532143Y-31429816D01*
X79532143Y-31429816D02*
X79564171Y-31684546D01*
X79564171Y-31684546D02*
X79593594Y-31939949D01*
X79593594Y-31939949D02*
X79620680Y-32195948D01*
X79620680Y-32195948D02*
X79645698Y-32452463D01*
X79645698Y-32452463D02*
X79668916Y-32709417D01*
X79668916Y-32709417D02*
X79690602Y-32966730D01*
X79690602Y-32966730D02*
X79711027Y-33224324D01*
X79711027Y-33224324D02*
X79730457Y-33482121D01*
X79730457Y-33482121D02*
X79749163Y-33740043D01*
X79749163Y-33740043D02*
X79767413Y-33998011D01*
X79767413Y-33998011D02*
X79785474Y-34255946D01*
X79785474Y-34255946D02*
X79803617Y-34513770D01*
X79803617Y-34513770D02*
X79822109Y-34771406D01*
X79822109Y-34771406D02*
X79841220Y-35028773D01*
X79841220Y-35028773D02*
X79861218Y-35285794D01*
X79861218Y-35285794D02*
X79882372Y-35542391D01*
X79882372Y-35542391D02*
X79904950Y-35798484D01*
X79904950Y-35798484D02*
X79929221Y-36053996D01*
X79929221Y-36053996D02*
X79955454Y-36308848D01*
X79955454Y-36308848D02*
X79983918Y-36562962D01*
X79983918Y-36562962D02*
X80022912Y-36890638D01*
X80022912Y-36890638D02*
X80061384Y-37201316D01*
X80061384Y-37201316D02*
X80099661Y-37496404D01*
X80099661Y-37496404D02*
X80138072Y-37777312D01*
X80138072Y-37777312D02*
X80176945Y-38045449D01*
X80176945Y-38045449D02*
X80216607Y-38302223D01*
X80216607Y-38302223D02*
X80257387Y-38549043D01*
X80257387Y-38549043D02*
X80299614Y-38787319D01*
X80299614Y-38787319D02*
X80343614Y-39018458D01*
X80343614Y-39018458D02*
X80389717Y-39243870D01*
X80389717Y-39243870D02*
X80438250Y-39464964D01*
X80438250Y-39464964D02*
X80489541Y-39683149D01*
X80489541Y-39683149D02*
X80543920Y-39899833D01*
X80543920Y-39899833D02*
X80601713Y-40116426D01*
X80601713Y-40116426D02*
X80663249Y-40334336D01*
X80663249Y-40334336D02*
X80728855Y-40554972D01*
X80728855Y-40554972D02*
X80798861Y-40779743D01*
X80798861Y-40779743D02*
X80873595Y-41010059D01*
X80873595Y-41010059D02*
X80953383Y-41247327D01*
X80953383Y-41247327D02*
X81038555Y-41492956D01*
X81038555Y-41492956D02*
X81129439Y-41748357D01*
X81129439Y-41748357D02*
X81226362Y-42014937D01*
X81226362Y-42014937D02*
X81329653Y-42294105D01*
X81329653Y-42294105D02*
X81439640Y-42587270D01*
X81439640Y-42587270D02*
X81556651Y-42895842D01*
X81556651Y-42895842D02*
X81651169Y-43159801D01*
X81651169Y-43159801D02*
X81735329Y-43427053D01*
X81735329Y-43427053D02*
X81809595Y-43697197D01*
X81809595Y-43697197D02*
X81874432Y-43969834D01*
X81874432Y-43969834D02*
X81930303Y-44244562D01*
X81930303Y-44244562D02*
X81977673Y-44520983D01*
X81977673Y-44520983D02*
X82017005Y-44798694D01*
X82017005Y-44798694D02*
X82048764Y-45077297D01*
X82048764Y-45077297D02*
X82073413Y-45356390D01*
X82073413Y-45356390D02*
X82091417Y-45635574D01*
X82091417Y-45635574D02*
X82103239Y-45914447D01*
X82103239Y-45914447D02*
X82109344Y-46192610D01*
X82109344Y-46192610D02*
X82110196Y-46469662D01*
X82110196Y-46469662D02*
X82106258Y-46745204D01*
X82106258Y-46745204D02*
X82097995Y-47018834D01*
X82097995Y-47018834D02*
X82085871Y-47290152D01*
X82085871Y-47290152D02*
X82070349Y-47558758D01*
X82070349Y-47558758D02*
X82051894Y-47824252D01*
X82051894Y-47824252D02*
X82030970Y-48086234D01*
X82030970Y-48086234D02*
X82008040Y-48344302D01*
X82008040Y-48344302D02*
X81983569Y-48598057D01*
X81983569Y-48598057D02*
X81958021Y-48847098D01*
X81958021Y-48847098D02*
X81931860Y-49091025D01*
X81931860Y-49091025D02*
X81905550Y-49329438D01*
X81905550Y-49329438D02*
X81879555Y-49561936D01*
X81879555Y-49561936D02*
X81854338Y-49788119D01*
X81854338Y-49788119D02*
X81830365Y-50007586D01*
X81830365Y-50007586D02*
X81808098Y-50219938D01*
X81808098Y-50219938D02*
X81788002Y-50424774D01*
X81788002Y-50424774D02*
X81770541Y-50621694D01*
X81770541Y-50621694D02*
X81756180Y-50810297D01*
X81756180Y-50810297D02*
X81745381Y-50990183D01*
X81745381Y-50990183D02*
X81734075Y-51243363D01*
X81734075Y-51243363D02*
X81725661Y-51497492D01*
X81725661Y-51497492D02*
X81720085Y-51752494D01*
X81720085Y-51752494D02*
X81717298Y-52008296D01*
X81717298Y-52008296D02*
X81717248Y-52264821D01*
X81717248Y-52264821D02*
X81719883Y-52521994D01*
X81719883Y-52521994D02*
X81725153Y-52779740D01*
X81725153Y-52779740D02*
X81733006Y-53037984D01*
X81733006Y-53037984D02*
X81743390Y-53296650D01*
X81743390Y-53296650D02*
X81756256Y-53555663D01*
X81756256Y-53555663D02*
X81771551Y-53814947D01*
X81771551Y-53814947D02*
X81789225Y-54074428D01*
X81789225Y-54074428D02*
X81809225Y-54334030D01*
X81809225Y-54334030D02*
X81831501Y-54593679D01*
X81831501Y-54593679D02*
X81856001Y-54853297D01*
X81856001Y-54853297D02*
X81882675Y-55112811D01*
X81882675Y-55112811D02*
X81911471Y-55372145D01*
X81911471Y-55372145D02*
X81942337Y-55631224D01*
X81942337Y-55631224D02*
X81975223Y-55889972D01*
X81975223Y-55889972D02*
X82010077Y-56148315D01*
X82010077Y-56148315D02*
X82046849Y-56406176D01*
X82046849Y-56406176D02*
X82085486Y-56663482D01*
X82085486Y-56663482D02*
X82125937Y-56920155D01*
X82125937Y-56920155D02*
X82168152Y-57176122D01*
X82168152Y-57176122D02*
X82212079Y-57431306D01*
X82212079Y-57431306D02*
X82257667Y-57685633D01*
X82257667Y-57685633D02*
X82304864Y-57939027D01*
X82304864Y-57939027D02*
X82353620Y-58191414D01*
X82353620Y-58191414D02*
X82403883Y-58442716D01*
X82403883Y-58442716D02*
X82455601Y-58692861D01*
X82455601Y-58692861D02*
X82508724Y-58941771D01*
X82508724Y-58941771D02*
X82563201Y-59189372D01*
X82563201Y-59189372D02*
X82624965Y-59445689D01*
X82624965Y-59445689D02*
X82697393Y-59710517D01*
X82697393Y-59710517D02*
X82779867Y-59983108D01*
X82779867Y-59983108D02*
X82871769Y-60262708D01*
X82871769Y-60262708D02*
X82972483Y-60548566D01*
X82972483Y-60548566D02*
X83081392Y-60839931D01*
X83081392Y-60839931D02*
X83197878Y-61136052D01*
X83197878Y-61136052D02*
X83321324Y-61436176D01*
X83321324Y-61436176D02*
X83451113Y-61739553D01*
X83451113Y-61739553D02*
X83586628Y-62045430D01*
X83586628Y-62045430D02*
X83727252Y-62353056D01*
X83727252Y-62353056D02*
X83872368Y-62661680D01*
X83872368Y-62661680D02*
X84021357Y-62970550D01*
X84021357Y-62970550D02*
X84173604Y-63278915D01*
X84173604Y-63278915D02*
X84328492Y-63586024D01*
X84328492Y-63586024D02*
X84485402Y-63891123D01*
X84485402Y-63891123D02*
X84643718Y-64193463D01*
X84643718Y-64193463D02*
X84802822Y-64492292D01*
X84802822Y-64492292D02*
X84962098Y-64786857D01*
X84962098Y-64786857D02*
X85120929Y-65076408D01*
X85120929Y-65076408D02*
X85278696Y-65360194D01*
X85278696Y-65360194D02*
X85434784Y-65637461D01*
X85434784Y-65637461D02*
X85588574Y-65907460D01*
X85588574Y-65907460D02*
X85739450Y-66169439D01*
X85739450Y-66169439D02*
X85886795Y-66422645D01*
X85886795Y-66422645D02*
X86029991Y-66666328D01*
X86029991Y-66666328D02*
X86168422Y-66899736D01*
X86168422Y-66899736D02*
X86301469Y-67122117D01*
X86301469Y-67122117D02*
X86428516Y-67332720D01*
X86428516Y-67332720D02*
X86548947Y-67530794D01*
X86548947Y-67530794D02*
X86662143Y-67715587D01*
X86662143Y-67715587D02*
X86767487Y-67886347D01*
X86767487Y-67886347D02*
X86864363Y-68042323D01*
X86864363Y-68042323D02*
X86952152Y-68182763D01*
X86952152Y-68182763D02*
X87030239Y-68306916D01*
X87030239Y-68306916D02*
X87098006Y-68414031D01*
X87098006Y-68414031D02*
X87154835Y-68503355D01*
X87154835Y-68503355D02*
X87200110Y-68574138D01*
X87200110Y-68574138D02*
X87233214Y-68625628D01*
X87233214Y-68625628D02*
X87253528Y-68657073D01*
X87253528Y-68657073D02*
X87260437Y-68667721D01*
X87260437Y-68667721D02*
X16843864Y-68793537D01*
X16843864Y-68793537D02*
X16843864Y-26099034D01*
D12*
X77236875Y-49333569D02*
X77220779Y-49323598D01*
X77220779Y-49323598D02*
X77173693Y-49294511D01*
X77173693Y-49294511D02*
X77097425Y-49247551D01*
X77097425Y-49247551D02*
X76993779Y-49183957D01*
X76993779Y-49183957D02*
X76864562Y-49104972D01*
X76864562Y-49104972D02*
X76711578Y-49011835D01*
X76711578Y-49011835D02*
X76536634Y-48905789D01*
X76536634Y-48905789D02*
X76341536Y-48788074D01*
X76341536Y-48788074D02*
X76128088Y-48659930D01*
X76128088Y-48659930D02*
X75898098Y-48522601D01*
X75898098Y-48522601D02*
X75653370Y-48377325D01*
X75653370Y-48377325D02*
X75395710Y-48225345D01*
X75395710Y-48225345D02*
X75126924Y-48067901D01*
X75126924Y-48067901D02*
X74848817Y-47906235D01*
X74848817Y-47906235D02*
X74563196Y-47741587D01*
X74563196Y-47741587D02*
X74271866Y-47575198D01*
X74271866Y-47575198D02*
X73976632Y-47408311D01*
X73976632Y-47408311D02*
X73679301Y-47242164D01*
X73679301Y-47242164D02*
X73381678Y-47078001D01*
X73381678Y-47078001D02*
X73085569Y-46917061D01*
X73085569Y-46917061D02*
X72792779Y-46760586D01*
X72792779Y-46760586D02*
X72505114Y-46609816D01*
X72505114Y-46609816D02*
X72224381Y-46465994D01*
X72224381Y-46465994D02*
X71952384Y-46330359D01*
X71952384Y-46330359D02*
X71690929Y-46204154D01*
X71690929Y-46204154D02*
X71441822Y-46088618D01*
X71441822Y-46088618D02*
X71206870Y-45984993D01*
X71206870Y-45984993D02*
X70987876Y-45894521D01*
X70987876Y-45894521D02*
X70725320Y-45791096D01*
X70725320Y-45791096D02*
X70472454Y-45693161D01*
X70472454Y-45693161D02*
X70228089Y-45600470D01*
X70228089Y-45600470D02*
X69991037Y-45512779D01*
X69991037Y-45512779D02*
X69760110Y-45429843D01*
X69760110Y-45429843D02*
X69534117Y-45351418D01*
X69534117Y-45351418D02*
X69311872Y-45277260D01*
X69311872Y-45277260D02*
X69092186Y-45207123D01*
X69092186Y-45207123D02*
X68873869Y-45140763D01*
X68873869Y-45140763D02*
X68655733Y-45077936D01*
X68655733Y-45077936D02*
X68436590Y-45018396D01*
X68436590Y-45018396D02*
X68215252Y-44961900D01*
X68215252Y-44961900D02*
X67990529Y-44908203D01*
X67990529Y-44908203D02*
X67761233Y-44857060D01*
X67761233Y-44857060D02*
X67526175Y-44808226D01*
X67526175Y-44808226D02*
X67284167Y-44761457D01*
X67284167Y-44761457D02*
X67034021Y-44716509D01*
X67034021Y-44716509D02*
X66774547Y-44673137D01*
X66774547Y-44673137D02*
X66504558Y-44631096D01*
X66504558Y-44631096D02*
X66222864Y-44590141D01*
X66222864Y-44590141D02*
X65928277Y-44550029D01*
X65928277Y-44550029D02*
X65619608Y-44510514D01*
X65619608Y-44510514D02*
X65405273Y-44485634D01*
X65405273Y-44485634D02*
X65184018Y-44463329D01*
X65184018Y-44463329D02*
X64956256Y-44443508D01*
X64956256Y-44443508D02*
X64722401Y-44426081D01*
X64722401Y-44426081D02*
X64482865Y-44410957D01*
X64482865Y-44410957D02*
X64238062Y-44398043D01*
X64238062Y-44398043D02*
X63988405Y-44387250D01*
X63988405Y-44387250D02*
X63734309Y-44378486D01*
X63734309Y-44378486D02*
X63476185Y-44371660D01*
X63476185Y-44371660D02*
X63214448Y-44366680D01*
X63214448Y-44366680D02*
X62949510Y-44363457D01*
X62949510Y-44363457D02*
X62681786Y-44361899D01*
X62681786Y-44361899D02*
X62411688Y-44361914D01*
X62411688Y-44361914D02*
X62139630Y-44363412D01*
X62139630Y-44363412D02*
X61866025Y-44366301D01*
X61866025Y-44366301D02*
X61591286Y-44370491D01*
X61591286Y-44370491D02*
X61315827Y-44375891D01*
X61315827Y-44375891D02*
X61040061Y-44382408D01*
X61040061Y-44382408D02*
X60764402Y-44389954D01*
X60764402Y-44389954D02*
X60489262Y-44398435D01*
X60489262Y-44398435D02*
X60215055Y-44407762D01*
X60215055Y-44407762D02*
X59942195Y-44417842D01*
X59942195Y-44417842D02*
X59671095Y-44428586D01*
X59671095Y-44428586D02*
X59402167Y-44439902D01*
X59402167Y-44439902D02*
X59135826Y-44451698D01*
X59135826Y-44451698D02*
X58872485Y-44463884D01*
X58872485Y-44463884D02*
X58612557Y-44476370D01*
X58612557Y-44476370D02*
X58356456Y-44489062D01*
X58356456Y-44489062D02*
X58104594Y-44501872D01*
X58104594Y-44501872D02*
X57857385Y-44514707D01*
X57857385Y-44514707D02*
X57615243Y-44527476D01*
X57615243Y-44527476D02*
X57378581Y-44540089D01*
X57378581Y-44540089D02*
X57147811Y-44552454D01*
X57147811Y-44552454D02*
X56840263Y-44570444D01*
X56840263Y-44570444D02*
X56520132Y-44591936D01*
X56520132Y-44591936D02*
X56189559Y-44616570D01*
X56189559Y-44616570D02*
X55850683Y-44643985D01*
X55850683Y-44643985D02*
X55505642Y-44673820D01*
X55505642Y-44673820D02*
X55156577Y-44705716D01*
X55156577Y-44705716D02*
X54805628Y-44739310D01*
X54805628Y-44739310D02*
X54454933Y-44774244D01*
X54454933Y-44774244D02*
X54106632Y-44810155D01*
X54106632Y-44810155D02*
X53762865Y-44846684D01*
X53762865Y-44846684D02*
X53425771Y-44883470D01*
X53425771Y-44883470D02*
X53097490Y-44920152D01*
X53097490Y-44920152D02*
X52780160Y-44956369D01*
X52780160Y-44956369D02*
X52475922Y-44991762D01*
X52475922Y-44991762D02*
X52186915Y-45025968D01*
X52186915Y-45025968D02*
X51915278Y-45058629D01*
X51915278Y-45058629D02*
X51663152Y-45089383D01*
X51663152Y-45089383D02*
X51432675Y-45117869D01*
X51432675Y-45117869D02*
X51225986Y-45143727D01*
X51225986Y-45143727D02*
X51045226Y-45166596D01*
X51045226Y-45166596D02*
X50892534Y-45186116D01*
X50892534Y-45186116D02*
X50770049Y-45201926D01*
X50770049Y-45201926D02*
X50679911Y-45213665D01*
X50679911Y-45213665D02*
X50624259Y-45220973D01*
X50624259Y-45220973D02*
X50605233Y-45223489D01*
X52408636Y-46901054D02*
X52406275Y-46914609D01*
X52406275Y-46914609D02*
X52400866Y-46954085D01*
X52400866Y-46954085D02*
X52394922Y-47017699D01*
X52394922Y-47017699D02*
X52390957Y-47103665D01*
X52390957Y-47103665D02*
X52391484Y-47210199D01*
X52391484Y-47210199D02*
X52399014Y-47335518D01*
X52399014Y-47335518D02*
X52416062Y-47477838D01*
X52416062Y-47477838D02*
X52445140Y-47635373D01*
X52445140Y-47635373D02*
X52488762Y-47806341D01*
X52488762Y-47806341D02*
X52549439Y-47988956D01*
X52549439Y-47988956D02*
X52629686Y-48181435D01*
X52629686Y-48181435D02*
X52732015Y-48381994D01*
X52732015Y-48381994D02*
X52858940Y-48588848D01*
X52858940Y-48588848D02*
X53012972Y-48800214D01*
X53012972Y-48800214D02*
X53196625Y-49014306D01*
X53196625Y-49014306D02*
X53412413Y-49229342D01*
X53412413Y-49229342D02*
X53662847Y-49443537D01*
X53662847Y-49443537D02*
X53950442Y-49655106D01*
X53950442Y-49655106D02*
X54277709Y-49862266D01*
X54277709Y-49862266D02*
X54647162Y-50063232D01*
X54647162Y-50063232D02*
X55061314Y-50256221D01*
X55061314Y-50256221D02*
X55214002Y-50317342D01*
X55214002Y-50317342D02*
X55375616Y-50373176D01*
X55375616Y-50373176D02*
X55545874Y-50423869D01*
X55545874Y-50423869D02*
X55724496Y-50469567D01*
X55724496Y-50469567D02*
X55911200Y-50510418D01*
X55911200Y-50510418D02*
X56105705Y-50546567D01*
X56105705Y-50546567D02*
X56307730Y-50578162D01*
X56307730Y-50578162D02*
X56516992Y-50605350D01*
X56516992Y-50605350D02*
X56733211Y-50628277D01*
X56733211Y-50628277D02*
X56956106Y-50647090D01*
X56956106Y-50647090D02*
X57185395Y-50661935D01*
X57185395Y-50661935D02*
X57420797Y-50672960D01*
X57420797Y-50672960D02*
X57662031Y-50680311D01*
X57662031Y-50680311D02*
X57908814Y-50684135D01*
X57908814Y-50684135D02*
X58160867Y-50684578D01*
X58160867Y-50684578D02*
X58417907Y-50681788D01*
X58417907Y-50681788D02*
X58679654Y-50675911D01*
X58679654Y-50675911D02*
X58945825Y-50667094D01*
X58945825Y-50667094D02*
X59216141Y-50655483D01*
X59216141Y-50655483D02*
X59490318Y-50641225D01*
X59490318Y-50641225D02*
X59768077Y-50624467D01*
X59768077Y-50624467D02*
X60049135Y-50605356D01*
X60049135Y-50605356D02*
X60333212Y-50584039D01*
X60333212Y-50584039D02*
X60620025Y-50560662D01*
X60620025Y-50560662D02*
X60909295Y-50535371D01*
X60909295Y-50535371D02*
X61200739Y-50508314D01*
X61200739Y-50508314D02*
X61494076Y-50479638D01*
X61494076Y-50479638D02*
X61789024Y-50449488D01*
X61789024Y-50449488D02*
X62085304Y-50418013D01*
X62085304Y-50418013D02*
X62382632Y-50385358D01*
X62382632Y-50385358D02*
X62680728Y-50351670D01*
X62680728Y-50351670D02*
X62979311Y-50317097D01*
X62979311Y-50317097D02*
X63278099Y-50281784D01*
X63278099Y-50281784D02*
X63576811Y-50245878D01*
X63576811Y-50245878D02*
X63875165Y-50209527D01*
X63875165Y-50209527D02*
X64172881Y-50172877D01*
X64172881Y-50172877D02*
X64469677Y-50136074D01*
X64469677Y-50136074D02*
X64765271Y-50099266D01*
X64765271Y-50099266D02*
X65059383Y-50062599D01*
X65059383Y-50062599D02*
X65351730Y-50026219D01*
X65351730Y-50026219D02*
X65642032Y-49990275D01*
X65642032Y-49990275D02*
X65930008Y-49954912D01*
X65930008Y-49954912D02*
X66215376Y-49920276D01*
X66215376Y-49920276D02*
X66497854Y-49886516D01*
X66497854Y-49886516D02*
X66777162Y-49853777D01*
X66777162Y-49853777D02*
X67053017Y-49822206D01*
X67053017Y-49822206D02*
X67325140Y-49791950D01*
X67325140Y-49791950D02*
X67593248Y-49763156D01*
X67593248Y-49763156D02*
X67857060Y-49735971D01*
X67857060Y-49735971D02*
X68116295Y-49710541D01*
X68116295Y-49710541D02*
X68370671Y-49687012D01*
X68370671Y-49687012D02*
X68619908Y-49665532D01*
X68619908Y-49665532D02*
X68863723Y-49646248D01*
X68863723Y-49646248D02*
X69101836Y-49629305D01*
X69101836Y-49629305D02*
X69333965Y-49614852D01*
X69333965Y-49614852D02*
X69559830Y-49603034D01*
X69559830Y-49603034D02*
X69779147Y-49593998D01*
X69779147Y-49593998D02*
X69991637Y-49587892D01*
X69991637Y-49587892D02*
X70197018Y-49584861D01*
X70197018Y-49584861D02*
X70395008Y-49585052D01*
X70395008Y-49585052D02*
X70585327Y-49588613D01*
X70585327Y-49588613D02*
X70767693Y-49595690D01*
X70767693Y-49595690D02*
X71167246Y-49621390D01*
X71167246Y-49621390D02*
X71547573Y-49657049D01*
X71547573Y-49657049D02*
X71909437Y-49701704D01*
X71909437Y-49701704D02*
X72253601Y-49754393D01*
X72253601Y-49754393D02*
X72580827Y-49814153D01*
X72580827Y-49814153D02*
X72891878Y-49880021D01*
X72891878Y-49880021D02*
X73187515Y-49951035D01*
X73187515Y-49951035D02*
X73468502Y-50026231D01*
X73468502Y-50026231D02*
X73735600Y-50104647D01*
X73735600Y-50104647D02*
X73989572Y-50185320D01*
X73989572Y-50185320D02*
X74231181Y-50267288D01*
X74231181Y-50267288D02*
X74461190Y-50349587D01*
X74461190Y-50349587D02*
X74680359Y-50431255D01*
X74680359Y-50431255D02*
X74889453Y-50511330D01*
X74889453Y-50511330D02*
X75089233Y-50588848D01*
X75089233Y-50588848D02*
X75280462Y-50662846D01*
X75280462Y-50662846D02*
X75463902Y-50732363D01*
X75463902Y-50732363D02*
X75640316Y-50796435D01*
X75640316Y-50796435D02*
X75810466Y-50854099D01*
X75810466Y-50854099D02*
X75975115Y-50904393D01*
X75975115Y-50904393D02*
X76135025Y-50946354D01*
X76135025Y-50946354D02*
X76290958Y-50979019D01*
X76290958Y-50979019D02*
X76443677Y-51001426D01*
X76443677Y-51001426D02*
X76593944Y-51012611D01*
X76593944Y-51012611D02*
X76742522Y-51011613D01*
X76742522Y-51011613D02*
X76890174Y-50997468D01*
X76890174Y-50997468D02*
X77037661Y-50969213D01*
X77037661Y-50969213D02*
X77220498Y-50888814D01*
X77220498Y-50888814D02*
X77378964Y-50749438D01*
X77378964Y-50749438D02*
X77514394Y-50562314D01*
X77514394Y-50562314D02*
X77628125Y-50338672D01*
X77628125Y-50338672D02*
X77721493Y-50089742D01*
X77721493Y-50089742D02*
X77795833Y-49826754D01*
X77795833Y-49826754D02*
X77852481Y-49560938D01*
X77852481Y-49560938D02*
X77892774Y-49303524D01*
X77892774Y-49303524D02*
X77918047Y-49065741D01*
X77918047Y-49065741D02*
X77929636Y-48858820D01*
X77929636Y-48858820D02*
X77928878Y-48693990D01*
X77928878Y-48693990D02*
X77916522Y-48534122D01*
X77916522Y-48534122D02*
X77893932Y-48359894D01*
X77893932Y-48359894D02*
X77861651Y-48172197D01*
X77861651Y-48172197D02*
X77820217Y-47971922D01*
X77820217Y-47971922D02*
X77770171Y-47759959D01*
X77770171Y-47759959D02*
X77712054Y-47537198D01*
X77712054Y-47537198D02*
X77646406Y-47304532D01*
X77646406Y-47304532D02*
X77573767Y-47062849D01*
X77573767Y-47062849D02*
X77494679Y-46813041D01*
X77494679Y-46813041D02*
X77409681Y-46555998D01*
X77409681Y-46555998D02*
X77319314Y-46292611D01*
X77319314Y-46292611D02*
X77224118Y-46023770D01*
X77224118Y-46023770D02*
X77124634Y-45750367D01*
X77124634Y-45750367D02*
X77021402Y-45473291D01*
X77021402Y-45473291D02*
X76914963Y-45193434D01*
X76914963Y-45193434D02*
X76805856Y-44911685D01*
X76805856Y-44911685D02*
X76694623Y-44628936D01*
X76694623Y-44628936D02*
X76581804Y-44346077D01*
X76581804Y-44346077D02*
X76467940Y-44063999D01*
X76467940Y-44063999D02*
X76353570Y-43783592D01*
X76353570Y-43783592D02*
X76239235Y-43505747D01*
X76239235Y-43505747D02*
X76125476Y-43231355D01*
X76125476Y-43231355D02*
X76026708Y-42997809D01*
X76026708Y-42997809D02*
X75924615Y-42763892D01*
X75924615Y-42763892D02*
X75819372Y-42529743D01*
X75819372Y-42529743D02*
X75711156Y-42295500D01*
X75711156Y-42295500D02*
X75600143Y-42061303D01*
X75600143Y-42061303D02*
X75486510Y-41827291D01*
X75486510Y-41827291D02*
X75370432Y-41593602D01*
X75370432Y-41593602D02*
X75252085Y-41360376D01*
X75252085Y-41360376D02*
X75131647Y-41127752D01*
X75131647Y-41127752D02*
X75009292Y-40895868D01*
X75009292Y-40895868D02*
X74885198Y-40664864D01*
X74885198Y-40664864D02*
X74759540Y-40434878D01*
X74759540Y-40434878D02*
X74632495Y-40206049D01*
X74632495Y-40206049D02*
X74504239Y-39978517D01*
X74504239Y-39978517D02*
X74374948Y-39752420D01*
X74374948Y-39752420D02*
X74244799Y-39527897D01*
X74244799Y-39527897D02*
X74113967Y-39305088D01*
X74113967Y-39305088D02*
X73982628Y-39084131D01*
X73982628Y-39084131D02*
X73850960Y-38865165D01*
X73850960Y-38865165D02*
X73719138Y-38648329D01*
X73719138Y-38648329D02*
X73587338Y-38433763D01*
X73587338Y-38433763D02*
X73455737Y-38221604D01*
X73455737Y-38221604D02*
X73324510Y-38011993D01*
X73324510Y-38011993D02*
X73193834Y-37805068D01*
X73193834Y-37805068D02*
X73063886Y-37600967D01*
X73063886Y-37600967D02*
X72921619Y-37375642D01*
X72921619Y-37375642D02*
X72779463Y-37145445D01*
X72779463Y-37145445D02*
X72637366Y-36910969D01*
X72637366Y-36910969D02*
X72495275Y-36672811D01*
X72495275Y-36672811D02*
X72353136Y-36431563D01*
X72353136Y-36431563D02*
X72210898Y-36187820D01*
X72210898Y-36187820D02*
X72068506Y-35942177D01*
X72068506Y-35942177D02*
X71925907Y-35695228D01*
X71925907Y-35695228D02*
X71783050Y-35447567D01*
X71783050Y-35447567D02*
X71639879Y-35199789D01*
X71639879Y-35199789D02*
X71496344Y-34952489D01*
X71496344Y-34952489D02*
X71352389Y-34706260D01*
X71352389Y-34706260D02*
X71207963Y-34461697D01*
X71207963Y-34461697D02*
X71063013Y-34219394D01*
X71063013Y-34219394D02*
X70917485Y-33979947D01*
X70917485Y-33979947D02*
X70771326Y-33743948D01*
X70771326Y-33743948D02*
X70624484Y-33511993D01*
X70624484Y-33511993D02*
X70476905Y-33284676D01*
X70476905Y-33284676D02*
X70328536Y-33062592D01*
X70328536Y-33062592D02*
X70179324Y-32846334D01*
X70179324Y-32846334D02*
X70029217Y-32636497D01*
X70029217Y-32636497D02*
X69878161Y-32433676D01*
X69878161Y-32433676D02*
X69726102Y-32238465D01*
X69726102Y-32238465D02*
X69572989Y-32051458D01*
X69572989Y-32051458D02*
X69418768Y-31873250D01*
X69418768Y-31873250D02*
X69263386Y-31704435D01*
X69263386Y-31704435D02*
X69106790Y-31545608D01*
X69106790Y-31545608D02*
X68948926Y-31397362D01*
X68948926Y-31397362D02*
X68789743Y-31260293D01*
X68789743Y-31260293D02*
X68629187Y-31134995D01*
X68629187Y-31134995D02*
X68467204Y-31022061D01*
X68467204Y-31022061D02*
X68303742Y-30922087D01*
X68303742Y-30922087D02*
X67988064Y-30745600D01*
X67988064Y-30745600D02*
X67696244Y-30589148D01*
X67696244Y-30589148D02*
X67425785Y-30452468D01*
X67425785Y-30452468D02*
X67174191Y-30335300D01*
X67174191Y-30335300D02*
X66938965Y-30237382D01*
X66938965Y-30237382D02*
X66717612Y-30158451D01*
X66717612Y-30158451D02*
X66507635Y-30098247D01*
X66507635Y-30098247D02*
X66306538Y-30056507D01*
X66306538Y-30056507D02*
X66111826Y-30032970D01*
X66111826Y-30032970D02*
X65921001Y-30027374D01*
X65921001Y-30027374D02*
X65731567Y-30039458D01*
X65731567Y-30039458D02*
X65541029Y-30068958D01*
X65541029Y-30068958D02*
X65346891Y-30115615D01*
X65346891Y-30115615D02*
X65146655Y-30179166D01*
X65146655Y-30179166D02*
X64937826Y-30259349D01*
X64937826Y-30259349D02*
X64717908Y-30355902D01*
X64717908Y-30355902D02*
X64527649Y-30454536D01*
X64527649Y-30454536D02*
X64338769Y-30573101D01*
X64338769Y-30573101D02*
X64152416Y-30709976D01*
X64152416Y-30709976D02*
X63969741Y-30863541D01*
X63969741Y-30863541D02*
X63791894Y-31032174D01*
X63791894Y-31032174D02*
X63620027Y-31214255D01*
X63620027Y-31214255D02*
X63455288Y-31408163D01*
X63455288Y-31408163D02*
X63298829Y-31612277D01*
X63298829Y-31612277D02*
X63151798Y-31824977D01*
X63151798Y-31824977D02*
X63015348Y-32044640D01*
X63015348Y-32044640D02*
X62890628Y-32269647D01*
X62890628Y-32269647D02*
X62778787Y-32498376D01*
X62778787Y-32498376D02*
X62680977Y-32729207D01*
X62680977Y-32729207D02*
X62598348Y-32960518D01*
X62598348Y-32960518D02*
X62532050Y-33190690D01*
X62532050Y-33190690D02*
X62483233Y-33418101D01*
X62483233Y-33418101D02*
X62453047Y-33641129D01*
X62453047Y-33641129D02*
X62442642Y-33858155D01*
X62442642Y-33858155D02*
X62453170Y-34067557D01*
X62453170Y-34067557D02*
X62486849Y-34232870D01*
X62486849Y-34232870D02*
X62548837Y-34376185D01*
X62548837Y-34376185D02*
X62635944Y-34499837D01*
X62635944Y-34499837D02*
X62744983Y-34606159D01*
X62744983Y-34606159D02*
X62872763Y-34697485D01*
X62872763Y-34697485D02*
X63016097Y-34776149D01*
X63016097Y-34776149D02*
X63171797Y-34844484D01*
X63171797Y-34844484D02*
X63336672Y-34904824D01*
X63336672Y-34904824D02*
X63507535Y-34959503D01*
X63507535Y-34959503D02*
X63681196Y-35010854D01*
X63681196Y-35010854D02*
X63854468Y-35061212D01*
X63854468Y-35061212D02*
X64024161Y-35112908D01*
X64024161Y-35112908D02*
X64187087Y-35168278D01*
X64187087Y-35168278D02*
X64340057Y-35229655D01*
X64340057Y-35229655D02*
X64479882Y-35299373D01*
X64479882Y-35299373D02*
X64603374Y-35379765D01*
X64603374Y-35379765D02*
X64707343Y-35473164D01*
X64707343Y-35473164D02*
X64788602Y-35581906D01*
X64788602Y-35581906D02*
X64843962Y-35708322D01*
X64843962Y-35708322D02*
X64870233Y-35854748D01*
X64870233Y-35854748D02*
X64864227Y-36023516D01*
X64864227Y-36023516D02*
X64822756Y-36216960D01*
X64822756Y-36216960D02*
X64791351Y-36284590D01*
X64791351Y-36284590D02*
X64733021Y-36367060D01*
X64733021Y-36367060D02*
X64649133Y-36463556D01*
X64649133Y-36463556D02*
X64541056Y-36573267D01*
X64541056Y-36573267D02*
X64410155Y-36695377D01*
X64410155Y-36695377D02*
X64257798Y-36829075D01*
X64257798Y-36829075D02*
X64085352Y-36973545D01*
X64085352Y-36973545D02*
X63894184Y-37127976D01*
X63894184Y-37127976D02*
X63685661Y-37291554D01*
X63685661Y-37291554D02*
X63461150Y-37463465D01*
X63461150Y-37463465D02*
X63222018Y-37642896D01*
X63222018Y-37642896D02*
X62969632Y-37829033D01*
X62969632Y-37829033D02*
X62705359Y-38021064D01*
X62705359Y-38021064D02*
X62430566Y-38218175D01*
X62430566Y-38218175D02*
X62146620Y-38419552D01*
X62146620Y-38419552D02*
X61854888Y-38624382D01*
X61854888Y-38624382D02*
X61556738Y-38831852D01*
X61556738Y-38831852D02*
X61253535Y-39041149D01*
X61253535Y-39041149D02*
X60946648Y-39251458D01*
X60946648Y-39251458D02*
X60637444Y-39461967D01*
X60637444Y-39461967D02*
X60327288Y-39671863D01*
X60327288Y-39671863D02*
X60017549Y-39880331D01*
X60017549Y-39880331D02*
X59709594Y-40086559D01*
X59709594Y-40086559D02*
X59404789Y-40289733D01*
X59404789Y-40289733D02*
X59104501Y-40489039D01*
X59104501Y-40489039D02*
X58810098Y-40683666D01*
X58810098Y-40683666D02*
X58522946Y-40872798D01*
X58522946Y-40872798D02*
X58244414Y-41055623D01*
X58244414Y-41055623D02*
X57975866Y-41231327D01*
X57975866Y-41231327D02*
X57718671Y-41399097D01*
X57718671Y-41399097D02*
X57474196Y-41558120D01*
X57474196Y-41558120D02*
X57243808Y-41707581D01*
X57243808Y-41707581D02*
X57028874Y-41846669D01*
X57028874Y-41846669D02*
X56830760Y-41974569D01*
X56830760Y-41974569D02*
X56650834Y-42090468D01*
X56650834Y-42090468D02*
X56490463Y-42193553D01*
X56490463Y-42193553D02*
X56351014Y-42283011D01*
X56351014Y-42283011D02*
X56233853Y-42358027D01*
X56233853Y-42358027D02*
X56140349Y-42417789D01*
X56140349Y-42417789D02*
X56071868Y-42461483D01*
X56071868Y-42461483D02*
X56029777Y-42488296D01*
X56029777Y-42488296D02*
X56015442Y-42497414D01*
X73014870Y-34945879D02*
X73042716Y-34942847D01*
X73042716Y-34942847D02*
X73123466Y-34933636D01*
X73123466Y-34933636D02*
X73252935Y-34918072D01*
X73252935Y-34918072D02*
X73426939Y-34895984D01*
X73426939Y-34895984D02*
X73641293Y-34867196D01*
X73641293Y-34867196D02*
X73891815Y-34831538D01*
X73891815Y-34831538D02*
X74174319Y-34788836D01*
X74174319Y-34788836D02*
X74484621Y-34738916D01*
X74484621Y-34738916D02*
X74818537Y-34681606D01*
X74818537Y-34681606D02*
X75171884Y-34616733D01*
X75171884Y-34616733D02*
X75540476Y-34544123D01*
X75540476Y-34544123D02*
X75920130Y-34463605D01*
X75920130Y-34463605D02*
X76306662Y-34375004D01*
X76306662Y-34375004D02*
X76713482Y-34269468D01*
X76713482Y-34269468D02*
X77091226Y-34155895D01*
X77091226Y-34155895D02*
X77438695Y-34037567D01*
X77438695Y-34037567D02*
X77754687Y-33917763D01*
X77754687Y-33917763D02*
X78038000Y-33799767D01*
X78038000Y-33799767D02*
X78287435Y-33686857D01*
X78287435Y-33686857D02*
X78501791Y-33582317D01*
X78501791Y-33582317D02*
X78679865Y-33489426D01*
X78679865Y-33489426D02*
X78820458Y-33411466D01*
X78820458Y-33411466D02*
X78922368Y-33351718D01*
X78922368Y-33351718D02*
X78984395Y-33313463D01*
X78984395Y-33313463D02*
X79005338Y-33299982D01*
X40457926Y-28279290D02*
X40469719Y-28288518D01*
X40469719Y-28288518D02*
X40504472Y-28315555D01*
X40504472Y-28315555D02*
X40561243Y-28359433D01*
X40561243Y-28359433D02*
X40639091Y-28419187D01*
X40639091Y-28419187D02*
X40737074Y-28493848D01*
X40737074Y-28493848D02*
X40854251Y-28582448D01*
X40854251Y-28582448D02*
X40989681Y-28684020D01*
X40989681Y-28684020D02*
X41142422Y-28797598D01*
X41142422Y-28797598D02*
X41311533Y-28922212D01*
X41311533Y-28922212D02*
X41496072Y-29056897D01*
X41496072Y-29056897D02*
X41695098Y-29200683D01*
X41695098Y-29200683D02*
X41907669Y-29352605D01*
X41907669Y-29352605D02*
X42132845Y-29511694D01*
X42132845Y-29511694D02*
X42369684Y-29676983D01*
X42369684Y-29676983D02*
X42617245Y-29847505D01*
X42617245Y-29847505D02*
X42874585Y-30022291D01*
X42874585Y-30022291D02*
X43140764Y-30200375D01*
X43140764Y-30200375D02*
X43414841Y-30380790D01*
X43414841Y-30380790D02*
X43695873Y-30562567D01*
X43695873Y-30562567D02*
X43982920Y-30744739D01*
X43982920Y-30744739D02*
X44275040Y-30926338D01*
X44275040Y-30926338D02*
X44571292Y-31106399D01*
X44571292Y-31106399D02*
X44870734Y-31283951D01*
X44870734Y-31283951D02*
X45172426Y-31458030D01*
X45172426Y-31458030D02*
X45475425Y-31627666D01*
X45475425Y-31627666D02*
X45778790Y-31791892D01*
X45778790Y-31791892D02*
X46081580Y-31949741D01*
X46081580Y-31949741D02*
X46382854Y-32100246D01*
X46382854Y-32100246D02*
X46681669Y-32242439D01*
X46681669Y-32242439D02*
X46977086Y-32375353D01*
X46977086Y-32375353D02*
X47268162Y-32498019D01*
X47268162Y-32498019D02*
X47553955Y-32609471D01*
X47553955Y-32609471D02*
X47833525Y-32708741D01*
X47833525Y-32708741D02*
X48070364Y-32785473D01*
X48070364Y-32785473D02*
X48313283Y-32858578D01*
X48313283Y-32858578D02*
X48561868Y-32928132D01*
X48561868Y-32928132D02*
X48815706Y-32994214D01*
X48815706Y-32994214D02*
X49074383Y-33056901D01*
X49074383Y-33056901D02*
X49337486Y-33116269D01*
X49337486Y-33116269D02*
X49604601Y-33172397D01*
X49604601Y-33172397D02*
X49875315Y-33225362D01*
X49875315Y-33225362D02*
X50149214Y-33275240D01*
X50149214Y-33275240D02*
X50425883Y-33322110D01*
X50425883Y-33322110D02*
X50704911Y-33366048D01*
X50704911Y-33366048D02*
X50985883Y-33407132D01*
X50985883Y-33407132D02*
X51268385Y-33445440D01*
X51268385Y-33445440D02*
X51552004Y-33481048D01*
X51552004Y-33481048D02*
X51836327Y-33514034D01*
X51836327Y-33514034D02*
X52120939Y-33544475D01*
X52120939Y-33544475D02*
X52405428Y-33572448D01*
X52405428Y-33572448D02*
X52689379Y-33598032D01*
X52689379Y-33598032D02*
X52972379Y-33621302D01*
X52972379Y-33621302D02*
X53254015Y-33642337D01*
X53254015Y-33642337D02*
X53533872Y-33661213D01*
X53533872Y-33661213D02*
X53811538Y-33678009D01*
X53811538Y-33678009D02*
X54086599Y-33692801D01*
X54086599Y-33692801D02*
X54358640Y-33705667D01*
X54358640Y-33705667D02*
X54627249Y-33716683D01*
X54627249Y-33716683D02*
X54892013Y-33725928D01*
X54892013Y-33725928D02*
X55152516Y-33733479D01*
X55152516Y-33733479D02*
X55408346Y-33739413D01*
X55408346Y-33739413D02*
X55659089Y-33743807D01*
X55659089Y-33743807D02*
X55904332Y-33746738D01*
X55904332Y-33746738D02*
X56143661Y-33748284D01*
X56143661Y-33748284D02*
X56376662Y-33748523D01*
X56376662Y-33748523D02*
X56602922Y-33747531D01*
X56602922Y-33747531D02*
X56822027Y-33745386D01*
X56822027Y-33745386D02*
X57033564Y-33742165D01*
X57033564Y-33742165D02*
X57237119Y-33737946D01*
X57237119Y-33737946D02*
X57432278Y-33732806D01*
X57432278Y-33732806D02*
X57618628Y-33726821D01*
X57618628Y-33726821D02*
X57795755Y-33720070D01*
X57795755Y-33720070D02*
X58262093Y-33703769D01*
X58262093Y-33703769D02*
X58700056Y-33693911D01*
X58700056Y-33693911D02*
X59108656Y-33689659D01*
X59108656Y-33689659D02*
X59486906Y-33690173D01*
X59486906Y-33690173D02*
X59833819Y-33694616D01*
X59833819Y-33694616D02*
X60148407Y-33702150D01*
X60148407Y-33702150D02*
X60429682Y-33711937D01*
X60429682Y-33711937D02*
X60676658Y-33723137D01*
X60676658Y-33723137D02*
X60888347Y-33734915D01*
X60888347Y-33734915D02*
X61063761Y-33746430D01*
X61063761Y-33746430D02*
X61201913Y-33756845D01*
X61201913Y-33756845D02*
X61301816Y-33765323D01*
X61301816Y-33765323D02*
X61362482Y-33771024D01*
X61362482Y-33771024D02*
X61382923Y-33773110D01*
D13*
X39701191Y-37326962D02*
X39677892Y-37127676D01*
X39677892Y-37127676D02*
X39655825Y-36924366D01*
X39655825Y-36924366D02*
X39636091Y-36717845D01*
X39636091Y-36717845D02*
X39619791Y-36508930D01*
X39619791Y-36508930D02*
X39608026Y-36298434D01*
X39608026Y-36298434D02*
X39601895Y-36087172D01*
X39601895Y-36087172D02*
X39602501Y-35875961D01*
X39602501Y-35875961D02*
X39610944Y-35665613D01*
X39610944Y-35665613D02*
X39628324Y-35456945D01*
X39628324Y-35456945D02*
X39655742Y-35250770D01*
X39655742Y-35250770D02*
X39694300Y-35047905D01*
X39694300Y-35047905D02*
X39745098Y-34849163D01*
X39745098Y-34849163D02*
X39809236Y-34655360D01*
X39809236Y-34655360D02*
X39887816Y-34467310D01*
X39887816Y-34467310D02*
X39981938Y-34285829D01*
X39981938Y-34285829D02*
X40092704Y-34111730D01*
X40092704Y-34111730D02*
X40221213Y-33945830D01*
X40221213Y-33945830D02*
X40368567Y-33788943D01*
X40368567Y-33788943D02*
X40535866Y-33641883D01*
X40535866Y-33641883D02*
X40724211Y-33505466D01*
X40724211Y-33505466D02*
X40934704Y-33380506D01*
X40934704Y-33380506D02*
X41168444Y-33267818D01*
X41168444Y-33267818D02*
X41426533Y-33168218D01*
X41426533Y-33168218D02*
X41710071Y-33082519D01*
X41710071Y-33082519D02*
X41953624Y-33029114D01*
X41953624Y-33029114D02*
X42193128Y-32998100D01*
X42193128Y-32998100D02*
X42428312Y-32988438D01*
X42428312Y-32988438D02*
X42658903Y-32999092D01*
X42658903Y-32999092D02*
X42884628Y-33029024D01*
X42884628Y-33029024D02*
X43105215Y-33077198D01*
X43105215Y-33077198D02*
X43320393Y-33142577D01*
X43320393Y-33142577D02*
X43529887Y-33224123D01*
X43529887Y-33224123D02*
X43733427Y-33320799D01*
X43733427Y-33320799D02*
X43930740Y-33431568D01*
X43930740Y-33431568D02*
X44121553Y-33555393D01*
X44121553Y-33555393D02*
X44305594Y-33691237D01*
X44305594Y-33691237D02*
X44482592Y-33838063D01*
X44482592Y-33838063D02*
X44652272Y-33994834D01*
X44652272Y-33994834D02*
X44814364Y-34160512D01*
X44814364Y-34160512D02*
X44968594Y-34334060D01*
X44968594Y-34334060D02*
X45114691Y-34514442D01*
X45114691Y-34514442D02*
X45252381Y-34700620D01*
X45252381Y-34700620D02*
X45381394Y-34891557D01*
X45381394Y-34891557D02*
X45501456Y-35086216D01*
X45501456Y-35086216D02*
X45612295Y-35283560D01*
X45612295Y-35283560D02*
X45713638Y-35482552D01*
X45713638Y-35482552D02*
X45805214Y-35682154D01*
X45805214Y-35682154D02*
X45886750Y-35881330D01*
X45886750Y-35881330D02*
X45957973Y-36079042D01*
X45957973Y-36079042D02*
X46018612Y-36274254D01*
X46018612Y-36274254D02*
X46068394Y-36465928D01*
X46068394Y-36465928D02*
X46107046Y-36653026D01*
X46107046Y-36653026D02*
X46134296Y-36834513D01*
X46134296Y-36834513D02*
X46155537Y-37080914D01*
X46155537Y-37080914D02*
X46160251Y-37326833D01*
X46160251Y-37326833D02*
X46148834Y-37571167D01*
X46148834Y-37571167D02*
X46121678Y-37812809D01*
X46121678Y-37812809D02*
X46079176Y-38050655D01*
X46079176Y-38050655D02*
X46021722Y-38283599D01*
X46021722Y-38283599D02*
X45949708Y-38510536D01*
X45949708Y-38510536D02*
X45863528Y-38730361D01*
X45863528Y-38730361D02*
X45763575Y-38941969D01*
X45763575Y-38941969D02*
X45650242Y-39144254D01*
X45650242Y-39144254D02*
X45523923Y-39336111D01*
X45523923Y-39336111D02*
X45385010Y-39516434D01*
X45385010Y-39516434D02*
X45233898Y-39684120D01*
X45233898Y-39684120D02*
X45070978Y-39838061D01*
X45070978Y-39838061D02*
X44896644Y-39977154D01*
X44896644Y-39977154D02*
X44711289Y-40100293D01*
X44711289Y-40100293D02*
X44515307Y-40206372D01*
X44515307Y-40206372D02*
X44309091Y-40294287D01*
X44309091Y-40294287D02*
X44093034Y-40362932D01*
X44093034Y-40362932D02*
X43867528Y-40411202D01*
X43867528Y-40411202D02*
X43632969Y-40437991D01*
X43632969Y-40437991D02*
X43412721Y-40442507D01*
X43412721Y-40442507D02*
X43189084Y-40428021D01*
X43189084Y-40428021D02*
X42963182Y-40395434D01*
X42963182Y-40395434D02*
X42736139Y-40345645D01*
X42736139Y-40345645D02*
X42509080Y-40279551D01*
X42509080Y-40279551D02*
X42283129Y-40198053D01*
X42283129Y-40198053D02*
X42059411Y-40102050D01*
X42059411Y-40102050D02*
X41839051Y-39992441D01*
X41839051Y-39992441D02*
X41623172Y-39870124D01*
X41623172Y-39870124D02*
X41412900Y-39736000D01*
X41412900Y-39736000D02*
X41209358Y-39590966D01*
X41209358Y-39590966D02*
X41013672Y-39435924D01*
X41013672Y-39435924D02*
X40826966Y-39271770D01*
X40826966Y-39271770D02*
X40650364Y-39099405D01*
X40650364Y-39099405D02*
X40484991Y-38919728D01*
X40484991Y-38919728D02*
X40331972Y-38733637D01*
X40331972Y-38733637D02*
X40192430Y-38542033D01*
X40192430Y-38542033D02*
X40067491Y-38345814D01*
X40067491Y-38345814D02*
X39958279Y-38145878D01*
X39958279Y-38145878D02*
X39865919Y-37943127D01*
X39865919Y-37943127D02*
X39791534Y-37738457D01*
X39791534Y-37738457D02*
X39736250Y-37532769D01*
X39736250Y-37532769D02*
X39701191Y-37326962D01*
D12*
X78696058Y-35452751D02*
X78704874Y-35473527D01*
X78704874Y-35473527D02*
X78729376Y-35534014D01*
X78729376Y-35534014D02*
X78766647Y-35631450D01*
X78766647Y-35631450D02*
X78813769Y-35763074D01*
X78813769Y-35763074D02*
X78867825Y-35926123D01*
X78867825Y-35926123D02*
X78925897Y-36117838D01*
X78925897Y-36117838D02*
X78985068Y-36335455D01*
X78985068Y-36335455D02*
X79042419Y-36576214D01*
X79042419Y-36576214D02*
X79095033Y-36837353D01*
X79095033Y-36837353D02*
X79139993Y-37116110D01*
X79139993Y-37116110D02*
X79174380Y-37409724D01*
X79174380Y-37409724D02*
X79195278Y-37715433D01*
X79195278Y-37715433D02*
X79199768Y-38030476D01*
X79199768Y-38030476D02*
X79184934Y-38352091D01*
X79184934Y-38352091D02*
X79147857Y-38677517D01*
X79147857Y-38677517D02*
X79085619Y-39003991D01*
X79085619Y-39003991D02*
X78995304Y-39328753D01*
X78995304Y-39328753D02*
X78873993Y-39649041D01*
X78873993Y-39649041D02*
X78706952Y-39987589D01*
X78706952Y-39987589D02*
X78518773Y-40290918D01*
X78518773Y-40290918D02*
X78313860Y-40560876D01*
X78313860Y-40560876D02*
X78096616Y-40799306D01*
X78096616Y-40799306D02*
X77871444Y-41008056D01*
X77871444Y-41008056D02*
X77642750Y-41188971D01*
X77642750Y-41188971D02*
X77414936Y-41343896D01*
X77414936Y-41343896D02*
X77192406Y-41474677D01*
X77192406Y-41474677D02*
X76979564Y-41583159D01*
X76979564Y-41583159D02*
X76780813Y-41671190D01*
X76780813Y-41671190D02*
X76600557Y-41740613D01*
X76600557Y-41740613D02*
X76443200Y-41793275D01*
X76443200Y-41793275D02*
X76313146Y-41831022D01*
X76313146Y-41831022D02*
X76214798Y-41855698D01*
X76214798Y-41855698D02*
X76152560Y-41869151D01*
X76152560Y-41869151D02*
X76130835Y-41873225D01*
%TD*%
M02*
